<?xml version="1.0" encoding="UTF-8" standalone="no"?>
<!DOCTYPE svg PUBLIC "-//W3C//DTD SVG 1.1//EN"
 "http://www.w3.org/Graphics/SVG/1.1/DTD/svg11.dtd">
<!-- Generated by graphviz version 2.43.0 (0)
 -->
<!-- Title: include/rest_cpp/client.hpp Pages: 1 -->
<svg width="2343pt" height="401pt"
 viewBox="0.00 0.00 2343.26 401.00" xmlns="http://www.w3.org/2000/svg" xmlns:xlink="http://www.w3.org/1999/xlink">
<g id="graph0" class="graph" transform="scale(1 1) rotate(0) translate(4 397)">
<title>include/rest_cpp/client.hpp</title>
<!-- Node1 -->
<g id="Node000001" class="node">
<title>Node1</title>
<g id="a_Node000001"><a xlink:title=" ">
<polygon fill="#999999" stroke="#666666" points="602.76,-393 455.76,-393 455.76,-374 602.76,-374 602.76,-393"/>
<text text-anchor="middle" x="529.26" y="-381" font-family="Helvetica,sans-Serif" font-size="10.00">include/rest_cpp/client.hpp</text>
</a>
</g>
</g>
<!-- Node2 -->
<g id="Node000002" class="node">
<title>Node2</title>
<g id="a_Node000002"><a xlink:title=" ">
<polygon fill="#e0e0e0" stroke="#999999" points="151.26,-332.5 9.26,-332.5 9.26,-313.5 151.26,-313.5 151.26,-332.5"/>
<text text-anchor="middle" x="80.26" y="-320.5" font-family="Helvetica,sans-Serif" font-size="10.00">boost/asio/io_context.hpp</text>
</a>
</g>
</g>
<!-- Node1&#45;&gt;Node2 -->
<g id="edge1_Node000001_Node000002" class="edge">
<title>Node1&#45;&gt;Node2</title>
<g id="a_edge1_Node000001_Node000002"><a xlink:title=" ">
<path fill="none" stroke="#63b8ff" d="M455.59,-374.4C381.97,-366.1 265.62,-352.39 165.26,-338 157.15,-336.84 148.63,-335.53 140.23,-334.2"/>
<polygon fill="#63b8ff" stroke="#63b8ff" points="140.53,-330.7 130.1,-332.56 139.41,-337.61 140.53,-330.7"/>
</a>
</g>
</g>
<!-- Node3 -->
<g id="Node000003" class="node">
<title>Node3</title>
<g id="a_Node000003"><a xlink:title=" ">
<polygon fill="#e0e0e0" stroke="#999999" points="439.26,-266.5 321.26,-266.5 321.26,-247.5 439.26,-247.5 439.26,-266.5"/>
<text text-anchor="middle" x="380.26" y="-254.5" font-family="Helvetica,sans-Serif" font-size="10.00">boost/asio/ip/tcp.hpp</text>
</a>
</g>
</g>
<!-- Node1&#45;&gt;Node3 -->
<g id="edge2_Node000001_Node000003" class="edge">
<title>Node1&#45;&gt;Node3</title>
<g id="a_edge2_Node000001_Node000003"><a xlink:title=" ">
<path fill="none" stroke="#63b8ff" d="M519.02,-373.94C494.14,-353.15 430.23,-299.76 398.58,-273.31"/>
<polygon fill="#63b8ff" stroke="#63b8ff" points="400.49,-270.34 390.57,-266.62 396,-275.72 400.49,-270.34"/>
</a>
</g>
</g>
<!-- Node4 -->
<g id="Node000004" class="node">
<title>Node4</title>
<g id="a_Node000004"><a xlink:title=" ">
<polygon fill="#e0e0e0" stroke="#999999" points="601.26,-266.5 457.26,-266.5 457.26,-247.5 601.26,-247.5 601.26,-266.5"/>
<text text-anchor="middle" x="529.26" y="-254.5" font-family="Helvetica,sans-Serif" font-size="10.00">boost/asio/ssl/context.hpp</text>
</a>
</g>
</g>
<!-- Node1&#45;&gt;Node4 -->
<g id="edge3_Node000001_Node000004" class="edge">
<title>Node1&#45;&gt;Node4</title>
<g id="a_edge3_Node000001_Node000004"><a xlink:title=" ">
<path fill="none" stroke="#63b8ff" d="M529.26,-373.94C529.26,-354.04 529.26,-304.26 529.26,-276.85"/>
<polygon fill="#63b8ff" stroke="#63b8ff" points="532.76,-276.62 529.26,-266.62 525.76,-276.62 532.76,-276.62"/>
</a>
</g>
</g>
<!-- Node5 -->
<g id="Node000005" class="node">
<title>Node5</title>
<g id="a_Node000005"><a xlink:title=" ">
<polygon fill="#e0e0e0" stroke="#999999" points="1444.76,-140 1335.76,-140 1335.76,-110 1444.76,-110 1444.76,-140"/>
<text text-anchor="start" x="1343.76" y="-128" font-family="Helvetica,sans-Serif" font-size="10.00">boost/system/error</text>
<text text-anchor="middle" x="1390.26" y="-117" font-family="Helvetica,sans-Serif" font-size="10.00">_code.hpp</text>
</a>
</g>
</g>
<!-- Node1&#45;&gt;Node5 -->
<g id="edge4_Node000001_Node000005" class="edge">
<title>Node1&#45;&gt;Node5</title>
<g id="a_edge4_Node000001_Node000005"><a xlink:title=" ">
<path fill="none" stroke="#63b8ff" d="M602.84,-380.7C927.88,-372.4 2221.54,-335.44 2278.26,-272 2306.7,-240.19 2307.57,-207.01 2278.26,-176 2250.03,-146.13 1654.46,-131.36 1454.83,-127.23"/>
<polygon fill="#63b8ff" stroke="#63b8ff" points="1454.85,-123.73 1444.78,-127.03 1454.71,-130.73 1454.85,-123.73"/>
</a>
</g>
</g>
<!-- Node6 -->
<g id="Node000006" class="node">
<title>Node6</title>
<g id="a_Node000006"><a xlink:title=" ">
<polygon fill="#e0e0e0" stroke="#999999" points="197.26,-200.5 141.26,-200.5 141.26,-181.5 197.26,-181.5 197.26,-200.5"/>
<text text-anchor="middle" x="169.26" y="-188.5" font-family="Helvetica,sans-Serif" font-size="10.00">optional</text>
</a>
</g>
</g>
<!-- Node1&#45;&gt;Node6 -->
<g id="edge5_Node000001_Node000006" class="edge">
<title>Node1&#45;&gt;Node6</title>
<g id="a_edge5_Node000001_Node000006"><a xlink:title=" ">
<path fill="none" stroke="#63b8ff" d="M455.66,-377.57C385.85,-371.67 287.04,-359.73 255.26,-338 209.42,-306.66 184.43,-242.17 174.46,-210.45"/>
<polygon fill="#63b8ff" stroke="#63b8ff" points="177.76,-209.28 171.55,-200.7 171.05,-211.28 177.76,-209.28"/>
</a>
</g>
</g>
<!-- Node7 -->
<g id="Node000007" class="node">
<title>Node7</title>
<g id="a_Node000007"><a xlink:title=" ">
<polygon fill="#e0e0e0" stroke="#999999" points="462.26,-19 418.26,-19 418.26,0 462.26,0 462.26,-19"/>
<text text-anchor="middle" x="440.26" y="-7" font-family="Helvetica,sans-Serif" font-size="10.00">string</text>
</a>
</g>
</g>
<!-- Node1&#45;&gt;Node7 -->
<g id="edge6_Node000001_Node000007" class="edge">
<title>Node1&#45;&gt;Node7</title>
<g id="a_edge6_Node000001_Node000007"><a xlink:title=" ">
<path fill="none" stroke="#63b8ff" d="M603.08,-381.48C851.92,-377.83 1658.81,-364.23 1917.26,-338 2105.44,-318.9 2335.26,-447.15 2335.26,-258 2335.26,-258 2335.26,-258 2335.26,-124 2335.26,-26.73 723.22,-12.34 472.78,-10.69"/>
<polygon fill="#63b8ff" stroke="#63b8ff" points="472.55,-7.19 462.53,-10.62 472.5,-14.19 472.55,-7.19"/>
</a>
</g>
</g>
<!-- Node8 -->
<g id="Node000008" class="node">
<title>Node8</title>
<g id="a_Node000008"><a xlink:href="config_8hpp.html" target="_top" xlink:title=" ">
<polygon fill="white" stroke="#666666" points="137.76,-266.5 70.76,-266.5 70.76,-247.5 137.76,-247.5 137.76,-266.5"/>
<text text-anchor="middle" x="104.26" y="-254.5" font-family="Helvetica,sans-Serif" font-size="10.00">config.hpp</text>
</a>
</g>
</g>
<!-- Node1&#45;&gt;Node8 -->
<g id="edge7_Node000001_Node000008" class="edge">
<title>Node1&#45;&gt;Node8</title>
<g id="a_edge7_Node000001_Node000008"><a xlink:title=" ">
<path fill="none" stroke="#63b8ff" d="M455.43,-377.05C373.56,-370.2 247.24,-356.99 203.26,-338 185.19,-330.2 144.34,-294.52 121.15,-273.54"/>
<polygon fill="#63b8ff" stroke="#63b8ff" points="123.23,-270.7 113.49,-266.55 118.52,-275.87 123.23,-270.7"/>
</a>
</g>
</g>
<!-- Node11 -->
<g id="Node000011" class="node">
<title>Node11</title>
<g id="a_Node000011"><a xlink:href="request_8hpp.html" target="_top" xlink:title=" ">
<polygon fill="white" stroke="#666666" points="693.26,-266.5 619.26,-266.5 619.26,-247.5 693.26,-247.5 693.26,-266.5"/>
<text text-anchor="middle" x="656.26" y="-254.5" font-family="Helvetica,sans-Serif" font-size="10.00">request.hpp</text>
</a>
</g>
</g>
<!-- Node1&#45;&gt;Node11 -->
<g id="edge12_Node000001_Node000011" class="edge">
<title>Node1&#45;&gt;Node11</title>
<g id="a_edge12_Node000001_Node000011"><a xlink:title=" ">
<path fill="none" stroke="#63b8ff" d="M537.99,-373.94C559.1,-353.24 613.2,-300.21 640.29,-273.65"/>
<polygon fill="#63b8ff" stroke="#63b8ff" points="642.78,-276.12 647.47,-266.62 637.88,-271.12 642.78,-276.12"/>
</a>
</g>
</g>
<!-- Node21 -->
<g id="Node000021" class="node">
<title>Node21</title>
<g id="a_Node000021"><a xlink:href="url_8hpp.html" target="_top" xlink:title=" ">
<polygon fill="white" stroke="#666666" points="265.26,-200.5 215.26,-200.5 215.26,-181.5 265.26,-181.5 265.26,-200.5"/>
<text text-anchor="middle" x="240.26" y="-188.5" font-family="Helvetica,sans-Serif" font-size="10.00">url.hpp</text>
</a>
</g>
</g>
<!-- Node1&#45;&gt;Node21 -->
<g id="edge60_Node000001_Node000021" class="edge">
<title>Node1&#45;&gt;Node21</title>
<g id="a_edge60_Node000001_Node000021"><a xlink:title=" ">
<path fill="none" stroke="#63b8ff" d="M455.59,-378.03C391.32,-372.62 304.5,-361.19 279.26,-338 243.12,-304.81 238.97,-242.19 239.36,-210.85"/>
<polygon fill="#63b8ff" stroke="#63b8ff" points="242.86,-210.94 239.65,-200.84 235.86,-210.73 242.86,-210.94"/>
</a>
</g>
</g>
<!-- Node23 -->
<g id="Node000023" class="node">
<title>Node23</title>
<g id="a_Node000023"><a xlink:href="result_8hpp.html" target="_top" xlink:title=" ">
<polygon fill="white" stroke="#666666" points="263.76,-134.5 198.76,-134.5 198.76,-115.5 263.76,-115.5 263.76,-134.5"/>
<text text-anchor="middle" x="231.26" y="-122.5" font-family="Helvetica,sans-Serif" font-size="10.00">result.hpp</text>
</a>
</g>
</g>
<!-- Node1&#45;&gt;Node23 -->
<g id="edge61_Node000001_Node000023" class="edge">
<title>Node1&#45;&gt;Node23</title>
<g id="a_edge61_Node000001_Node000023"><a xlink:title=" ">
<path fill="none" stroke="#63b8ff" d="M496.3,-373.91C449.28,-360.04 363.01,-328.42 312.26,-272 281.57,-237.89 297.99,-215.27 274.26,-176 266.75,-163.57 256.12,-151.18 247.31,-141.85"/>
<polygon fill="#63b8ff" stroke="#63b8ff" points="249.65,-139.23 240.17,-134.5 244.63,-144.11 249.65,-139.23"/>
</a>
</g>
</g>
<!-- Node29 -->
<g id="Node000029" class="node">
<title>Node29</title>
<g id="a_Node000029"><a xlink:href="response_8hpp.html" target="_top" xlink:title=" ">
<polygon fill="white" stroke="#666666" points="2269.26,-266.5 2187.26,-266.5 2187.26,-247.5 2269.26,-247.5 2269.26,-266.5"/>
<text text-anchor="middle" x="2228.26" y="-254.5" font-family="Helvetica,sans-Serif" font-size="10.00">response.hpp</text>
</a>
</g>
</g>
<!-- Node1&#45;&gt;Node29 -->
<g id="edge35_Node000001_Node000029" class="edge">
<title>Node1&#45;&gt;Node29</title>
<g id="a_edge35_Node000001_Node000029"><a xlink:title=" ">
<path fill="none" stroke="#63b8ff" d="M602.79,-379.74C880.96,-368.96 1868.84,-327.56 2178.26,-272 2182.67,-271.21 2187.25,-270.2 2191.78,-269.08"/>
<polygon fill="#63b8ff" stroke="#63b8ff" points="2192.72,-272.45 2201.49,-266.51 2190.93,-265.68 2192.72,-272.45"/>
</a>
</g>
</g>
<!-- Node33 -->
<g id="Node000033" class="node">
<title>Node33</title>
<g id="a_Node000033"><a xlink:href="connection_8hpp.html" target="_top" xlink:title=" ">
<polygon fill="white" stroke="#666666" points="968.26,-338 854.26,-338 854.26,-308 968.26,-308 968.26,-338"/>
<text text-anchor="start" x="862.26" y="-326" font-family="Helvetica,sans-Serif" font-size="10.00">rest_cpp/connection</text>
<text text-anchor="middle" x="911.26" y="-315" font-family="Helvetica,sans-Serif" font-size="10.00">/connection.hpp</text>
</a>
</g>
</g>
<!-- Node1&#45;&gt;Node33 -->
<g id="edge41_Node000001_Node000033" class="edge">
<title>Node1&#45;&gt;Node33</title>
<g id="a_edge41_Node000001_Node000033"><a xlink:title=" ">
<path fill="none" stroke="#63b8ff" d="M584.81,-373.99C653.48,-363.48 770.3,-345.59 843.98,-334.3"/>
<polygon fill="#63b8ff" stroke="#63b8ff" points="844.73,-337.73 854.09,-332.76 843.67,-330.81 844.73,-337.73"/>
</a>
</g>
</g>
<!-- Node42 -->
<g id="Node000042" class="node">
<title>Node42</title>
<g id="a_Node000042"><a xlink:href="serialize__impl_8hpp.html" target="_top" xlink:title=" ">
<polygon fill="white" stroke="#666666" points="1369.26,-332.5 1263.26,-332.5 1263.26,-313.5 1369.26,-313.5 1369.26,-332.5"/>
<text text-anchor="middle" x="1316.26" y="-320.5" font-family="Helvetica,sans-Serif" font-size="10.00">serialize_impl.hpp</text>
</a>
</g>
</g>
<!-- Node1&#45;&gt;Node42 -->
<g id="edge62_Node000001_Node000042" class="edge">
<title>Node1&#45;&gt;Node42</title>
<g id="a_edge62_Node000001_Node000042"><a xlink:title=" ">
<path fill="none" stroke="#63b8ff" d="M602.94,-377.02C756.59,-365.6 1108.86,-339.42 1253.01,-328.7"/>
<polygon fill="#63b8ff" stroke="#63b8ff" points="1253.31,-332.19 1263.02,-327.96 1252.79,-325.21 1253.31,-332.19"/>
</a>
</g>
</g>
<!-- Node8&#45;&gt;Node6 -->
<g id="edge10_Node000008_Node000006" class="edge">
<title>Node8&#45;&gt;Node6</title>
<g id="a_edge10_Node000008_Node000006"><a xlink:title=" ">
<path fill="none" stroke="#63b8ff" d="M113.03,-247.37C123.24,-237.31 140.34,-220.48 153,-208.01"/>
<polygon fill="#63b8ff" stroke="#63b8ff" points="155.54,-210.42 160.21,-200.91 150.63,-205.43 155.54,-210.42"/>
</a>
</g>
</g>
<!-- Node8&#45;&gt;Node7 -->
<g id="edge11_Node000008_Node000007" class="edge">
<title>Node8&#45;&gt;Node7</title>
<g id="a_edge11_Node000008_Node000007"><a xlink:title=" ">
<path fill="none" stroke="#63b8ff" d="M70.45,-248.06C48.56,-240.97 21.71,-228.17 8.26,-206 -16.69,-164.87 20.98,-140.41 58.26,-110 164.08,-23.67 336.61,-11.45 407.89,-10.28"/>
<polygon fill="#63b8ff" stroke="#63b8ff" points="408.07,-13.77 418.04,-10.17 408,-6.77 408.07,-13.77"/>
</a>
</g>
</g>
<!-- Node9 -->
<g id="Node000009" class="node">
<title>Node9</title>
<g id="a_Node000009"><a xlink:title=" ">
<polygon fill="#e0e0e0" stroke="#999999" points="67.26,-200.5 17.26,-200.5 17.26,-181.5 67.26,-181.5 67.26,-200.5"/>
<text text-anchor="middle" x="42.26" y="-188.5" font-family="Helvetica,sans-Serif" font-size="10.00">chrono</text>
</a>
</g>
</g>
<!-- Node8&#45;&gt;Node9 -->
<g id="edge8_Node000008_Node000009" class="edge">
<title>Node8&#45;&gt;Node9</title>
<g id="a_edge8_Node000008_Node000009"><a xlink:title=" ">
<path fill="none" stroke="#63b8ff" d="M95.9,-247.37C86.24,-237.4 70.15,-220.79 58.11,-208.36"/>
<polygon fill="#63b8ff" stroke="#63b8ff" points="60.36,-205.65 50.89,-200.91 55.33,-210.52 60.36,-205.65"/>
</a>
</g>
</g>
<!-- Node10 -->
<g id="Node000010" class="node">
<title>Node10</title>
<g id="a_Node000010"><a xlink:title=" ">
<polygon fill="#e0e0e0" stroke="#999999" points="123.26,-200.5 85.26,-200.5 85.26,-181.5 123.26,-181.5 123.26,-200.5"/>
<text text-anchor="middle" x="104.26" y="-188.5" font-family="Helvetica,sans-Serif" font-size="10.00">map</text>
</a>
</g>
</g>
<!-- Node8&#45;&gt;Node10 -->
<g id="edge9_Node000008_Node000010" class="edge">
<title>Node8&#45;&gt;Node10</title>
<g id="a_edge9_Node000008_Node000010"><a xlink:title=" ">
<path fill="none" stroke="#63b8ff" d="M104.26,-247.37C104.26,-238.16 104.26,-223.29 104.26,-211.27"/>
<polygon fill="#63b8ff" stroke="#63b8ff" points="107.76,-210.91 104.26,-200.91 100.76,-210.91 107.76,-210.91"/>
</a>
</g>
</g>
<!-- Node11&#45;&gt;Node6 -->
<g id="edge13_Node000011_Node000006" class="edge">
<title>Node11&#45;&gt;Node6</title>
<g id="a_edge13_Node000011_Node000006"><a xlink:title=" ">
<path fill="none" stroke="#63b8ff" d="M631.67,-247.49C624.81,-245.4 617.31,-243.37 610.26,-242 433.31,-207.57 381.97,-246.27 206.26,-206 203.74,-205.42 201.16,-204.71 198.6,-203.92"/>
<polygon fill="#63b8ff" stroke="#63b8ff" points="199.52,-200.54 188.92,-200.58 197.23,-207.15 199.52,-200.54"/>
</a>
</g>
</g>
<!-- Node11&#45;&gt;Node7 -->
<g id="edge14_Node000011_Node000007" class="edge">
<title>Node11&#45;&gt;Node7</title>
<g id="a_edge14_Node000011_Node000007"><a xlink:title=" ">
<path fill="none" stroke="#63b8ff" d="M650.34,-247.44C634.26,-224.42 588.08,-159.52 544.26,-110 521.14,-83.87 513.5,-79.08 488.26,-55 478.09,-45.29 466.53,-34.57 457.31,-26.09"/>
<polygon fill="#63b8ff" stroke="#63b8ff" points="459.63,-23.47 449.9,-19.28 454.9,-28.62 459.63,-23.47"/>
</a>
</g>
</g>
<!-- Node12 -->
<g id="Node000012" class="node">
<title>Node12</title>
<g id="a_Node000012"><a xlink:title=" ">
<polygon fill="#e0e0e0" stroke="#999999" points="1158.76,-200.5 1065.76,-200.5 1065.76,-181.5 1158.76,-181.5 1158.76,-200.5"/>
<text text-anchor="middle" x="1112.26" y="-188.5" font-family="Helvetica,sans-Serif" font-size="10.00">unordered_map</text>
</a>
</g>
</g>
<!-- Node11&#45;&gt;Node12 -->
<g id="edge15_Node000011_Node000012" class="edge">
<title>Node11&#45;&gt;Node12</title>
<g id="a_edge15_Node000011_Node000012"><a xlink:title=" ">
<path fill="none" stroke="#63b8ff" d="M693.58,-250.76C773.41,-239.56 961.19,-213.2 1055.75,-199.93"/>
<polygon fill="#63b8ff" stroke="#63b8ff" points="1056.29,-203.39 1065.7,-198.53 1055.32,-196.46 1056.29,-203.39"/>
</a>
</g>
</g>
<!-- Node13 -->
<g id="Node000013" class="node">
<title>Node13</title>
<g id="a_Node000013"><a xlink:href="http__method_8hpp.html" target="_top" xlink:title=" ">
<polygon fill="white" stroke="#666666" points="526.26,-200.5 426.26,-200.5 426.26,-181.5 526.26,-181.5 526.26,-200.5"/>
<text text-anchor="middle" x="476.26" y="-188.5" font-family="Helvetica,sans-Serif" font-size="10.00">http_method.hpp</text>
</a>
</g>
</g>
<!-- Node11&#45;&gt;Node13 -->
<g id="edge16_Node000011_Node000013" class="edge">
<title>Node11&#45;&gt;Node13</title>
<g id="a_edge16_Node000011_Node000013"><a xlink:title=" ">
<path fill="none" stroke="#63b8ff" d="M631.98,-247.37C600.49,-236.17 545.4,-216.58 509.9,-203.96"/>
<polygon fill="#63b8ff" stroke="#63b8ff" points="511.03,-200.65 500.44,-200.6 508.69,-207.24 511.03,-200.65"/>
</a>
</g>
</g>
<!-- Node16 -->
<g id="Node000016" class="node">
<title>Node16</title>
<g id="a_Node000016"><a xlink:href="endpoint_8hpp.html" target="_top" xlink:title=" ">
<polygon fill="white" stroke="#666666" points="776.76,-200.5 651.76,-200.5 651.76,-181.5 776.76,-181.5 776.76,-200.5"/>
<text text-anchor="middle" x="714.26" y="-188.5" font-family="Helvetica,sans-Serif" font-size="10.00">rest_cpp/endpoint.hpp</text>
</a>
</g>
</g>
<!-- Node11&#45;&gt;Node16 -->
<g id="edge19_Node000011_Node000016" class="edge">
<title>Node11&#45;&gt;Node16</title>
<g id="a_edge19_Node000011_Node000016"><a xlink:title=" ">
<path fill="none" stroke="#63b8ff" d="M664.08,-247.37C673.11,-237.4 688.16,-220.79 699.43,-208.36"/>
<polygon fill="#63b8ff" stroke="#63b8ff" points="702.07,-210.67 706.19,-200.91 696.88,-205.96 702.07,-210.67"/>
</a>
</g>
</g>
<!-- Node11&#45;&gt;Node21 -->
<g id="edge25_Node000011_Node000021" class="edge">
<title>Node11&#45;&gt;Node21</title>
<g id="a_edge25_Node000011_Node000021"><a xlink:title=" ">
<path fill="none" stroke="#63b8ff" d="M630.66,-247.41C624.07,-245.42 616.95,-243.46 610.26,-242 489.08,-215.55 342.34,-200.71 275.95,-194.9"/>
<polygon fill="#63b8ff" stroke="#63b8ff" points="275.89,-191.38 265.63,-194.01 275.29,-198.35 275.89,-191.38"/>
</a>
</g>
</g>
<!-- Node14 -->
<g id="Node000014" class="node">
<title>Node14</title>
<g id="a_Node000014"><a xlink:title=" ">
<polygon fill="#e0e0e0" stroke="#999999" points="535.76,-134.5 416.76,-134.5 416.76,-115.5 535.76,-115.5 535.76,-134.5"/>
<text text-anchor="middle" x="476.26" y="-122.5" font-family="Helvetica,sans-Serif" font-size="10.00">boost/beast/core.hpp</text>
</a>
</g>
</g>
<!-- Node13&#45;&gt;Node14 -->
<g id="edge17_Node000013_Node000014" class="edge">
<title>Node13&#45;&gt;Node14</title>
<g id="a_edge17_Node000013_Node000014"><a xlink:title=" ">
<path fill="none" stroke="#63b8ff" d="M476.26,-181.37C476.26,-172.16 476.26,-157.29 476.26,-145.27"/>
<polygon fill="#63b8ff" stroke="#63b8ff" points="479.76,-144.91 476.26,-134.91 472.76,-144.91 479.76,-144.91"/>
</a>
</g>
</g>
<!-- Node15 -->
<g id="Node000015" class="node">
<title>Node15</title>
<g id="a_Node000015"><a xlink:title=" ">
<polygon fill="#e0e0e0" stroke="#999999" points="398.76,-134.5 281.76,-134.5 281.76,-115.5 398.76,-115.5 398.76,-134.5"/>
<text text-anchor="middle" x="340.26" y="-122.5" font-family="Helvetica,sans-Serif" font-size="10.00">boost/beast/http.hpp</text>
</a>
</g>
</g>
<!-- Node13&#45;&gt;Node15 -->
<g id="edge18_Node000013_Node000015" class="edge">
<title>Node13&#45;&gt;Node15</title>
<g id="a_edge18_Node000013_Node000015"><a xlink:title=" ">
<path fill="none" stroke="#63b8ff" d="M457.92,-181.37C434.8,-170.49 394.85,-151.69 367.99,-139.05"/>
<polygon fill="#63b8ff" stroke="#63b8ff" points="369.28,-135.79 358.74,-134.7 366.3,-142.12 369.28,-135.79"/>
</a>
</g>
</g>
<!-- Node16&#45;&gt;Node5 -->
<g id="edge24_Node000016_Node000005" class="edge">
<title>Node16&#45;&gt;Node5</title>
<g id="a_edge24_Node000016_Node000005"><a xlink:title=" ">
<path fill="none" stroke="#63b8ff" d="M776.95,-184.07C905.06,-171.94 1195.71,-144.42 1325.53,-132.13"/>
<polygon fill="#63b8ff" stroke="#63b8ff" points="1326.09,-135.59 1335.72,-131.16 1325.43,-128.62 1326.09,-135.59"/>
</a>
</g>
</g>
<!-- Node17 -->
<g id="Node000017" class="node">
<title>Node17</title>
<g id="a_Node000017"><a xlink:title=" ">
<polygon fill="#e0e0e0" stroke="#999999" points="769.76,-134.5 690.76,-134.5 690.76,-115.5 769.76,-115.5 769.76,-134.5"/>
<text text-anchor="middle" x="730.26" y="-122.5" font-family="Helvetica,sans-Serif" font-size="10.00">openssl/err.h</text>
</a>
</g>
</g>
<!-- Node16&#45;&gt;Node17 -->
<g id="edge20_Node000016_Node000017" class="edge">
<title>Node16&#45;&gt;Node17</title>
<g id="a_edge20_Node000016_Node000017"><a xlink:title=" ">
<path fill="none" stroke="#63b8ff" d="M716.42,-181.37C718.74,-172.07 722.51,-156.98 725.53,-144.9"/>
<polygon fill="#63b8ff" stroke="#63b8ff" points="729,-145.46 728.03,-134.91 722.21,-143.76 729,-145.46"/>
</a>
</g>
</g>
<!-- Node18 -->
<g id="Node000018" class="node">
<title>Node18</title>
<g id="a_Node000018"><a xlink:title=" ">
<polygon fill="#e0e0e0" stroke="#999999" points="672.26,-134.5 592.26,-134.5 592.26,-115.5 672.26,-115.5 672.26,-134.5"/>
<text text-anchor="middle" x="632.26" y="-122.5" font-family="Helvetica,sans-Serif" font-size="10.00">openssl/ssl.h</text>
</a>
</g>
</g>
<!-- Node16&#45;&gt;Node18 -->
<g id="edge21_Node000016_Node000018" class="edge">
<title>Node16&#45;&gt;Node18</title>
<g id="a_edge21_Node000016_Node000018"><a xlink:title=" ">
<path fill="none" stroke="#63b8ff" d="M703.2,-181.37C690,-171.06 667.68,-153.65 651.6,-141.09"/>
<polygon fill="#63b8ff" stroke="#63b8ff" points="653.44,-138.09 643.4,-134.7 649.13,-143.61 653.44,-138.09"/>
</a>
</g>
</g>
<!-- Node19 -->
<g id="Node000019" class="node">
<title>Node19</title>
<g id="a_Node000019"><a xlink:title=" ">
<polygon fill="#e0e0e0" stroke="#999999" points="903.26,-140 787.26,-140 787.26,-110 903.26,-110 903.26,-140"/>
<text text-anchor="start" x="795.26" y="-128" font-family="Helvetica,sans-Serif" font-size="10.00">boost/beast/core/tcp</text>
<text text-anchor="middle" x="845.26" y="-117" font-family="Helvetica,sans-Serif" font-size="10.00">_stream.hpp</text>
</a>
</g>
</g>
<!-- Node16&#45;&gt;Node19 -->
<g id="edge22_Node000016_Node000019" class="edge">
<title>Node16&#45;&gt;Node19</title>
<g id="a_edge22_Node000016_Node000019"><a xlink:title=" ">
<path fill="none" stroke="#63b8ff" d="M731.93,-181.37C751.12,-171.99 782.37,-156.72 807.2,-144.59"/>
<polygon fill="#63b8ff" stroke="#63b8ff" points="808.92,-147.65 816.37,-140.12 805.84,-141.36 808.92,-147.65"/>
</a>
</g>
</g>
<!-- Node20 -->
<g id="Node000020" class="node">
<title>Node20</title>
<g id="a_Node000020"><a xlink:title=" ">
<polygon fill="#e0e0e0" stroke="#999999" points="1028.76,-140 921.76,-140 921.76,-110 1028.76,-110 1028.76,-140"/>
<text text-anchor="start" x="929.76" y="-128" font-family="Helvetica,sans-Serif" font-size="10.00">boost/beast/ssl/ssl</text>
<text text-anchor="middle" x="975.26" y="-117" font-family="Helvetica,sans-Serif" font-size="10.00">_stream.hpp</text>
</a>
</g>
</g>
<!-- Node16&#45;&gt;Node20 -->
<g id="edge23_Node000016_Node000020" class="edge">
<title>Node16&#45;&gt;Node20</title>
<g id="a_edge23_Node000016_Node000020"><a xlink:title=" ">
<path fill="none" stroke="#63b8ff" d="M749.19,-181.44C790.6,-171.28 860.43,-154.16 911.55,-141.62"/>
<polygon fill="#63b8ff" stroke="#63b8ff" points="912.63,-144.96 921.51,-139.18 910.96,-138.16 912.63,-144.96"/>
</a>
</g>
</g>
<!-- Node21&#45;&gt;Node7 -->
<g id="edge26_Node000021_Node000007" class="edge">
<title>Node21&#45;&gt;Node7</title>
<g id="a_edge26_Node000021_Node000007"><a xlink:title=" ">
<path fill="none" stroke="#63b8ff" d="M226.48,-181.21C214.15,-172.45 196.88,-157.78 189.26,-140 174.37,-105.28 163.98,-83.94 188.26,-55 215.94,-22.01 346.21,-13.46 407.82,-11.26"/>
<polygon fill="#63b8ff" stroke="#63b8ff" points="408.25,-14.75 418.13,-10.93 408.03,-7.75 408.25,-14.75"/>
</a>
</g>
</g>
<!-- Node22 -->
<g id="Node000022" class="node">
<title>Node22</title>
<g id="a_Node000022"><a xlink:title=" ">
<polygon fill="#e0e0e0" stroke="#999999" points="140.76,-134.5 67.76,-134.5 67.76,-115.5 140.76,-115.5 140.76,-134.5"/>
<text text-anchor="middle" x="104.26" y="-122.5" font-family="Helvetica,sans-Serif" font-size="10.00">string_view</text>
</a>
</g>
</g>
<!-- Node21&#45;&gt;Node22 -->
<g id="edge27_Node000021_Node000022" class="edge">
<title>Node21&#45;&gt;Node22</title>
<g id="a_edge27_Node000021_Node000022"><a xlink:title=" ">
<path fill="none" stroke="#63b8ff" d="M221.92,-181.37C198.8,-170.49 158.85,-151.69 131.99,-139.05"/>
<polygon fill="#63b8ff" stroke="#63b8ff" points="133.28,-135.79 122.74,-134.7 130.3,-142.12 133.28,-135.79"/>
</a>
</g>
</g>
<!-- Node21&#45;&gt;Node23 -->
<g id="edge28_Node000021_Node000023" class="edge">
<title>Node21&#45;&gt;Node23</title>
<g id="a_edge28_Node000021_Node000023"><a xlink:title=" ">
<path fill="none" stroke="#63b8ff" d="M239.05,-181.37C237.74,-172.07 235.62,-156.98 233.92,-144.9"/>
<polygon fill="#63b8ff" stroke="#63b8ff" points="237.37,-144.32 232.51,-134.91 230.44,-145.3 237.37,-144.32"/>
</a>
</g>
</g>
<!-- Node24 -->
<g id="Node000024" class="node">
<title>Node24</title>
<g id="a_Node000024"><a xlink:title=" ">
<polygon fill="#e0e0e0" stroke="#999999" points="479.26,-74 427.26,-74 427.26,-55 479.26,-55 479.26,-74"/>
<text text-anchor="middle" x="453.26" y="-62" font-family="Helvetica,sans-Serif" font-size="10.00">cassert</text>
</a>
</g>
</g>
<!-- Node23&#45;&gt;Node24 -->
<g id="edge29_Node000023_Node000024" class="edge">
<title>Node23&#45;&gt;Node24</title>
<g id="a_edge29_Node000023_Node000024"><a xlink:title=" ">
<path fill="none" stroke="#63b8ff" d="M254.99,-115.5C260.62,-113.59 266.63,-111.65 272.26,-110 286.1,-105.94 368.48,-85.95 417.2,-74.19"/>
<polygon fill="#63b8ff" stroke="#63b8ff" points="418.15,-77.56 427.05,-71.81 416.5,-70.75 418.15,-77.56"/>
</a>
</g>
</g>
<!-- Node25 -->
<g id="Node000025" class="node">
<title>Node25</title>
<g id="a_Node000025"><a xlink:title=" ">
<polygon fill="#e0e0e0" stroke="#999999" points="266.76,-74 197.76,-74 197.76,-55 266.76,-55 266.76,-74"/>
<text text-anchor="middle" x="232.26" y="-62" font-family="Helvetica,sans-Serif" font-size="10.00">type_traits</text>
</a>
</g>
</g>
<!-- Node23&#45;&gt;Node25 -->
<g id="edge30_Node000023_Node000025" class="edge">
<title>Node23&#45;&gt;Node25</title>
<g id="a_edge30_Node000023_Node000025"><a xlink:title=" ">
<path fill="none" stroke="#63b8ff" d="M231.41,-115.37C231.55,-107.25 231.76,-94.81 231.94,-84.39"/>
<polygon fill="#63b8ff" stroke="#63b8ff" points="235.44,-84.23 232.11,-74.17 228.44,-84.11 235.44,-84.23"/>
</a>
</g>
</g>
<!-- Node26 -->
<g id="Node000026" class="node">
<title>Node26</title>
<g id="a_Node000026"><a xlink:title=" ">
<polygon fill="#e0e0e0" stroke="#999999" points="408.76,-74 363.76,-74 363.76,-55 408.76,-55 408.76,-74"/>
<text text-anchor="middle" x="386.26" y="-62" font-family="Helvetica,sans-Serif" font-size="10.00">utility</text>
</a>
</g>
</g>
<!-- Node23&#45;&gt;Node26 -->
<g id="edge31_Node000023_Node000026" class="edge">
<title>Node23&#45;&gt;Node26</title>
<g id="a_edge31_Node000023_Node000026"><a xlink:title=" ">
<path fill="none" stroke="#63b8ff" d="M253.8,-115.49C280.2,-105.53 324.14,-88.95 354.11,-77.63"/>
<polygon fill="#63b8ff" stroke="#63b8ff" points="355.57,-80.82 363.69,-74.02 353.1,-74.27 355.57,-80.82"/>
</a>
</g>
</g>
<!-- Node27 -->
<g id="Node000027" class="node">
<title>Node27</title>
<g id="a_Node000027"><a xlink:title=" ">
<polygon fill="#e0e0e0" stroke="#999999" points="863.76,-74 812.76,-74 812.76,-55 863.76,-55 863.76,-74"/>
<text text-anchor="middle" x="838.26" y="-62" font-family="Helvetica,sans-Serif" font-size="10.00">variant</text>
</a>
</g>
</g>
<!-- Node23&#45;&gt;Node27 -->
<g id="edge32_Node000023_Node000027" class="edge">
<title>Node23&#45;&gt;Node27</title>
<g id="a_edge32_Node000023_Node000027"><a xlink:title=" ">
<path fill="none" stroke="#63b8ff" d="M253.11,-115.41C259.22,-113.32 265.92,-111.31 272.26,-110 469.37,-69.27 712.15,-65.2 802.33,-65.23"/>
<polygon fill="#63b8ff" stroke="#63b8ff" points="802.55,-68.73 812.55,-65.25 802.56,-61.73 802.55,-68.73"/>
</a>
</g>
</g>
<!-- Node28 -->
<g id="Node000028" class="node">
<title>Node28</title>
<g id="a_Node000028"><a xlink:href="error_8hpp.html" target="_top" xlink:title=" ">
<polygon fill="white" stroke="#666666" points="345.26,-74 285.26,-74 285.26,-55 345.26,-55 345.26,-74"/>
<text text-anchor="middle" x="315.26" y="-62" font-family="Helvetica,sans-Serif" font-size="10.00">error.hpp</text>
</a>
</g>
</g>
<!-- Node23&#45;&gt;Node28 -->
<g id="edge33_Node000023_Node000028" class="edge">
<title>Node23&#45;&gt;Node28</title>
<g id="a_edge33_Node000023_Node000028"><a xlink:title=" ">
<path fill="none" stroke="#63b8ff" d="M243.65,-115.37C257.05,-106.04 278.63,-91.01 294.61,-79.88"/>
<polygon fill="#63b8ff" stroke="#63b8ff" points="296.61,-82.75 302.81,-74.17 292.61,-77.01 296.61,-82.75"/>
</a>
</g>
</g>
<!-- Node28&#45;&gt;Node7 -->
<g id="edge34_Node000028_Node000007" class="edge">
<title>Node28&#45;&gt;Node7</title>
<g id="a_edge34_Node000028_Node000007"><a xlink:title=" ">
<path fill="none" stroke="#63b8ff" d="M335.34,-54.98C355.63,-46.38 387.21,-32.99 410.43,-23.15"/>
<polygon fill="#63b8ff" stroke="#63b8ff" points="411.97,-26.3 419.81,-19.17 409.24,-19.85 411.97,-26.3"/>
</a>
</g>
</g>
<!-- Node29&#45;&gt;Node7 -->
<g id="edge39_Node000029_Node000007" class="edge">
<title>Node29&#45;&gt;Node7</title>
<g id="a_edge39_Node000029_Node000007"><a xlink:title=" ">
<path fill="none" stroke="#63b8ff" d="M2200.12,-247.44C2193.03,-245.47 2185.4,-243.52 2178.26,-242 2070.17,-219.06 2041.13,-224.89 1932.26,-206 1718.76,-168.97 1668.58,-141.95 1454.26,-110 1070.06,-52.72 598.86,-20.49 472.63,-12.49"/>
<polygon fill="#63b8ff" stroke="#63b8ff" points="472.68,-8.99 462.48,-11.85 472.24,-15.97 472.68,-8.99"/>
</a>
</g>
</g>
<!-- Node29&#45;&gt;Node12 -->
<g id="edge40_Node000029_Node000012" class="edge">
<title>Node29&#45;&gt;Node12</title>
<g id="a_edge40_Node000029_Node000012"><a xlink:title=" ">
<path fill="none" stroke="#63b8ff" d="M2202.04,-247.46C2194.45,-245.31 2186.09,-243.26 2178.26,-242 2128.15,-233.92 1382.56,-203.03 1169.02,-194.31"/>
<polygon fill="#63b8ff" stroke="#63b8ff" points="1169.09,-190.81 1158.96,-193.9 1168.81,-197.8 1169.09,-190.81"/>
</a>
</g>
</g>
<!-- Node30 -->
<g id="Node000030" class="node">
<title>Node30</title>
<g id="a_Node000030"><a xlink:title=" ">
<polygon fill="#e0e0e0" stroke="#999999" points="2269.26,-200.5 2123.26,-200.5 2123.26,-181.5 2269.26,-181.5 2269.26,-200.5"/>
<text text-anchor="middle" x="2196.26" y="-188.5" font-family="Helvetica,sans-Serif" font-size="10.00">boost/beast/http/fields.hpp</text>
</a>
</g>
</g>
<!-- Node29&#45;&gt;Node30 -->
<g id="edge36_Node000029_Node000030" class="edge">
<title>Node29&#45;&gt;Node30</title>
<g id="a_edge36_Node000029_Node000030"><a xlink:title=" ">
<path fill="none" stroke="#63b8ff" d="M2223.94,-247.37C2219.2,-237.88 2211.44,-222.36 2205.34,-210.16"/>
<polygon fill="#63b8ff" stroke="#63b8ff" points="2208.31,-208.28 2200.71,-200.91 2202.05,-211.41 2208.31,-208.28"/>
</a>
</g>
</g>
<!-- Node31 -->
<g id="Node000031" class="node">
<title>Node31</title>
<g id="a_Node000031"><a xlink:title=" ">
<polygon fill="#e0e0e0" stroke="#999999" points="2105.26,-200.5 1941.26,-200.5 1941.26,-181.5 2105.26,-181.5 2105.26,-200.5"/>
<text text-anchor="middle" x="2023.26" y="-188.5" font-family="Helvetica,sans-Serif" font-size="10.00">boost/beast/http/message.hpp</text>
</a>
</g>
</g>
<!-- Node29&#45;&gt;Node31 -->
<g id="edge37_Node000029_Node000031" class="edge">
<title>Node29&#45;&gt;Node31</title>
<g id="a_edge37_Node000029_Node000031"><a xlink:title=" ">
<path fill="none" stroke="#63b8ff" d="M2200.61,-247.37C2164.44,-236.08 2100.93,-216.25 2060.54,-203.64"/>
<polygon fill="#63b8ff" stroke="#63b8ff" points="2061.38,-200.24 2050.79,-200.6 2059.3,-206.92 2061.38,-200.24"/>
</a>
</g>
</g>
<!-- Node32 -->
<g id="Node000032" class="node">
<title>Node32</title>
<g id="a_Node000032"><a xlink:title=" ">
<polygon fill="#e0e0e0" stroke="#999999" points="1635.76,-206 1508.76,-206 1508.76,-176 1635.76,-176 1635.76,-206"/>
<text text-anchor="start" x="1516.76" y="-194" font-family="Helvetica,sans-Serif" font-size="10.00">boost/beast/http/string</text>
<text text-anchor="middle" x="1572.26" y="-183" font-family="Helvetica,sans-Serif" font-size="10.00">_body.hpp</text>
</a>
</g>
</g>
<!-- Node29&#45;&gt;Node32 -->
<g id="edge38_Node000029_Node000032" class="edge">
<title>Node29&#45;&gt;Node32</title>
<g id="a_edge38_Node000029_Node000032"><a xlink:title=" ">
<path fill="none" stroke="#63b8ff" d="M2201.49,-247.49C2194.04,-245.4 2185.89,-243.37 2178.26,-242 2077.97,-223.99 1784.34,-204.71 1645.99,-196.32"/>
<polygon fill="#63b8ff" stroke="#63b8ff" points="1646.09,-192.82 1635.9,-195.71 1645.67,-199.8 1646.09,-192.82"/>
</a>
</g>
</g>
<!-- Node33&#45;&gt;Node3 -->
<g id="edge44_Node000033_Node000003" class="edge">
<title>Node33&#45;&gt;Node3</title>
<g id="a_edge44_Node000033_Node000003"><a xlink:title=" ">
<path fill="none" stroke="#63b8ff" d="M854.01,-317.59C766.32,-310.43 593.63,-294.76 448.26,-272 441.93,-271.01 435.3,-269.83 428.76,-268.57"/>
<polygon fill="#63b8ff" stroke="#63b8ff" points="429.11,-265.08 418.62,-266.57 427.75,-271.94 429.11,-265.08"/>
</a>
</g>
</g>
<!-- Node33&#45;&gt;Node4 -->
<g id="edge46_Node000033_Node000004" class="edge">
<title>Node33&#45;&gt;Node4</title>
<g id="a_edge46_Node000033_Node000004"><a xlink:title=" ">
<path fill="none" stroke="#63b8ff" d="M854.1,-312.62C793.54,-302.65 695.13,-286.38 610.26,-272 603.2,-270.8 595.79,-269.54 588.45,-268.28"/>
<polygon fill="#63b8ff" stroke="#63b8ff" points="588.96,-264.81 578.51,-266.57 587.77,-271.71 588.96,-264.81"/>
</a>
</g>
</g>
<!-- Node33&#45;&gt;Node11 -->
<g id="edge57_Node000033_Node000011" class="edge">
<title>Node33&#45;&gt;Node11</title>
<g id="a_edge57_Node000033_Node000011"><a xlink:title=" ">
<path fill="none" stroke="#63b8ff" d="M854,-308.41C813.05,-298.58 756.67,-284.83 707.26,-272 703.72,-271.08 700.04,-270.11 696.36,-269.12"/>
<polygon fill="#63b8ff" stroke="#63b8ff" points="697.26,-265.74 686.7,-266.5 695.43,-272.5 697.26,-265.74"/>
</a>
</g>
</g>
<!-- Node33&#45;&gt;Node16 -->
<g id="edge56_Node000033_Node000016" class="edge">
<title>Node33&#45;&gt;Node16</title>
<g id="a_edge56_Node000033_Node000016"><a xlink:title=" ">
<path fill="none" stroke="#63b8ff" d="M858.87,-307.94C834.5,-299.85 805.95,-288.05 783.26,-272 759,-254.84 737.81,-227.36 725.53,-209.5"/>
<polygon fill="#63b8ff" stroke="#63b8ff" points="728.11,-207.06 719.65,-200.69 722.29,-210.95 728.11,-207.06"/>
</a>
</g>
</g>
<!-- Node33&#45;&gt;Node19 -->
<g id="edge49_Node000033_Node000019" class="edge">
<title>Node33&#45;&gt;Node19</title>
<g id="a_edge49_Node000033_Node000019"><a xlink:title=" ">
<path fill="none" stroke="#63b8ff" d="M886.55,-307.95C873.92,-299.33 859.68,-287.05 852.26,-272 832.98,-232.87 836.43,-180.47 840.79,-150.25"/>
<polygon fill="#63b8ff" stroke="#63b8ff" points="844.27,-150.62 842.39,-140.19 837.36,-149.52 844.27,-150.62"/>
</a>
</g>
</g>
<!-- Node33&#45;&gt;Node20 -->
<g id="edge53_Node000033_Node000020" class="edge">
<title>Node33&#45;&gt;Node20</title>
<g id="a_edge53_Node000033_Node000020"><a xlink:title=" ">
<path fill="none" stroke="#63b8ff" d="M889.7,-307.86C878.34,-299.05 865.49,-286.63 859.26,-272 854.04,-259.73 854.16,-254.32 859.26,-242 876.35,-200.75 916.01,-166.51 944.19,-146.18"/>
<polygon fill="#63b8ff" stroke="#63b8ff" points="946.36,-148.93 952.53,-140.32 942.34,-143.2 946.36,-148.93"/>
</a>
</g>
</g>
<!-- Node33&#45;&gt;Node23 -->
<g id="edge59_Node000033_Node000023" class="edge">
<title>Node33&#45;&gt;Node23</title>
<g id="a_edge59_Node000033_Node000023"><a xlink:title=" ">
<path fill="none" stroke="#63b8ff" d="M853.98,-308.65C822.05,-300.17 782.04,-287.81 748.26,-272 726.15,-261.65 723.94,-253.21 702.26,-242 631.36,-205.35 612.46,-196.22 535.26,-176 421.13,-146.1 387.06,-167.19 272.26,-140 269.45,-139.33 266.55,-138.55 263.67,-137.7"/>
<polygon fill="#63b8ff" stroke="#63b8ff" points="264.61,-134.33 254.02,-134.64 262.49,-141 264.61,-134.33"/>
</a>
</g>
</g>
<!-- Node33&#45;&gt;Node27 -->
<g id="edge55_Node000033_Node000027" class="edge">
<title>Node33&#45;&gt;Node27</title>
<g id="a_edge55_Node000033_Node000027"><a xlink:title=" ">
<path fill="none" stroke="#63b8ff" d="M907.46,-307.89C903.77,-291.24 900.07,-263.15 910.26,-242 945.73,-168.38 1089.38,-173.75 1038.26,-110 1018.06,-84.82 925.98,-72.97 874.09,-68.21"/>
<polygon fill="#63b8ff" stroke="#63b8ff" points="874.24,-64.71 863.97,-67.33 873.63,-71.69 874.24,-64.71"/>
</a>
</g>
</g>
<!-- Node33&#45;&gt;Node29 -->
<g id="edge58_Node000033_Node000029" class="edge">
<title>Node33&#45;&gt;Node29</title>
<g id="a_edge58_Node000033_Node000029"><a xlink:title=" ">
<path fill="none" stroke="#63b8ff" d="M968.31,-319.64C1036.37,-316.83 1153.62,-312.01 1254.26,-308 1664.91,-291.62 1772.27,-335.84 2178.26,-272 2182.84,-271.28 2187.6,-270.28 2192.28,-269.15"/>
<polygon fill="#63b8ff" stroke="#63b8ff" points="2193.53,-272.44 2202.3,-266.51 2191.74,-265.67 2193.53,-272.44"/>
</a>
</g>
</g>
<!-- Node33&#45;&gt;Node32 -->
<g id="edge51_Node000033_Node000032" class="edge">
<title>Node33&#45;&gt;Node32</title>
<g id="a_edge51_Node000033_Node000032"><a xlink:title=" ">
<path fill="none" stroke="#63b8ff" d="M910.06,-307.92C909.37,-289.66 911.28,-258.24 930.26,-242 951.58,-223.76 1334.43,-203.37 1498.55,-195.43"/>
<polygon fill="#63b8ff" stroke="#63b8ff" points="1498.74,-198.92 1508.56,-194.95 1498.41,-191.93 1498.74,-198.92"/>
</a>
</g>
</g>
<!-- Node34 -->
<g id="Node000034" class="node">
<title>Node34</title>
<g id="a_Node000034"><a xlink:title=" ">
<polygon fill="#e0e0e0" stroke="#999999" points="1109.26,-266.5 939.26,-266.5 939.26,-247.5 1109.26,-247.5 1109.26,-266.5"/>
<text text-anchor="middle" x="1024.26" y="-254.5" font-family="Helvetica,sans-Serif" font-size="10.00">boost/asio/any_io_executor.hpp</text>
</a>
</g>
</g>
<!-- Node33&#45;&gt;Node34 -->
<g id="edge42_Node000033_Node000034" class="edge">
<title>Node33&#45;&gt;Node34</title>
<g id="a_edge42_Node000033_Node000034"><a xlink:title=" ">
<path fill="none" stroke="#63b8ff" d="M936.06,-307.95C955.18,-297.13 981.46,-282.24 1000.35,-271.54"/>
<polygon fill="#63b8ff" stroke="#63b8ff" points="1002.24,-274.49 1009.22,-266.52 998.79,-268.4 1002.24,-274.49"/>
</a>
</g>
</g>
<!-- Node35 -->
<g id="Node000035" class="node">
<title>Node35</title>
<g id="a_Node000035"><a xlink:title=" ">
<polygon fill="#e0e0e0" stroke="#999999" points="1266.76,-266.5 1127.76,-266.5 1127.76,-247.5 1266.76,-247.5 1266.76,-266.5"/>
<text text-anchor="middle" x="1197.26" y="-254.5" font-family="Helvetica,sans-Serif" font-size="10.00">boost/asio/awaitable.hpp</text>
</a>
</g>
</g>
<!-- Node33&#45;&gt;Node35 -->
<g id="edge43_Node000033_Node000035" class="edge">
<title>Node33&#45;&gt;Node35</title>
<g id="a_edge43_Node000033_Node000035"><a xlink:title=" ">
<path fill="none" stroke="#63b8ff" d="M968.45,-309.2C1021.37,-297.36 1099.17,-279.95 1149.02,-268.79"/>
<polygon fill="#63b8ff" stroke="#63b8ff" points="1149.92,-272.18 1158.91,-266.58 1148.39,-265.35 1149.92,-272.18"/>
</a>
</g>
</g>
<!-- Node36 -->
<g id="Node000036" class="node">
<title>Node36</title>
<g id="a_Node000036"><a xlink:title=" ">
<polygon fill="#e0e0e0" stroke="#999999" points="1391.76,-272 1284.76,-272 1284.76,-242 1391.76,-242 1391.76,-272"/>
<text text-anchor="start" x="1292.76" y="-260" font-family="Helvetica,sans-Serif" font-size="10.00">boost/asio/redirect</text>
<text text-anchor="middle" x="1338.26" y="-249" font-family="Helvetica,sans-Serif" font-size="10.00">_error.hpp</text>
</a>
</g>
</g>
<!-- Node33&#45;&gt;Node36 -->
<g id="edge45_Node000033_Node000036" class="edge">
<title>Node33&#45;&gt;Node36</title>
<g id="a_edge45_Node000033_Node000036"><a xlink:title=" ">
<path fill="none" stroke="#63b8ff" d="M968.4,-315.71C1038.41,-307.67 1160.83,-292.49 1274.62,-272.21"/>
<polygon fill="#63b8ff" stroke="#63b8ff" points="1275.33,-275.64 1284.55,-270.43 1274.09,-268.75 1275.33,-275.64"/>
</a>
</g>
</g>
<!-- Node37 -->
<g id="Node000037" class="node">
<title>Node37</title>
<g id="a_Node000037"><a xlink:title=" ">
<polygon fill="#e0e0e0" stroke="#999999" points="1570.76,-266.5 1409.76,-266.5 1409.76,-247.5 1570.76,-247.5 1570.76,-266.5"/>
<text text-anchor="middle" x="1490.26" y="-254.5" font-family="Helvetica,sans-Serif" font-size="10.00">boost/asio/use_awaitable.hpp</text>
</a>
</g>
</g>
<!-- Node33&#45;&gt;Node37 -->
<g id="edge47_Node000033_Node000037" class="edge">
<title>Node33&#45;&gt;Node37</title>
<g id="a_edge47_Node000033_Node000037"><a xlink:title=" ">
<path fill="none" stroke="#63b8ff" d="M968.33,-317.19C1059.85,-309.25 1245.01,-292.25 1401.26,-272 1410.26,-270.83 1419.75,-269.48 1429.05,-268.08"/>
<polygon fill="#63b8ff" stroke="#63b8ff" points="1429.67,-271.52 1439.03,-266.55 1428.61,-264.6 1429.67,-271.52"/>
</a>
</g>
</g>
<!-- Node38 -->
<g id="Node000038" class="node">
<title>Node38</title>
<g id="a_Node000038"><a xlink:title=" ">
<polygon fill="#e0e0e0" stroke="#999999" points="1705.26,-272 1589.26,-272 1589.26,-242 1705.26,-242 1705.26,-272"/>
<text text-anchor="start" x="1597.26" y="-260" font-family="Helvetica,sans-Serif" font-size="10.00">boost/beast/core/flat</text>
<text text-anchor="middle" x="1647.26" y="-249" font-family="Helvetica,sans-Serif" font-size="10.00">_buffer.hpp</text>
</a>
</g>
</g>
<!-- Node33&#45;&gt;Node38 -->
<g id="edge48_Node000033_Node000038" class="edge">
<title>Node33&#45;&gt;Node38</title>
<g id="a_edge48_Node000033_Node000038"><a xlink:title=" ">
<path fill="none" stroke="#63b8ff" d="M968.36,-320.26C1082.59,-316.24 1347.45,-304.15 1579.27,-272.01"/>
<polygon fill="#63b8ff" stroke="#63b8ff" points="1579.82,-275.47 1589.24,-270.61 1578.85,-268.53 1579.82,-275.47"/>
</a>
</g>
</g>
<!-- Node39 -->
<g id="Node000039" class="node">
<title>Node39</title>
<g id="a_Node000039"><a xlink:title=" ">
<polygon fill="#e0e0e0" stroke="#999999" points="1865.26,-266.5 1723.26,-266.5 1723.26,-247.5 1865.26,-247.5 1865.26,-266.5"/>
<text text-anchor="middle" x="1794.26" y="-254.5" font-family="Helvetica,sans-Serif" font-size="10.00">boost/beast/http/read.hpp</text>
</a>
</g>
</g>
<!-- Node33&#45;&gt;Node39 -->
<g id="edge50_Node000033_Node000039" class="edge">
<title>Node33&#45;&gt;Node39</title>
<g id="a_edge50_Node000033_Node000039"><a xlink:title=" ">
<path fill="none" stroke="#63b8ff" d="M968.43,-319.27C1126.88,-311.57 1569.48,-289.12 1714.26,-272 1722.91,-270.98 1732.04,-269.63 1740.92,-268.18"/>
<polygon fill="#63b8ff" stroke="#63b8ff" points="1741.52,-271.63 1750.79,-266.51 1740.35,-264.73 1741.52,-271.63"/>
</a>
</g>
</g>
<!-- Node40 -->
<g id="Node000040" class="node">
<title>Node40</title>
<g id="a_Node000040"><a xlink:title=" ">
<polygon fill="#e0e0e0" stroke="#999999" points="2028.76,-266.5 1883.76,-266.5 1883.76,-247.5 2028.76,-247.5 2028.76,-266.5"/>
<text text-anchor="middle" x="1956.26" y="-254.5" font-family="Helvetica,sans-Serif" font-size="10.00">boost/beast/http/write.hpp</text>
</a>
</g>
</g>
<!-- Node33&#45;&gt;Node40 -->
<g id="edge52_Node000033_Node000040" class="edge">
<title>Node33&#45;&gt;Node40</title>
<g id="a_edge52_Node000033_Node000040"><a xlink:title=" ">
<path fill="none" stroke="#63b8ff" d="M968.53,-319.42C1162.05,-310.64 1784.51,-281.96 1874.26,-272 1883.32,-270.99 1892.91,-269.63 1902.2,-268.15"/>
<polygon fill="#63b8ff" stroke="#63b8ff" points="1902.84,-271.59 1912.13,-266.51 1901.7,-264.69 1902.84,-271.59"/>
</a>
</g>
</g>
<!-- Node41 -->
<g id="Node000041" class="node">
<title>Node41</title>
<g id="a_Node000041"><a xlink:title=" ">
<polygon fill="#e0e0e0" stroke="#999999" points="2169.26,-272 2047.26,-272 2047.26,-242 2169.26,-242 2169.26,-272"/>
<text text-anchor="start" x="2055.26" y="-260" font-family="Helvetica,sans-Serif" font-size="10.00">boost/system/system</text>
<text text-anchor="middle" x="2108.26" y="-249" font-family="Helvetica,sans-Serif" font-size="10.00">_error.hpp</text>
</a>
</g>
</g>
<!-- Node33&#45;&gt;Node41 -->
<g id="edge54_Node000033_Node000041" class="edge">
<title>Node33&#45;&gt;Node41</title>
<g id="a_edge54_Node000033_Node000041"><a xlink:title=" ">
<path fill="none" stroke="#63b8ff" d="M968.34,-319.59C1183.23,-310.48 1936.1,-278.46 2036.89,-271.64"/>
<polygon fill="#63b8ff" stroke="#63b8ff" points="2037.2,-275.13 2046.88,-270.83 2036.63,-268.15 2037.2,-275.13"/>
</a>
</g>
</g>
<!-- Node42&#45;&gt;Node29 -->
<g id="edge63_Node000042_Node000029" class="edge">
<title>Node42&#45;&gt;Node29</title>
<g id="a_edge63_Node000042_Node000029"><a xlink:title=" ">
<path fill="none" stroke="#63b8ff" d="M1369.39,-319.58C1544.8,-311.52 2098.79,-285.27 2178.26,-272 2182.73,-271.25 2187.38,-270.26 2191.95,-269.14"/>
<polygon fill="#63b8ff" stroke="#63b8ff" points="2192.99,-272.49 2201.77,-266.56 2191.21,-265.72 2192.99,-272.49"/>
</a>
</g>
</g>
</g>
</svg>
