<?xml version="1.0" encoding="UTF-8" standalone="no"?>
<!DOCTYPE svg PUBLIC "-//W3C//DTD SVG 1.1//EN"
 "http://www.w3.org/Graphics/SVG/1.1/DTD/svg11.dtd">
<!-- Generated by graphviz version 2.43.0 (0)
 -->
<!-- Title: include/rest_cpp/config.hpp Pages: 1 -->
<svg width="366pt" height="214pt"
 viewBox="0.00 0.00 365.50 214.00" xmlns="http://www.w3.org/2000/svg" xmlns:xlink="http://www.w3.org/1999/xlink">

<svg id="main" version="1.1" xmlns="http://www.w3.org/2000/svg" xmlns:xlink="http://www.w3.org/1999/xlink" xml:space="preserve" onload="init(evt)">
<style type="text/css"><![CDATA[
.node, .edge {opacity: 0.7;}
.node.selected, .edge.selected {opacity: 1;}
.edge:hover path { stroke: red; }
.edge:hover polygon { stroke: red; fill: red; }
]]></style>
<script type="application/ecmascript" xlink:href="svg.min.js"/>
<svg id="graph" class="graph">
<g id="graph0" class="graph" transform="scale(1 1) rotate(0) translate(4 210)">
<title>include/rest_cpp/config.hpp</title>
<!-- Node1 -->
<g id="Node000001" class="node">
<title>Node1</title>
<g id="a_Node000001"><a xlink:title=" ">
<polygon fill="#999999" stroke="#666666" points="252,-206 103,-206 103,-187 252,-187 252,-206"/>
<text text-anchor="middle" x="177.5" y="-194" font-family="Helvetica,sans-Serif" font-size="10.00">include/rest_cpp/config.hpp</text>
</a>
</g>
</g>
<!-- Node2 -->
<g id="Node000002" class="node">
<title>Node2</title>
<g id="a_Node000002"><a xlink:href="async__client_8hpp.html" target="_top" xlink:title=" ">
<polygon fill="white" stroke="#666666" points="256.5,-85 128.5,-85 128.5,-55 256.5,-55 256.5,-85"/>
<text text-anchor="start" x="136.5" y="-73" font-family="Helvetica,sans-Serif" font-size="10.00">include/rest_cpp/async</text>
<text text-anchor="middle" x="192.5" y="-62" font-family="Helvetica,sans-Serif" font-size="10.00">_client.hpp</text>
</a>
</g>
</g>
<!-- Node1&#45;&gt;Node2 -->
<g id="edge1_Node000001_Node000002" class="edge">
<title>Node1&#45;&gt;Node2</title>
<g id="a_edge1_Node000001_Node000002"><a xlink:title=" ">
<path fill="none" stroke="#63b8ff" d="M179.74,-176.91C182.76,-151.83 188.08,-107.72 190.79,-85.16"/>
<polygon fill="#63b8ff" stroke="#63b8ff" points="176.25,-176.6 178.53,-186.94 183.2,-177.43 176.25,-176.6"/>
</a>
</g>
</g>
<!-- Node5 -->
<g id="Node000005" class="node">
<title>Node5</title>
<g id="a_Node000005"><a xlink:href="client_8hpp.html" target="_top" xlink:title=" ">
<polygon fill="white" stroke="#666666" points="147,-145.5 0,-145.5 0,-126.5 147,-126.5 147,-145.5"/>
<text text-anchor="middle" x="73.5" y="-133.5" font-family="Helvetica,sans-Serif" font-size="10.00">include/rest_cpp/client.hpp</text>
</a>
</g>
</g>
<!-- Node1&#45;&gt;Node5 -->
<g id="edge4_Node000001_Node000005" class="edge">
<title>Node1&#45;&gt;Node5</title>
<g id="a_edge4_Node000001_Node000005"><a xlink:title=" ">
<path fill="none" stroke="#63b8ff" d="M153.36,-181.92C133.49,-170.74 105.91,-155.23 88.91,-145.67"/>
<polygon fill="#63b8ff" stroke="#63b8ff" points="151.72,-185.02 162.15,-186.87 155.15,-178.91 151.72,-185.02"/>
</a>
</g>
</g>
<!-- Node7 -->
<g id="Node000007" class="node">
<title>Node7</title>
<g id="a_Node000007"><a xlink:href="connection__pool_8hpp.html" target="_top" xlink:title=" ">
<polygon fill="white" stroke="#666666" points="357.5,-151 205.5,-151 205.5,-121 357.5,-121 357.5,-151"/>
<text text-anchor="start" x="213.5" y="-139" font-family="Helvetica,sans-Serif" font-size="10.00">include/rest_cpp/connection</text>
<text text-anchor="middle" x="281.5" y="-128" font-family="Helvetica,sans-Serif" font-size="10.00">/connection_pool.hpp</text>
</a>
</g>
</g>
<!-- Node1&#45;&gt;Node7 -->
<g id="edge6_Node000001_Node000007" class="edge">
<title>Node1&#45;&gt;Node7</title>
<g id="a_edge6_Node000001_Node000007"><a xlink:title=" ">
<path fill="none" stroke="#63b8ff" d="M201.83,-181.81C218.24,-172.58 239.84,-160.43 256.41,-151.11"/>
<polygon fill="#63b8ff" stroke="#63b8ff" points="199.85,-178.91 192.85,-186.87 203.28,-185.02 199.85,-178.91"/>
</a>
</g>
</g>
<!-- Node3 -->
<g id="Node000003" class="node">
<title>Node3</title>
<g id="a_Node000003"><a xlink:href="pagination_8hpp.html" target="_top" xlink:title=" ">
<polygon fill="white" stroke="#666666" points="208.5,-19 36.5,-19 36.5,0 208.5,0 208.5,-19"/>
<text text-anchor="middle" x="122.5" y="-7" font-family="Helvetica,sans-Serif" font-size="10.00">include/rest_cpp/pagination.hpp</text>
</a>
</g>
</g>
<!-- Node2&#45;&gt;Node3 -->
<g id="edge2_Node000002_Node000003" class="edge">
<title>Node2&#45;&gt;Node3</title>
<g id="a_edge2_Node000002_Node000003"><a xlink:title=" ">
<path fill="none" stroke="#63b8ff" d="M167.66,-48.24C155.76,-38.29 142.13,-26.91 132.99,-19.27"/>
<polygon fill="#63b8ff" stroke="#63b8ff" points="165.64,-51.11 175.55,-54.84 170.13,-45.74 165.64,-51.11"/>
</a>
</g>
</g>
<!-- Node4 -->
<g id="Node000004" class="node">
<title>Node4</title>
<g id="a_Node000004"><a xlink:href="async__client_8cpp.html" target="_top" xlink:title=" ">
<polygon fill="white" stroke="#666666" points="342,-19 227,-19 227,0 342,0 342,-19"/>
<text text-anchor="middle" x="284.5" y="-7" font-family="Helvetica,sans-Serif" font-size="10.00">src/async_client.cpp</text>
</a>
</g>
</g>
<!-- Node2&#45;&gt;Node4 -->
<g id="edge3_Node000002_Node000004" class="edge">
<title>Node2&#45;&gt;Node4</title>
<g id="a_edge3_Node000002_Node000004"><a xlink:title=" ">
<path fill="none" stroke="#63b8ff" d="M223.4,-49.35C239.56,-39.07 258.52,-27.02 270.98,-19.09"/>
<polygon fill="#63b8ff" stroke="#63b8ff" points="221.33,-46.52 214.77,-54.84 225.09,-52.43 221.33,-46.52"/>
</a>
</g>
</g>
<!-- Node6 -->
<g id="Node000006" class="node">
<title>Node6</title>
<g id="a_Node000006"><a xlink:href="client_8cpp.html" target="_top" xlink:title=" ">
<polygon fill="white" stroke="#666666" points="110,-79.5 29,-79.5 29,-60.5 110,-60.5 110,-79.5"/>
<text text-anchor="middle" x="69.5" y="-67.5" font-family="Helvetica,sans-Serif" font-size="10.00">src/client.cpp</text>
</a>
</g>
</g>
<!-- Node5&#45;&gt;Node6 -->
<g id="edge5_Node000005_Node000006" class="edge">
<title>Node5&#45;&gt;Node6</title>
<g id="a_edge5_Node000005_Node000006"><a xlink:title=" ">
<path fill="none" stroke="#63b8ff" d="M72.32,-116.08C71.57,-104.13 70.64,-89.22 70.06,-79.91"/>
<polygon fill="#63b8ff" stroke="#63b8ff" points="68.84,-116.61 72.96,-126.37 75.83,-116.17 68.84,-116.61"/>
</a>
</g>
</g>
<!-- Node7&#45;&gt;Node2 -->
<g id="edge7_Node000007_Node000002" class="edge">
<title>Node7&#45;&gt;Node2</title>
<g id="a_edge7_Node000007_Node000002"><a xlink:title=" ">
<path fill="none" stroke="#63b8ff" d="M253.34,-114.75C239.96,-105.13 224.28,-93.86 212.2,-85.16"/>
<polygon fill="#63b8ff" stroke="#63b8ff" points="251.59,-117.8 261.75,-120.8 255.67,-112.12 251.59,-117.8"/>
</a>
</g>
</g>
<!-- Node7&#45;&gt;Node4 -->
<g id="edge8_Node000007_Node000004" class="edge">
<title>Node7&#45;&gt;Node4</title>
<g id="a_edge8_Node000007_Node000004"><a xlink:title=" ">
<path fill="none" stroke="#63b8ff" d="M282.09,-110.48C282.77,-82.34 283.85,-37.67 284.29,-19.07"/>
<polygon fill="#63b8ff" stroke="#63b8ff" points="278.59,-110.64 281.84,-120.72 285.58,-110.81 278.59,-110.64"/>
</a>
</g>
</g>
</g>
</svg>
</svg>

<style type='text/css'>
<![CDATA[
[data-mouse-over-selected='false'] { opacity: 0.7; }
[data-mouse-over-selected='true']  { opacity: 1.0; }
]]>
</style>
<script type="application/ecmascript"><![CDATA[
document.addEventListener('DOMContentLoaded', (event) => {
  highlightEdges();
  highlightAdjacentNodes();
});
]]></script>
</svg>
