<?xml version="1.0" encoding="UTF-8" standalone="no"?>
<!DOCTYPE svg PUBLIC "-//W3C//DTD SVG 1.1//EN"
 "http://www.w3.org/Graphics/SVG/1.1/DTD/svg11.dtd">
<!-- Generated by graphviz version 2.43.0 (0)
 -->
<!-- Title: include/rest_cpp/connection/connection.hpp Pages: 1 -->
<svg width="376pt" height="225pt"
 viewBox="0.00 0.00 376.00 225.00" xmlns="http://www.w3.org/2000/svg" xmlns:xlink="http://www.w3.org/1999/xlink">

<svg id="main" version="1.1" xmlns="http://www.w3.org/2000/svg" xmlns:xlink="http://www.w3.org/1999/xlink" xml:space="preserve" onload="init(evt)">
<style type="text/css"><![CDATA[
.node, .edge {opacity: 0.7;}
.node.selected, .edge.selected {opacity: 1;}
.edge:hover path { stroke: red; }
.edge:hover polygon { stroke: red; fill: red; }
]]></style>
<script type="application/ecmascript" xlink:href="svg.min.js"/>
<svg id="graph" class="graph">
<g id="graph0" class="graph" transform="scale(1 1) rotate(0) translate(4 221)">
<title>include/rest_cpp/connection/connection.hpp</title>
<!-- Node1 -->
<g id="Node000001" class="node">
<title>Node1</title>
<g id="a_Node000001"><a xlink:title=" ">
<polygon fill="#999999" stroke="#666666" points="233.5,-217 81.5,-217 81.5,-187 233.5,-187 233.5,-217"/>
<text text-anchor="start" x="89.5" y="-205" font-family="Helvetica,sans-Serif" font-size="10.00">include/rest_cpp/connection</text>
<text text-anchor="middle" x="157.5" y="-194" font-family="Helvetica,sans-Serif" font-size="10.00">/connection.hpp</text>
</a>
</g>
</g>
<!-- Node2 -->
<g id="Node000002" class="node">
<title>Node2</title>
<g id="a_Node000002"><a xlink:href="client_8hpp.html" target="_top" xlink:title=" ">
<polygon fill="white" stroke="#666666" points="147,-145.5 0,-145.5 0,-126.5 147,-126.5 147,-145.5"/>
<text text-anchor="middle" x="73.5" y="-133.5" font-family="Helvetica,sans-Serif" font-size="10.00">include/rest_cpp/client.hpp</text>
</a>
</g>
</g>
<!-- Node1&#45;&gt;Node2 -->
<g id="edge1_Node000001_Node000002" class="edge">
<title>Node1&#45;&gt;Node2</title>
<g id="a_edge1_Node000001_Node000002"><a xlink:title=" ">
<path fill="none" stroke="#63b8ff" d="M130.71,-180.58C115.34,-168.87 96.83,-154.77 85.11,-145.84"/>
<polygon fill="#63b8ff" stroke="#63b8ff" points="128.78,-183.52 138.86,-186.8 133.02,-177.95 128.78,-183.52"/>
</a>
</g>
</g>
<!-- Node4 -->
<g id="Node000004" class="node">
<title>Node4</title>
<g id="a_Node000004"><a xlink:href="connection__pool_8hpp.html" target="_top" xlink:title=" ">
<polygon fill="white" stroke="#666666" points="317.5,-151 165.5,-151 165.5,-121 317.5,-121 317.5,-151"/>
<text text-anchor="start" x="173.5" y="-139" font-family="Helvetica,sans-Serif" font-size="10.00">include/rest_cpp/connection</text>
<text text-anchor="middle" x="241.5" y="-128" font-family="Helvetica,sans-Serif" font-size="10.00">/connection_pool.hpp</text>
</a>
</g>
</g>
<!-- Node1&#45;&gt;Node4 -->
<g id="edge3_Node000001_Node000004" class="edge">
<title>Node1&#45;&gt;Node4</title>
<g id="a_edge3_Node000001_Node000004"><a xlink:title=" ">
<path fill="none" stroke="#63b8ff" d="M184.44,-180.48C196.99,-170.91 211.61,-159.77 222.91,-151.16"/>
<polygon fill="#63b8ff" stroke="#63b8ff" points="181.98,-177.95 176.14,-186.8 186.22,-183.52 181.98,-177.95"/>
</a>
</g>
</g>
<!-- Node3 -->
<g id="Node000003" class="node">
<title>Node3</title>
<g id="a_Node000003"><a xlink:href="client_8cpp.html" target="_top" xlink:title=" ">
<polygon fill="white" stroke="#666666" points="114,-79.5 33,-79.5 33,-60.5 114,-60.5 114,-79.5"/>
<text text-anchor="middle" x="73.5" y="-67.5" font-family="Helvetica,sans-Serif" font-size="10.00">src/client.cpp</text>
</a>
</g>
</g>
<!-- Node2&#45;&gt;Node3 -->
<g id="edge2_Node000002_Node000003" class="edge">
<title>Node2&#45;&gt;Node3</title>
<g id="a_edge2_Node000002_Node000003"><a xlink:title=" ">
<path fill="none" stroke="#63b8ff" d="M73.5,-116.08C73.5,-104.13 73.5,-89.22 73.5,-79.91"/>
<polygon fill="#63b8ff" stroke="#63b8ff" points="70,-116.37 73.5,-126.37 77,-116.37 70,-116.37"/>
</a>
</g>
</g>
<!-- Node5 -->
<g id="Node000005" class="node">
<title>Node5</title>
<g id="a_Node000005"><a xlink:href="async__client_8hpp.html" target="_top" xlink:title=" ">
<polygon fill="white" stroke="#666666" points="282.5,-85 154.5,-85 154.5,-55 282.5,-55 282.5,-85"/>
<text text-anchor="start" x="162.5" y="-73" font-family="Helvetica,sans-Serif" font-size="10.00">include/rest_cpp/async</text>
<text text-anchor="middle" x="218.5" y="-62" font-family="Helvetica,sans-Serif" font-size="10.00">_client.hpp</text>
</a>
</g>
</g>
<!-- Node4&#45;&gt;Node5 -->
<g id="edge4_Node000004_Node000005" class="edge">
<title>Node4&#45;&gt;Node5</title>
<g id="a_edge4_Node000004_Node000005"><a xlink:title=" ">
<path fill="none" stroke="#63b8ff" d="M232.91,-111.11C229.78,-102.38 226.33,-92.78 223.59,-85.16"/>
<polygon fill="#63b8ff" stroke="#63b8ff" points="229.72,-112.57 236.4,-120.8 236.31,-110.2 229.72,-112.57"/>
</a>
</g>
</g>
<!-- Node7 -->
<g id="Node000007" class="node">
<title>Node7</title>
<g id="a_Node000007"><a xlink:href="async__client_8cpp.html" target="_top" xlink:title=" ">
<polygon fill="white" stroke="#666666" points="368,-19 253,-19 253,0 368,0 368,-19"/>
<text text-anchor="middle" x="310.5" y="-7" font-family="Helvetica,sans-Serif" font-size="10.00">src/async_client.cpp</text>
</a>
</g>
</g>
<!-- Node4&#45;&gt;Node7 -->
<g id="edge7_Node000004_Node000007" class="edge">
<title>Node4&#45;&gt;Node7</title>
<g id="a_edge7_Node000004_Node000007"><a xlink:title=" ">
<path fill="none" stroke="#63b8ff" d="M267.66,-113.95C276.37,-105.74 285.39,-95.73 291.5,-85 303.78,-63.42 308.25,-33.87 309.77,-19.32"/>
<polygon fill="#63b8ff" stroke="#63b8ff" points="265.28,-111.38 260.18,-120.67 269.96,-116.59 265.28,-111.38"/>
</a>
</g>
</g>
<!-- Node6 -->
<g id="Node000006" class="node">
<title>Node6</title>
<g id="a_Node000006"><a xlink:href="pagination_8hpp.html" target="_top" xlink:title=" ">
<polygon fill="white" stroke="#666666" points="234.5,-19 62.5,-19 62.5,0 234.5,0 234.5,-19"/>
<text text-anchor="middle" x="148.5" y="-7" font-family="Helvetica,sans-Serif" font-size="10.00">include/rest_cpp/pagination.hpp</text>
</a>
</g>
</g>
<!-- Node5&#45;&gt;Node6 -->
<g id="edge5_Node000005_Node000006" class="edge">
<title>Node5&#45;&gt;Node6</title>
<g id="a_edge5_Node000005_Node000006"><a xlink:title=" ">
<path fill="none" stroke="#63b8ff" d="M193.66,-48.24C181.76,-38.29 168.13,-26.91 158.99,-19.27"/>
<polygon fill="#63b8ff" stroke="#63b8ff" points="191.64,-51.11 201.55,-54.84 196.13,-45.74 191.64,-51.11"/>
</a>
</g>
</g>
<!-- Node5&#45;&gt;Node7 -->
<g id="edge6_Node000005_Node000007" class="edge">
<title>Node5&#45;&gt;Node7</title>
<g id="a_edge6_Node000005_Node000007"><a xlink:title=" ">
<path fill="none" stroke="#63b8ff" d="M249.4,-49.35C265.56,-39.07 284.52,-27.02 296.98,-19.09"/>
<polygon fill="#63b8ff" stroke="#63b8ff" points="247.33,-46.52 240.77,-54.84 251.09,-52.43 247.33,-46.52"/>
</a>
</g>
</g>
</g>
</svg>
</svg>

<style type='text/css'>
<![CDATA[
[data-mouse-over-selected='false'] { opacity: 0.7; }
[data-mouse-over-selected='true']  { opacity: 1.0; }
]]>
</style>
<script type="application/ecmascript"><![CDATA[
document.addEventListener('DOMContentLoaded', (event) => {
  highlightEdges();
  highlightAdjacentNodes();
});
]]></script>
</svg>
