<?xml version="1.0" encoding="UTF-8" standalone="no"?>
<!DOCTYPE svg PUBLIC "-//W3C//DTD SVG 1.1//EN"
 "http://www.w3.org/Graphics/SVG/1.1/DTD/svg11.dtd">
<!-- Generated by graphviz version 2.43.0 (0)
 -->
<!-- Title: include/rest_cpp/connection/connection.hpp Pages: 1 -->
<!--zoomable 346 -->

<svg id="main" version="1.1" xmlns="http://www.w3.org/2000/svg" xmlns:xlink="http://www.w3.org/1999/xlink" xml:space="preserve" onload="init(evt)">
<style type="text/css"><![CDATA[
.node, .edge {opacity: 0.7;}
.node.selected, .edge.selected {opacity: 1;}
.edge:hover path { stroke: red; }
.edge:hover polygon { stroke: red; fill: red; }
]]></style>

<defs>
  <circle id="rim" cx="0" cy="0" r="7"/>
  <circle id="rim2" cx="0" cy="0" r="3.5"/>
  <g id="zoomPlus">
    <use xlink:href="#rim" fill="#404040"><set attributeName="fill" to="#808080" begin="zoomplus.mouseover" end="zoomplus.mouseout"/></use>
    <path d="M-4,0h8M0,-4v8" fill="none" stroke="white" stroke-width="1.5" pointer-events="none"/>
  </g>
  <g id="zoomMin">
    <use xlink:href="#rim" fill="#404040"><set attributeName="fill" to="#808080" begin="zoomminus.mouseover" end="zoomminus.mouseout"/></use>
    <path d="M-4,0h8" fill="none" stroke="white" stroke-width="1.5" pointer-events="none"/>
  </g>
  <g id="arrowUp" transform="translate(30 24)">
    <use xlink:href="#rim"/>
    <path pointer-events="none" fill="none" stroke="white" stroke-width="1.5" d="M0,-3.0v7 M-2.5,-0.5L0,-3.0L2.5,-0.5"/>
  </g>
  <g id="arrowRight" transform="rotate(90) translate(36 -43)">
    <use xlink:href="#rim"/>
    <path pointer-events="none" fill="none" stroke="white" stroke-width="1.5" d="M0,-3.0v7 M-2.5,-0.5L0,-3.0L2.5,-0.5"/>
  </g>
  <g id="arrowDown" transform="rotate(180) translate(-30 -48)">
    <use xlink:href="#rim"/>
    <path pointer-events="none" fill="none" stroke="white" stroke-width="1.5" d="M0,-3.0v7 M-2.5,-0.5L0,-3.0L2.5,-0.5"/>
  </g>
  <g id="arrowLeft" transform="rotate(270) translate(-36 17)">
    <use xlink:href="#rim"/>
    <path pointer-events="none" fill="none" stroke="white" stroke-width="1.5" d="M0,-3.0v7 M-2.5,-0.5L0,-3.0L2.5,-0.5"/>
  </g>
  <g id="resetDef">
    <use xlink:href="#rim2" fill="#404040"><set attributeName="fill" to="#808080" begin="reset.mouseover" end="reset.mouseout"/></use>
  </g>
</defs>
<script type="application/ecmascript">
var viewWidth = 2247;
var viewHeight = 346;
var sectionId = 'dynsection-0';
</script>
<script type="application/ecmascript" xlink:href="svg.min.js"/>
<svg id="graph" class="graph">
<g id="viewport">
<title>include/rest_cpp/connection/connection.hpp</title>
<!-- Node1 -->
<g id="Node000001" class="node">
<title>Node1</title>
<g id="a_Node000001"><a xlink:title=" ">
<polygon fill="#999999" stroke="#666666" points="1227,-338 1075,-338 1075,-308 1227,-308 1227,-338"/>
<text text-anchor="start" x="1083" y="-326" font-family="Helvetica,sans-Serif" font-size="10.00">include/rest_cpp/connection</text>
<text text-anchor="middle" x="1151" y="-315" font-family="Helvetica,sans-Serif" font-size="10.00">/connection.hpp</text>
</a>
</g>
</g>
<!-- Node2 -->
<g id="Node000002" class="node">
<title>Node2</title>
<g id="a_Node000002"><a xlink:title=" ">
<polygon fill="#e0e0e0" stroke="#999999" points="170,-266.5 0,-266.5 0,-247.5 170,-247.5 170,-266.5"/>
<text text-anchor="middle" x="85" y="-254.5" font-family="Helvetica,sans-Serif" font-size="10.00">boost/asio/any_io_executor.hpp</text>
</a>
</g>
</g>
<!-- Node1&#45;&gt;Node2 -->
<g id="edge1_Node000001_Node000002" class="edge">
<title>Node1&#45;&gt;Node2</title>
<g id="a_edge1_Node000001_Node000002"><a xlink:title=" ">
<path fill="none" stroke="#63b8ff" d="M1074.88,-320.58C910.8,-316.97 511.7,-305.25 179,-272 168.32,-270.93 156.99,-269.5 146.04,-267.96"/>
<polygon fill="#63b8ff" stroke="#63b8ff" points="146.51,-264.5 136.11,-266.53 145.51,-271.42 146.51,-264.5"/>
</a>
</g>
</g>
<!-- Node3 -->
<g id="Node000003" class="node">
<title>Node3</title>
<g id="a_Node000003"><a xlink:title=" ">
<polygon fill="#e0e0e0" stroke="#999999" points="327.5,-266.5 188.5,-266.5 188.5,-247.5 327.5,-247.5 327.5,-266.5"/>
<text text-anchor="middle" x="258" y="-254.5" font-family="Helvetica,sans-Serif" font-size="10.00">boost/asio/awaitable.hpp</text>
</a>
</g>
</g>
<!-- Node1&#45;&gt;Node3 -->
<g id="edge2_Node000001_Node000003" class="edge">
<title>Node1&#45;&gt;Node3</title>
<g id="a_edge2_Node000001_Node000003"><a xlink:title=" ">
<path fill="none" stroke="#63b8ff" d="M1074.99,-320.22C930.69,-316.21 607.29,-304.15 337,-272 328.55,-271 319.63,-269.67 310.96,-268.24"/>
<polygon fill="#63b8ff" stroke="#63b8ff" points="311.37,-264.76 300.92,-266.52 310.18,-271.66 311.37,-264.76"/>
</a>
</g>
</g>
<!-- Node4 -->
<g id="Node000004" class="node">
<title>Node4</title>
<g id="a_Node000004"><a xlink:title=" ">
<polygon fill="#e0e0e0" stroke="#999999" points="464,-266.5 346,-266.5 346,-247.5 464,-247.5 464,-266.5"/>
<text text-anchor="middle" x="405" y="-254.5" font-family="Helvetica,sans-Serif" font-size="10.00">boost/asio/ip/tcp.hpp</text>
</a>
</g>
</g>
<!-- Node1&#45;&gt;Node4 -->
<g id="edge3_Node000001_Node000004" class="edge">
<title>Node1&#45;&gt;Node4</title>
<g id="a_edge3_Node000001_Node000004"><a xlink:title=" ">
<path fill="none" stroke="#63b8ff" d="M1074.91,-319.6C949.12,-314.91 690.14,-302.23 473,-272 466.18,-271.05 459.02,-269.83 452.01,-268.5"/>
<polygon fill="#63b8ff" stroke="#63b8ff" points="452.39,-265.01 441.91,-266.5 451.04,-271.88 452.39,-265.01"/>
</a>
</g>
</g>
<!-- Node5 -->
<g id="Node000005" class="node">
<title>Node5</title>
<g id="a_Node000005"><a xlink:title=" ">
<polygon fill="#e0e0e0" stroke="#999999" points="589.5,-272 482.5,-272 482.5,-242 589.5,-242 589.5,-272"/>
<text text-anchor="start" x="490.5" y="-260" font-family="Helvetica,sans-Serif" font-size="10.00">boost/asio/redirect</text>
<text text-anchor="middle" x="536" y="-249" font-family="Helvetica,sans-Serif" font-size="10.00">_error.hpp</text>
</a>
</g>
</g>
<!-- Node1&#45;&gt;Node5 -->
<g id="edge4_Node000001_Node000005" class="edge">
<title>Node1&#45;&gt;Node5</title>
<g id="a_edge4_Node000001_Node000005"><a xlink:title=" ">
<path fill="none" stroke="#63b8ff" d="M1074.73,-318.19C969.86,-312.27 775.16,-298.8 599.47,-271.92"/>
<polygon fill="#63b8ff" stroke="#63b8ff" points="599.94,-268.46 589.53,-270.39 598.87,-275.37 599.94,-268.46"/>
</a>
</g>
</g>
<!-- Node6 -->
<g id="Node000006" class="node">
<title>Node6</title>
<g id="a_Node000006"><a xlink:title=" ">
<polygon fill="#e0e0e0" stroke="#999999" points="752,-266.5 608,-266.5 608,-247.5 752,-247.5 752,-266.5"/>
<text text-anchor="middle" x="680" y="-254.5" font-family="Helvetica,sans-Serif" font-size="10.00">boost/asio/ssl/context.hpp</text>
</a>
</g>
</g>
<!-- Node1&#45;&gt;Node6 -->
<g id="edge5_Node000001_Node000006" class="edge">
<title>Node1&#45;&gt;Node6</title>
<g id="a_edge5_Node000001_Node000006"><a xlink:title=" ">
<path fill="none" stroke="#63b8ff" d="M1074.64,-313.21C995.91,-303.91 869.68,-288.35 761,-272 753.36,-270.85 745.33,-269.56 737.41,-268.24"/>
<polygon fill="#63b8ff" stroke="#63b8ff" points="737.93,-264.78 727.49,-266.56 736.76,-271.68 737.93,-264.78"/>
</a>
</g>
</g>
<!-- Node7 -->
<g id="Node000007" class="node">
<title>Node7</title>
<g id="a_Node000007"><a xlink:title=" ">
<polygon fill="#e0e0e0" stroke="#999999" points="931.5,-266.5 770.5,-266.5 770.5,-247.5 931.5,-247.5 931.5,-266.5"/>
<text text-anchor="middle" x="851" y="-254.5" font-family="Helvetica,sans-Serif" font-size="10.00">boost/asio/use_awaitable.hpp</text>
</a>
</g>
</g>
<!-- Node1&#45;&gt;Node7 -->
<g id="edge6_Node000001_Node000007" class="edge">
<title>Node1&#45;&gt;Node7</title>
<g id="a_edge6_Node000001_Node000007"><a xlink:title=" ">
<path fill="none" stroke="#63b8ff" d="M1085.16,-307.95C1029.65,-296.11 951.41,-279.42 900.94,-268.65"/>
<polygon fill="#63b8ff" stroke="#63b8ff" points="901.44,-265.18 890.92,-266.52 899.97,-272.03 901.44,-265.18"/>
</a>
</g>
</g>
<!-- Node8 -->
<g id="Node000008" class="node">
<title>Node8</title>
<g id="a_Node000008"><a xlink:title=" ">
<polygon fill="#e0e0e0" stroke="#999999" points="1066,-272 950,-272 950,-242 1066,-242 1066,-272"/>
<text text-anchor="start" x="958" y="-260" font-family="Helvetica,sans-Serif" font-size="10.00">boost/beast/core/flat</text>
<text text-anchor="middle" x="1008" y="-249" font-family="Helvetica,sans-Serif" font-size="10.00">_buffer.hpp</text>
</a>
</g>
</g>
<!-- Node1&#45;&gt;Node8 -->
<g id="edge7_Node000001_Node000008" class="edge">
<title>Node1&#45;&gt;Node8</title>
<g id="a_edge7_Node000001_Node000008"><a xlink:title=" ">
<path fill="none" stroke="#63b8ff" d="M1119.62,-307.95C1098.76,-298.62 1071.16,-286.27 1048.62,-276.18"/>
<polygon fill="#63b8ff" stroke="#63b8ff" points="1049.87,-272.9 1039.31,-272.01 1047.01,-279.29 1049.87,-272.9"/>
</a>
</g>
</g>
<!-- Node9 -->
<g id="Node000009" class="node">
<title>Node9</title>
<g id="a_Node000009"><a xlink:title=" ">
<polygon fill="#e0e0e0" stroke="#999999" points="686,-140 570,-140 570,-110 686,-110 686,-140"/>
<text text-anchor="start" x="578" y="-128" font-family="Helvetica,sans-Serif" font-size="10.00">boost/beast/core/tcp</text>
<text text-anchor="middle" x="628" y="-117" font-family="Helvetica,sans-Serif" font-size="10.00">_stream.hpp</text>
</a>
</g>
</g>
<!-- Node1&#45;&gt;Node9 -->
<g id="edge8_Node000001_Node000009" class="edge">
<title>Node1&#45;&gt;Node9</title>
<g id="a_edge8_Node000001_Node000009"><a xlink:title=" ">
<path fill="none" stroke="#63b8ff" d="M1141.44,-307.84C1128.51,-289.8 1103.72,-258.92 1075,-242 1042.28,-222.72 813.12,-168.43 696.23,-141.52"/>
<polygon fill="#63b8ff" stroke="#63b8ff" points="696.84,-138.07 686.31,-139.24 695.27,-144.89 696.84,-138.07"/>
</a>
</g>
</g>
<!-- Node10 -->
<g id="Node000010" class="node">
<title>Node10</title>
<g id="a_Node000010"><a xlink:title=" ">
<polygon fill="#e0e0e0" stroke="#999999" points="1906,-266.5 1764,-266.5 1764,-247.5 1906,-247.5 1906,-266.5"/>
<text text-anchor="middle" x="1835" y="-254.5" font-family="Helvetica,sans-Serif" font-size="10.00">boost/beast/http/read.hpp</text>
</a>
</g>
</g>
<!-- Node1&#45;&gt;Node10 -->
<g id="edge9_Node000001_Node000010" class="edge">
<title>Node1&#45;&gt;Node10</title>
<g id="a_edge9_Node000001_Node000010"><a xlink:title=" ">
<path fill="none" stroke="#63b8ff" d="M1227.04,-317.92C1341.77,-311.27 1565.85,-296.33 1755,-272 1763.15,-270.95 1771.74,-269.65 1780.14,-268.28"/>
<polygon fill="#63b8ff" stroke="#63b8ff" points="1780.98,-271.68 1790.26,-266.57 1779.82,-264.78 1780.98,-271.68"/>
</a>
</g>
</g>
<!-- Node11 -->
<g id="Node000011" class="node">
<title>Node11</title>
<g id="a_Node000011"><a xlink:title=" ">
<polygon fill="#e0e0e0" stroke="#999999" points="1854.5,-206 1727.5,-206 1727.5,-176 1854.5,-176 1854.5,-206"/>
<text text-anchor="start" x="1735.5" y="-194" font-family="Helvetica,sans-Serif" font-size="10.00">boost/beast/http/string</text>
<text text-anchor="middle" x="1791" y="-183" font-family="Helvetica,sans-Serif" font-size="10.00">_body.hpp</text>
</a>
</g>
</g>
<!-- Node1&#45;&gt;Node11 -->
<g id="edge10_Node000001_Node000011" class="edge">
<title>Node1&#45;&gt;Node11</title>
<g id="a_edge10_Node000001_Node000011"><a xlink:title=" ">
<path fill="none" stroke="#63b8ff" d="M1227.23,-318.01C1337.37,-311.49 1535.14,-296.74 1602,-272 1624.2,-263.79 1624.85,-252.62 1646,-242 1672.48,-228.71 1703.34,-217.52 1729.77,-209.12"/>
<polygon fill="#63b8ff" stroke="#63b8ff" points="1731.15,-212.36 1739.66,-206.04 1729.07,-205.68 1731.15,-212.36"/>
</a>
</g>
</g>
<!-- Node12 -->
<g id="Node000012" class="node">
<title>Node12</title>
<g id="a_Node000012"><a xlink:title=" ">
<polygon fill="#e0e0e0" stroke="#999999" points="2069.5,-266.5 1924.5,-266.5 1924.5,-247.5 2069.5,-247.5 2069.5,-266.5"/>
<text text-anchor="middle" x="1997" y="-254.5" font-family="Helvetica,sans-Serif" font-size="10.00">boost/beast/http/write.hpp</text>
</a>
</g>
</g>
<!-- Node1&#45;&gt;Node12 -->
<g id="edge11_Node000001_Node000012" class="edge">
<title>Node1&#45;&gt;Node12</title>
<g id="a_edge11_Node000001_Node000012"><a xlink:title=" ">
<path fill="none" stroke="#63b8ff" d="M1227.15,-319.63C1364.83,-314.77 1664.18,-301.54 1915,-272 1923.75,-270.97 1932.99,-269.63 1941.99,-268.2"/>
<polygon fill="#63b8ff" stroke="#63b8ff" points="1942.71,-271.63 1952.01,-266.55 1941.57,-264.72 1942.71,-271.63"/>
</a>
</g>
</g>
<!-- Node13 -->
<g id="Node000013" class="node">
<title>Node13</title>
<g id="a_Node000013"><a xlink:title=" ">
<polygon fill="#e0e0e0" stroke="#999999" points="811.5,-140 704.5,-140 704.5,-110 811.5,-110 811.5,-140"/>
<text text-anchor="start" x="712.5" y="-128" font-family="Helvetica,sans-Serif" font-size="10.00">boost/beast/ssl/ssl</text>
<text text-anchor="middle" x="758" y="-117" font-family="Helvetica,sans-Serif" font-size="10.00">_stream.hpp</text>
</a>
</g>
</g>
<!-- Node1&#45;&gt;Node13 -->
<g id="edge12_Node000001_Node000013" class="edge">
<title>Node1&#45;&gt;Node13</title>
<g id="a_edge12_Node000001_Node000013"><a xlink:title=" ">
<path fill="none" stroke="#63b8ff" d="M1147.98,-307.94C1140.78,-278.12 1119.61,-208.63 1073,-176 982.59,-112.71 934.48,-157.8 821.74,-140.12"/>
<polygon fill="#63b8ff" stroke="#63b8ff" points="822.16,-136.64 811.71,-138.41 820.98,-143.54 822.16,-136.64"/>
</a>
</g>
</g>
<!-- Node14 -->
<g id="Node000014" class="node">
<title>Node14</title>
<g id="a_Node000014"><a xlink:title=" ">
<polygon fill="#e0e0e0" stroke="#999999" points="2210,-272 2088,-272 2088,-242 2210,-242 2210,-272"/>
<text text-anchor="start" x="2096" y="-260" font-family="Helvetica,sans-Serif" font-size="10.00">boost/system/system</text>
<text text-anchor="middle" x="2149" y="-249" font-family="Helvetica,sans-Serif" font-size="10.00">_error.hpp</text>
</a>
</g>
</g>
<!-- Node1&#45;&gt;Node14 -->
<g id="edge13_Node000001_Node000014" class="edge">
<title>Node1&#45;&gt;Node14</title>
<g id="a_edge13_Node000001_Node000014"><a xlink:title=" ">
<path fill="none" stroke="#63b8ff" d="M1227.11,-321.59C1384.4,-319.94 1756.72,-311.89 2077.66,-272.04"/>
<polygon fill="#63b8ff" stroke="#63b8ff" points="2078.13,-275.51 2087.62,-270.79 2077.26,-268.57 2078.13,-275.51"/>
</a>
</g>
</g>
<!-- Node15 -->
<g id="Node000015" class="node">
<title>Node15</title>
<g id="a_Node000015"><a xlink:title=" ">
<polygon fill="#e0e0e0" stroke="#999999" points="1854.5,-74 1803.5,-74 1803.5,-55 1854.5,-55 1854.5,-74"/>
<text text-anchor="middle" x="1829" y="-62" font-family="Helvetica,sans-Serif" font-size="10.00">variant</text>
</a>
</g>
</g>
<!-- Node1&#45;&gt;Node15 -->
<g id="edge14_Node000001_Node000015" class="edge">
<title>Node1&#45;&gt;Node15</title>
<g id="a_edge14_Node000001_Node000015"><a xlink:title=" ">
<path fill="none" stroke="#63b8ff" d="M1227.28,-319.77C1293.78,-315.59 1391.73,-303.95 1471,-272 1539.96,-244.21 1544.13,-214.06 1608,-176 1674.66,-136.27 1757.47,-97.51 1800.32,-78.19"/>
<polygon fill="#63b8ff" stroke="#63b8ff" points="1801.88,-81.32 1809.58,-74.04 1799.02,-74.94 1801.88,-81.32"/>
</a>
</g>
</g>
<!-- Node16 -->
<g id="Node000016" class="node">
<title>Node16</title>
<g id="a_Node000016"><a xlink:href="endpoint_8hpp.html" target="_top" xlink:title=" ">
<polygon fill="white" stroke="#666666" points="1214.5,-200.5 1125.5,-200.5 1125.5,-181.5 1214.5,-181.5 1214.5,-200.5"/>
<text text-anchor="middle" x="1170" y="-188.5" font-family="Helvetica,sans-Serif" font-size="10.00">../endpoint.hpp</text>
</a>
</g>
</g>
<!-- Node1&#45;&gt;Node16 -->
<g id="edge15_Node000001_Node000016" class="edge">
<title>Node1&#45;&gt;Node16</title>
<g id="a_edge15_Node000001_Node000016"><a xlink:title=" ">
<path fill="none" stroke="#63b8ff" d="M1153.07,-307.84C1156.5,-284.34 1163.39,-237.26 1167.23,-210.93"/>
<polygon fill="#63b8ff" stroke="#63b8ff" points="1170.74,-211.15 1168.72,-200.75 1163.81,-210.14 1170.74,-211.15"/>
</a>
</g>
</g>
<!-- Node20 -->
<g id="Node000020" class="node">
<title>Node20</title>
<g id="a_Node000020"><a xlink:href="request_8hpp.html" target="_top" xlink:title=" ">
<polygon fill="white" stroke="#666666" points="1420.5,-266.5 1337.5,-266.5 1337.5,-247.5 1420.5,-247.5 1420.5,-266.5"/>
<text text-anchor="middle" x="1379" y="-254.5" font-family="Helvetica,sans-Serif" font-size="10.00">../request.hpp</text>
</a>
</g>
</g>
<!-- Node1&#45;&gt;Node20 -->
<g id="edge21_Node000001_Node000020" class="edge">
<title>Node1&#45;&gt;Node20</title>
<g id="a_edge21_Node000001_Node000020"><a xlink:title=" ">
<path fill="none" stroke="#63b8ff" d="M1201.04,-307.95C1242.43,-296.34 1300.46,-280.05 1338.86,-269.27"/>
<polygon fill="#63b8ff" stroke="#63b8ff" points="1339.98,-272.59 1348.66,-266.52 1338.08,-265.85 1339.98,-272.59"/>
</a>
</g>
</g>
<!-- Node29 -->
<g id="Node000029" class="node">
<title>Node29</title>
<g id="a_Node000029"><a xlink:href="result_8hpp.html" target="_top" xlink:title=" ">
<polygon fill="white" stroke="#666666" points="1658.5,-134.5 1593.5,-134.5 1593.5,-115.5 1658.5,-115.5 1658.5,-134.5"/>
<text text-anchor="middle" x="1626" y="-122.5" font-family="Helvetica,sans-Serif" font-size="10.00">result.hpp</text>
</a>
</g>
</g>
<!-- Node1&#45;&gt;Node29 -->
<g id="edge45_Node000001_Node000029" class="edge">
<title>Node1&#45;&gt;Node29</title>
<g id="a_edge45_Node000001_Node000029"><a xlink:title=" ">
<path fill="none" stroke="#63b8ff" d="M1227.26,-316.62C1284.65,-310.62 1364.37,-298.07 1430,-272 1479.84,-252.21 1487.97,-238 1531,-206 1559.36,-184.91 1590.35,-158.04 1608.97,-141.43"/>
<polygon fill="#63b8ff" stroke="#63b8ff" points="1611.5,-143.86 1616.6,-134.57 1606.82,-138.65 1611.5,-143.86"/>
</a>
</g>
</g>
<!-- Node34 -->
<g id="Node000034" class="node">
<title>Node34</title>
<g id="a_Node000034"><a xlink:href="response_8hpp.html" target="_top" xlink:title=" ">
<polygon fill="white" stroke="#666666" points="1745.5,-266.5 1654.5,-266.5 1654.5,-247.5 1745.5,-247.5 1745.5,-266.5"/>
<text text-anchor="middle" x="1700" y="-254.5" font-family="Helvetica,sans-Serif" font-size="10.00">../response.hpp</text>
</a>
</g>
</g>
<!-- Node1&#45;&gt;Node34 -->
<g id="edge39_Node000001_Node000034" class="edge">
<title>Node1&#45;&gt;Node34</title>
<g id="a_edge39_Node000001_Node000034"><a xlink:title=" ">
<path fill="none" stroke="#63b8ff" d="M1227.21,-317.23C1323.75,-310.49 1495.01,-296.23 1640,-272 1645.47,-271.09 1651.19,-269.97 1656.83,-268.76"/>
<polygon fill="#63b8ff" stroke="#63b8ff" points="1657.83,-272.13 1666.83,-266.53 1656.31,-265.3 1657.83,-272.13"/>
</a>
</g>
</g>
<!-- Node16&#45;&gt;Node9 -->
<g id="edge18_Node000016_Node000009" class="edge">
<title>Node16&#45;&gt;Node9</title>
<g id="a_edge18_Node000016_Node000009"><a xlink:title=" ">
<path fill="none" stroke="#63b8ff" d="M1125.15,-183.06C1108.76,-180.65 1090.06,-178.04 1073,-176 908.63,-156.32 863.56,-164.95 695.94,-140.03"/>
<polygon fill="#63b8ff" stroke="#63b8ff" points="696.44,-136.56 686.03,-138.54 695.4,-143.49 696.44,-136.56"/>
</a>
</g>
</g>
<!-- Node16&#45;&gt;Node13 -->
<g id="edge19_Node000016_Node000013" class="edge">
<title>Node16&#45;&gt;Node13</title>
<g id="a_edge19_Node000016_Node000013"><a xlink:title=" ">
<path fill="none" stroke="#63b8ff" d="M1136.75,-181.43C1128.38,-179.47 1119.39,-177.51 1111,-176 986,-153.51 950.19,-161.92 821.92,-140.23"/>
<polygon fill="#63b8ff" stroke="#63b8ff" points="822.15,-136.71 811.7,-138.47 820.96,-143.61 822.15,-136.71"/>
</a>
</g>
</g>
<!-- Node17 -->
<g id="Node000017" class="node">
<title>Node17</title>
<g id="a_Node000017"><a xlink:title=" ">
<polygon fill="#e0e0e0" stroke="#999999" points="908.5,-134.5 829.5,-134.5 829.5,-115.5 908.5,-115.5 908.5,-134.5"/>
<text text-anchor="middle" x="869" y="-122.5" font-family="Helvetica,sans-Serif" font-size="10.00">openssl/err.h</text>
</a>
</g>
</g>
<!-- Node16&#45;&gt;Node17 -->
<g id="edge16_Node000016_Node000017" class="edge">
<title>Node16&#45;&gt;Node17</title>
<g id="a_edge16_Node000016_Node000017"><a xlink:title=" ">
<path fill="none" stroke="#63b8ff" d="M1135.12,-181.43C1127.21,-179.56 1118.83,-177.66 1111,-176 1025.64,-157.92 1002.93,-160.01 918,-140 914.39,-139.15 910.64,-138.2 906.9,-137.21"/>
<polygon fill="#63b8ff" stroke="#63b8ff" points="907.69,-133.8 897.12,-134.52 905.84,-140.55 907.69,-133.8"/>
</a>
</g>
</g>
<!-- Node18 -->
<g id="Node000018" class="node">
<title>Node18</title>
<g id="a_Node000018"><a xlink:title=" ">
<polygon fill="#e0e0e0" stroke="#999999" points="1007,-134.5 927,-134.5 927,-115.5 1007,-115.5 1007,-134.5"/>
<text text-anchor="middle" x="967" y="-122.5" font-family="Helvetica,sans-Serif" font-size="10.00">openssl/ssl.h</text>
</a>
</g>
</g>
<!-- Node16&#45;&gt;Node18 -->
<g id="edge17_Node000016_Node000018" class="edge">
<title>Node16&#45;&gt;Node18</title>
<g id="a_edge17_Node000016_Node000018"><a xlink:title=" ">
<path fill="none" stroke="#63b8ff" d="M1142.62,-181.37C1106.81,-170.08 1043.91,-150.25 1003.91,-137.64"/>
<polygon fill="#63b8ff" stroke="#63b8ff" points="1004.86,-134.27 994.27,-134.6 1002.75,-140.94 1004.86,-134.27"/>
</a>
</g>
</g>
<!-- Node19 -->
<g id="Node000019" class="node">
<title>Node19</title>
<g id="a_Node000019"><a xlink:title=" ">
<polygon fill="#e0e0e0" stroke="#999999" points="1134.5,-140 1025.5,-140 1025.5,-110 1134.5,-110 1134.5,-140"/>
<text text-anchor="start" x="1033.5" y="-128" font-family="Helvetica,sans-Serif" font-size="10.00">boost/system/error</text>
<text text-anchor="middle" x="1080" y="-117" font-family="Helvetica,sans-Serif" font-size="10.00">_code.hpp</text>
</a>
</g>
</g>
<!-- Node16&#45;&gt;Node19 -->
<g id="edge20_Node000016_Node000019" class="edge">
<title>Node16&#45;&gt;Node19</title>
<g id="a_edge20_Node000016_Node000019"><a xlink:title=" ">
<path fill="none" stroke="#63b8ff" d="M1157.86,-181.37C1145.2,-172.36 1124.89,-157.92 1108.19,-146.05"/>
<polygon fill="#63b8ff" stroke="#63b8ff" points="1110.03,-143.06 1099.85,-140.12 1105.97,-148.76 1110.03,-143.06"/>
</a>
</g>
</g>
<!-- Node20&#45;&gt;Node16 -->
<g id="edge28_Node000020_Node000016" class="edge">
<title>Node20&#45;&gt;Node16</title>
<g id="a_edge28_Node000020_Node000016"><a xlink:title=" ">
<path fill="none" stroke="#63b8ff" d="M1350.81,-247.37C1313.86,-236.05 1248.91,-216.16 1207.74,-203.56"/>
<polygon fill="#63b8ff" stroke="#63b8ff" points="1208.66,-200.18 1198.07,-200.6 1206.61,-206.87 1208.66,-200.18"/>
</a>
</g>
</g>
<!-- Node21 -->
<g id="Node000021" class="node">
<title>Node21</title>
<g id="a_Node000021"><a xlink:title=" ">
<polygon fill="#e0e0e0" stroke="#999999" points="1407,-200.5 1351,-200.5 1351,-181.5 1407,-181.5 1407,-200.5"/>
<text text-anchor="middle" x="1379" y="-188.5" font-family="Helvetica,sans-Serif" font-size="10.00">optional</text>
</a>
</g>
</g>
<!-- Node20&#45;&gt;Node21 -->
<g id="edge22_Node000020_Node000021" class="edge">
<title>Node20&#45;&gt;Node21</title>
<g id="a_edge22_Node000020_Node000021"><a xlink:title=" ">
<path fill="none" stroke="#63b8ff" d="M1379,-247.37C1379,-238.16 1379,-223.29 1379,-211.27"/>
<polygon fill="#63b8ff" stroke="#63b8ff" points="1382.5,-210.91 1379,-200.91 1375.5,-210.91 1382.5,-210.91"/>
</a>
</g>
</g>
<!-- Node22 -->
<g id="Node000022" class="node">
<title>Node22</title>
<g id="a_Node000022"><a xlink:title=" ">
<polygon fill="#e0e0e0" stroke="#999999" points="1559,-19 1515,-19 1515,0 1559,0 1559,-19"/>
<text text-anchor="middle" x="1537" y="-7" font-family="Helvetica,sans-Serif" font-size="10.00">string</text>
</a>
</g>
</g>
<!-- Node20&#45;&gt;Node22 -->
<g id="edge23_Node000020_Node000022" class="edge">
<title>Node20&#45;&gt;Node22</title>
<g id="a_edge23_Node000020_Node000022"><a xlink:title=" ">
<path fill="none" stroke="#63b8ff" d="M1386.54,-247.25C1394.58,-237.62 1407.33,-221.44 1416,-206 1438.54,-165.84 1434.15,-151.06 1455,-110 1468.01,-84.38 1470.74,-77.19 1489,-55 1497.71,-44.41 1508.87,-33.92 1518.24,-25.78"/>
<polygon fill="#63b8ff" stroke="#63b8ff" points="1520.53,-28.43 1525.91,-19.3 1516.01,-23.09 1520.53,-28.43"/>
</a>
</g>
</g>
<!-- Node23 -->
<g id="Node000023" class="node">
<title>Node23</title>
<g id="a_Node000023"><a xlink:title=" ">
<polygon fill="#e0e0e0" stroke="#999999" points="1709.5,-200.5 1616.5,-200.5 1616.5,-181.5 1709.5,-181.5 1709.5,-200.5"/>
<text text-anchor="middle" x="1663" y="-188.5" font-family="Helvetica,sans-Serif" font-size="10.00">unordered_map</text>
</a>
</g>
</g>
<!-- Node20&#45;&gt;Node23 -->
<g id="edge24_Node000020_Node000023" class="edge">
<title>Node20&#45;&gt;Node23</title>
<g id="a_edge24_Node000020_Node000023"><a xlink:title=" ">
<path fill="none" stroke="#63b8ff" d="M1417.01,-247.44C1468.23,-235.89 1559.42,-215.34 1615.23,-202.77"/>
<polygon fill="#63b8ff" stroke="#63b8ff" points="1616.23,-206.13 1625.22,-200.51 1614.69,-199.3 1616.23,-206.13"/>
</a>
</g>
</g>
<!-- Node24 -->
<g id="Node000024" class="node">
<title>Node24</title>
<g id="a_Node000024"><a xlink:href="http__method_8hpp.html" target="_top" xlink:title=" ">
<polygon fill="white" stroke="#666666" points="1333,-200.5 1233,-200.5 1233,-181.5 1333,-181.5 1333,-200.5"/>
<text text-anchor="middle" x="1283" y="-188.5" font-family="Helvetica,sans-Serif" font-size="10.00">http_method.hpp</text>
</a>
</g>
</g>
<!-- Node20&#45;&gt;Node24 -->
<g id="edge25_Node000020_Node000024" class="edge">
<title>Node20&#45;&gt;Node24</title>
<g id="a_edge25_Node000020_Node000024"><a xlink:title=" ">
<path fill="none" stroke="#63b8ff" d="M1366.05,-247.37C1350.31,-236.87 1323.5,-219 1304.6,-206.4"/>
<polygon fill="#63b8ff" stroke="#63b8ff" points="1306.31,-203.33 1296.05,-200.7 1302.43,-209.16 1306.31,-203.33"/>
</a>
</g>
</g>
<!-- Node27 -->
<g id="Node000027" class="node">
<title>Node27</title>
<g id="a_Node000027"><a xlink:href="url_8hpp.html" target="_top" xlink:title=" ">
<polygon fill="white" stroke="#666666" points="1522,-200.5 1472,-200.5 1472,-181.5 1522,-181.5 1522,-200.5"/>
<text text-anchor="middle" x="1497" y="-188.5" font-family="Helvetica,sans-Serif" font-size="10.00">url.hpp</text>
</a>
</g>
</g>
<!-- Node20&#45;&gt;Node27 -->
<g id="edge29_Node000020_Node000027" class="edge">
<title>Node20&#45;&gt;Node27</title>
<g id="a_edge29_Node000020_Node000027"><a xlink:title=" ">
<path fill="none" stroke="#63b8ff" d="M1394.91,-247.37C1414.71,-236.63 1448.73,-218.18 1472.01,-205.55"/>
<polygon fill="#63b8ff" stroke="#63b8ff" points="1473.84,-208.54 1480.96,-200.7 1470.5,-202.39 1473.84,-208.54"/>
</a>
</g>
</g>
<!-- Node25 -->
<g id="Node000025" class="node">
<title>Node25</title>
<g id="a_Node000025"><a xlink:title=" ">
<polygon fill="#e0e0e0" stroke="#999999" points="1406.5,-134.5 1287.5,-134.5 1287.5,-115.5 1406.5,-115.5 1406.5,-134.5"/>
<text text-anchor="middle" x="1347" y="-122.5" font-family="Helvetica,sans-Serif" font-size="10.00">boost/beast/core.hpp</text>
</a>
</g>
</g>
<!-- Node24&#45;&gt;Node25 -->
<g id="edge26_Node000024_Node000025" class="edge">
<title>Node24&#45;&gt;Node25</title>
<g id="a_edge26_Node000024_Node000025"><a xlink:title=" ">
<path fill="none" stroke="#63b8ff" d="M1291.63,-181.37C1301.69,-171.31 1318.52,-154.48 1330.99,-142.01"/>
<polygon fill="#63b8ff" stroke="#63b8ff" points="1333.5,-144.45 1338.09,-134.91 1328.55,-139.5 1333.5,-144.45"/>
</a>
</g>
</g>
<!-- Node26 -->
<g id="Node000026" class="node">
<title>Node26</title>
<g id="a_Node000026"><a xlink:title=" ">
<polygon fill="#e0e0e0" stroke="#999999" points="1269.5,-134.5 1152.5,-134.5 1152.5,-115.5 1269.5,-115.5 1269.5,-134.5"/>
<text text-anchor="middle" x="1211" y="-122.5" font-family="Helvetica,sans-Serif" font-size="10.00">boost/beast/http.hpp</text>
</a>
</g>
</g>
<!-- Node24&#45;&gt;Node26 -->
<g id="edge27_Node000024_Node000026" class="edge">
<title>Node24&#45;&gt;Node26</title>
<g id="a_edge27_Node000024_Node000026"><a xlink:title=" ">
<path fill="none" stroke="#63b8ff" d="M1273.29,-181.37C1261.87,-171.21 1242.68,-154.16 1228.61,-141.65"/>
<polygon fill="#63b8ff" stroke="#63b8ff" points="1230.82,-138.93 1221.02,-134.91 1226.17,-144.16 1230.82,-138.93"/>
</a>
</g>
</g>
<!-- Node27&#45;&gt;Node22 -->
<g id="edge30_Node000027_Node000022" class="edge">
<title>Node27&#45;&gt;Node22</title>
<g id="a_edge30_Node000027_Node000022"><a xlink:title=" ">
<path fill="none" stroke="#63b8ff" d="M1509.85,-181.44C1521.78,-172.66 1538.74,-157.78 1546,-140 1551.04,-127.66 1552.08,-121.87 1546,-110 1533.52,-85.63 1508.48,-98.37 1496,-74 1487.15,-56.72 1502.22,-38.2 1516.53,-25.65"/>
<polygon fill="#63b8ff" stroke="#63b8ff" points="1519.14,-28.04 1524.67,-19 1514.71,-22.61 1519.14,-28.04"/>
</a>
</g>
</g>
<!-- Node28 -->
<g id="Node000028" class="node">
<title>Node28</title>
<g id="a_Node000028"><a xlink:title=" ">
<polygon fill="#e0e0e0" stroke="#999999" points="1536.5,-134.5 1463.5,-134.5 1463.5,-115.5 1536.5,-115.5 1536.5,-134.5"/>
<text text-anchor="middle" x="1500" y="-122.5" font-family="Helvetica,sans-Serif" font-size="10.00">string_view</text>
</a>
</g>
</g>
<!-- Node27&#45;&gt;Node28 -->
<g id="edge31_Node000027_Node000028" class="edge">
<title>Node27&#45;&gt;Node28</title>
<g id="a_edge31_Node000027_Node000028"><a xlink:title=" ">
<path fill="none" stroke="#63b8ff" d="M1497.4,-181.37C1497.84,-172.07 1498.55,-156.98 1499.11,-144.9"/>
<polygon fill="#63b8ff" stroke="#63b8ff" points="1502.61,-145.06 1499.58,-134.91 1495.62,-144.73 1502.61,-145.06"/>
</a>
</g>
</g>
<!-- Node27&#45;&gt;Node29 -->
<g id="edge32_Node000027_Node000029" class="edge">
<title>Node27&#45;&gt;Node29</title>
<g id="a_edge32_Node000027_Node000029"><a xlink:title=" ">
<path fill="none" stroke="#63b8ff" d="M1514.4,-181.37C1536.23,-170.54 1573.89,-151.85 1599.36,-139.22"/>
<polygon fill="#63b8ff" stroke="#63b8ff" points="1601.06,-142.28 1608.47,-134.7 1597.95,-136.01 1601.06,-142.28"/>
</a>
</g>
</g>
<!-- Node29&#45;&gt;Node15 -->
<g id="edge36_Node000029_Node000015" class="edge">
<title>Node29&#45;&gt;Node15</title>
<g id="a_edge36_Node000029_Node000015"><a xlink:title=" ">
<path fill="none" stroke="#63b8ff" d="M1654.82,-115.36C1660.82,-113.57 1667.11,-111.72 1673,-110 1714.35,-97.94 1761.98,-84.41 1793.62,-75.47"/>
<polygon fill="#63b8ff" stroke="#63b8ff" points="1794.63,-78.82 1803.3,-72.73 1792.73,-72.08 1794.63,-78.82"/>
</a>
</g>
</g>
<!-- Node30 -->
<g id="Node000030" class="node">
<title>Node30</title>
<g id="a_Node000030"><a xlink:title=" ">
<polygon fill="#e0e0e0" stroke="#999999" points="1698,-74 1646,-74 1646,-55 1698,-55 1698,-74"/>
<text text-anchor="middle" x="1672" y="-62" font-family="Helvetica,sans-Serif" font-size="10.00">cassert</text>
</a>
</g>
</g>
<!-- Node29&#45;&gt;Node30 -->
<g id="edge33_Node000029_Node000030" class="edge">
<title>Node29&#45;&gt;Node30</title>
<g id="a_edge33_Node000029_Node000030"><a xlink:title=" ">
<path fill="none" stroke="#63b8ff" d="M1632.79,-115.37C1639.65,-106.64 1650.43,-92.93 1658.95,-82.09"/>
<polygon fill="#63b8ff" stroke="#63b8ff" points="1661.75,-84.19 1665.18,-74.17 1656.25,-79.86 1661.75,-84.19"/>
</a>
</g>
</g>
<!-- Node31 -->
<g id="Node000031" class="node">
<title>Node31</title>
<g id="a_Node000031"><a xlink:title=" ">
<polygon fill="#e0e0e0" stroke="#999999" points="1785.5,-74 1716.5,-74 1716.5,-55 1785.5,-55 1785.5,-74"/>
<text text-anchor="middle" x="1751" y="-62" font-family="Helvetica,sans-Serif" font-size="10.00">type_traits</text>
</a>
</g>
</g>
<!-- Node29&#45;&gt;Node31 -->
<g id="edge34_Node000029_Node000031" class="edge">
<title>Node29&#45;&gt;Node31</title>
<g id="a_edge34_Node000029_Node000031"><a xlink:title=" ">
<path fill="none" stroke="#63b8ff" d="M1644.18,-115.49C1665.01,-105.75 1699.37,-89.66 1723.48,-78.38"/>
<polygon fill="#63b8ff" stroke="#63b8ff" points="1725.23,-81.43 1732.8,-74.02 1722.26,-75.09 1725.23,-81.43"/>
</a>
</g>
</g>
<!-- Node32 -->
<g id="Node000032" class="node">
<title>Node32</title>
<g id="a_Node000032"><a xlink:title=" ">
<polygon fill="#e0e0e0" stroke="#999999" points="1549.5,-74 1504.5,-74 1504.5,-55 1549.5,-55 1549.5,-74"/>
<text text-anchor="middle" x="1527" y="-62" font-family="Helvetica,sans-Serif" font-size="10.00">utility</text>
</a>
</g>
</g>
<!-- Node29&#45;&gt;Node32 -->
<g id="edge35_Node000029_Node000032" class="edge">
<title>Node29&#45;&gt;Node32</title>
<g id="a_edge35_Node000029_Node000032"><a xlink:title=" ">
<path fill="none" stroke="#63b8ff" d="M1611.39,-115.37C1595.31,-105.86 1569.22,-90.45 1550.3,-79.27"/>
<polygon fill="#63b8ff" stroke="#63b8ff" points="1552.06,-76.24 1541.67,-74.17 1548.5,-82.27 1552.06,-76.24"/>
</a>
</g>
</g>
<!-- Node33 -->
<g id="Node000033" class="node">
<title>Node33</title>
<g id="a_Node000033"><a xlink:href="error_8hpp.html" target="_top" xlink:title=" ">
<polygon fill="white" stroke="#666666" points="1628,-74 1568,-74 1568,-55 1628,-55 1628,-74"/>
<text text-anchor="middle" x="1598" y="-62" font-family="Helvetica,sans-Serif" font-size="10.00">error.hpp</text>
</a>
</g>
</g>
<!-- Node29&#45;&gt;Node33 -->
<g id="edge37_Node000029_Node000033" class="edge">
<title>Node29&#45;&gt;Node33</title>
<g id="a_edge37_Node000029_Node000033"><a xlink:title=" ">
<path fill="none" stroke="#63b8ff" d="M1621.87,-115.37C1617.86,-106.99 1611.65,-94.01 1606.56,-83.39"/>
<polygon fill="#63b8ff" stroke="#63b8ff" points="1609.62,-81.68 1602.15,-74.17 1603.31,-84.7 1609.62,-81.68"/>
</a>
</g>
</g>
<!-- Node33&#45;&gt;Node22 -->
<g id="edge38_Node000033_Node000022" class="edge">
<title>Node33&#45;&gt;Node22</title>
<g id="a_edge38_Node000033_Node000022"><a xlink:title=" ">
<path fill="none" stroke="#63b8ff" d="M1588.2,-54.98C1579.18,-47.15 1565.59,-35.34 1554.68,-25.86"/>
<polygon fill="#63b8ff" stroke="#63b8ff" points="1556.82,-23.09 1546.98,-19.17 1552.23,-28.37 1556.82,-23.09"/>
</a>
</g>
</g>
<!-- Node34&#45;&gt;Node11 -->
<g id="edge42_Node000034_Node000011" class="edge">
<title>Node34&#45;&gt;Node11</title>
<g id="a_edge42_Node000034_Node000011"><a xlink:title=" ">
<path fill="none" stroke="#63b8ff" d="M1712.27,-247.37C1725.08,-238.36 1745.61,-223.92 1762.49,-212.05"/>
<polygon fill="#63b8ff" stroke="#63b8ff" points="1764.76,-214.73 1770.93,-206.12 1760.74,-209.01 1764.76,-214.73"/>
</a>
</g>
</g>
<!-- Node34&#45;&gt;Node22 -->
<g id="edge43_Node000034_Node000022" class="edge">
<title>Node34&#45;&gt;Node22</title>
<g id="a_edge43_Node000034_Node000022"><a xlink:title=" ">
<path fill="none" stroke="#63b8ff" d="M1731.41,-247.46C1777.88,-234.67 1859.95,-211.47 1864,-206 1903.94,-152.07 1908.14,-105.55 1864,-55 1825.93,-11.4 1644.23,-8.9 1569.36,-9.79"/>
<polygon fill="#63b8ff" stroke="#63b8ff" points="1569.07,-6.29 1559.12,-9.94 1569.17,-13.29 1569.07,-6.29"/>
</a>
</g>
</g>
<!-- Node34&#45;&gt;Node23 -->
<g id="edge44_Node000034_Node000023" class="edge">
<title>Node34&#45;&gt;Node23</title>
<g id="a_edge44_Node000034_Node000023"><a xlink:title=" ">
<path fill="none" stroke="#63b8ff" d="M1695.01,-247.37C1689.47,-237.78 1680.37,-222.05 1673.29,-209.8"/>
<polygon fill="#63b8ff" stroke="#63b8ff" points="1676.18,-207.81 1668.15,-200.91 1670.12,-211.31 1676.18,-207.81"/>
</a>
</g>
</g>
<!-- Node35 -->
<g id="Node000035" class="node">
<title>Node35</title>
<g id="a_Node000035"><a xlink:title=" ">
<polygon fill="#e0e0e0" stroke="#999999" points="2057,-200.5 1911,-200.5 1911,-181.5 2057,-181.5 2057,-200.5"/>
<text text-anchor="middle" x="1984" y="-188.5" font-family="Helvetica,sans-Serif" font-size="10.00">boost/beast/http/fields.hpp</text>
</a>
</g>
</g>
<!-- Node34&#45;&gt;Node35 -->
<g id="edge40_Node000034_Node000035" class="edge">
<title>Node34&#45;&gt;Node35</title>
<g id="a_edge40_Node000034_Node000035"><a xlink:title=" ">
<path fill="none" stroke="#63b8ff" d="M1732.82,-247.45C1740.11,-245.61 1747.81,-243.7 1755,-242 1816.06,-227.57 1886.64,-212.38 1933.12,-202.59"/>
<polygon fill="#63b8ff" stroke="#63b8ff" points="1933.88,-206 1942.95,-200.52 1932.44,-199.15 1933.88,-206"/>
</a>
</g>
</g>
<!-- Node36 -->
<g id="Node000036" class="node">
<title>Node36</title>
<g id="a_Node000036"><a xlink:title=" ">
<polygon fill="#e0e0e0" stroke="#999999" points="2239,-200.5 2075,-200.5 2075,-181.5 2239,-181.5 2239,-200.5"/>
<text text-anchor="middle" x="2157" y="-188.5" font-family="Helvetica,sans-Serif" font-size="10.00">boost/beast/http/message.hpp</text>
</a>
</g>
</g>
<!-- Node34&#45;&gt;Node36 -->
<g id="edge41_Node000034_Node000036" class="edge">
<title>Node34&#45;&gt;Node36</title>
<g id="a_edge41_Node000034_Node000036"><a xlink:title=" ">
<path fill="none" stroke="#63b8ff" d="M1730.39,-247.49C1738.35,-245.47 1746.96,-243.48 1755,-242 1891.84,-216.78 1928.1,-224.58 2066,-206 2074.96,-204.79 2084.4,-203.44 2093.67,-202.05"/>
<polygon fill="#63b8ff" stroke="#63b8ff" points="2094.27,-205.5 2103.64,-200.55 2093.23,-198.58 2094.27,-205.5"/>
</a>
</g>
</g>
</g>
</svg>

<g id="navigator" transform="translate(0 0)" fill="#404254">
  <rect fill="#f2f5e9" fill-opacity="0.5" stroke="#606060" stroke-width=".5" x="0" y="0" width="60" height="60"/>
  <use id="zoomplus" xlink:href="#zoomPlus" x="17" y="9" onmousedown="handleZoom(evt,'in')"/>
  <use id="zoomminus" xlink:href="#zoomMin" x="42" y="9" onmousedown="handleZoom(evt,'out')"/>
  <use id="reset" xlink:href="#resetDef" x="30" y="36" onmousedown="handleReset()"/>
   <use id="arrowup" xlink:href="#arrowUp" x="0" y="0" onmousedown="handlePan(0,-1)"/>
  <use id="arrowright" xlink:href="#arrowRight" x="0" y="0" onmousedown="handlePan(1,0)"/>
  <use id="arrowdown" xlink:href="#arrowDown" x="0" y="0" onmousedown="handlePan(0,1)"/>
  <use id="arrowleft" xlink:href="#arrowLeft" x="0" y="0" onmousedown="handlePan(-1,0)"/>
</g>
<svg viewBox="0 0 15 15" width="100%" height="30px" preserveAspectRatio="xMaxYMin meet">
 <g id="arrow_out" transform="scale(0.3 0.3)">
  <a xlink:href="connection_8hpp__incl_org.svg" target="_base">
   <rect id="button" ry="5" rx="5" y="6" x="6" height="38" width="38"
        fill="#f2f5e9" fill-opacity="0.5" stroke="#606060" stroke-width="1.0"/>
   <path id="arrow"
     d="M 11.500037,31.436501 C 11.940474,20.09759 22.043105,11.32322 32.158766,21.979434 L 37.068811,17.246167 C 37.068811,17.246167 37.088388,32 37.088388,32 L 22.160133,31.978069 C 22.160133,31.978069 26.997745,27.140456 26.997745,27.140456 C 18.528582,18.264221 13.291696,25.230495 11.500037,31.436501 z"
     style="fill:#404040;"/>
  </a>
 </g>
</svg>

<style type='text/css'>
<![CDATA[
[data-mouse-over-selected='false'] { opacity: 0.7; }
[data-mouse-over-selected='true']  { opacity: 1.0; }
]]>
</style>
<script type="application/ecmascript"><![CDATA[
document.addEventListener('DOMContentLoaded', (event) => {
  highlightEdges();
  highlightAdjacentNodes();
});
]]></script>
</svg>
