<?xml version="1.0" encoding="UTF-8" standalone="no"?>
<!DOCTYPE svg PUBLIC "-//W3C//DTD SVG 1.1//EN"
 "http://www.w3.org/Graphics/SVG/1.1/DTD/svg11.dtd">
<!-- Generated by graphviz version 2.43.0 (0)
 -->
<!-- Title: include/rest_cpp/endpoint.hpp Pages: 1 -->
<!--zoomable 335 -->

<svg id="main" version="1.1" xmlns="http://www.w3.org/2000/svg" xmlns:xlink="http://www.w3.org/1999/xlink" xml:space="preserve" onload="init(evt)">
<style type="text/css"><![CDATA[
.node, .edge {opacity: 0.7;}
.node.selected, .edge.selected {opacity: 1;}
.edge:hover path { stroke: red; }
.edge:hover polygon { stroke: red; fill: red; }
]]></style>

<defs>
  <circle id="rim" cx="0" cy="0" r="7"/>
  <circle id="rim2" cx="0" cy="0" r="3.5"/>
  <g id="zoomPlus">
    <use xlink:href="#rim" fill="#404040"><set attributeName="fill" to="#808080" begin="zoomplus.mouseover" end="zoomplus.mouseout"/></use>
    <path d="M-4,0h8M0,-4v8" fill="none" stroke="white" stroke-width="1.5" pointer-events="none"/>
  </g>
  <g id="zoomMin">
    <use xlink:href="#rim" fill="#404040"><set attributeName="fill" to="#808080" begin="zoomminus.mouseover" end="zoomminus.mouseout"/></use>
    <path d="M-4,0h8" fill="none" stroke="white" stroke-width="1.5" pointer-events="none"/>
  </g>
  <g id="arrowUp" transform="translate(30 24)">
    <use xlink:href="#rim"/>
    <path pointer-events="none" fill="none" stroke="white" stroke-width="1.5" d="M0,-3.0v7 M-2.5,-0.5L0,-3.0L2.5,-0.5"/>
  </g>
  <g id="arrowRight" transform="rotate(90) translate(36 -43)">
    <use xlink:href="#rim"/>
    <path pointer-events="none" fill="none" stroke="white" stroke-width="1.5" d="M0,-3.0v7 M-2.5,-0.5L0,-3.0L2.5,-0.5"/>
  </g>
  <g id="arrowDown" transform="rotate(180) translate(-30 -48)">
    <use xlink:href="#rim"/>
    <path pointer-events="none" fill="none" stroke="white" stroke-width="1.5" d="M0,-3.0v7 M-2.5,-0.5L0,-3.0L2.5,-0.5"/>
  </g>
  <g id="arrowLeft" transform="rotate(270) translate(-36 17)">
    <use xlink:href="#rim"/>
    <path pointer-events="none" fill="none" stroke="white" stroke-width="1.5" d="M0,-3.0v7 M-2.5,-0.5L0,-3.0L2.5,-0.5"/>
  </g>
  <g id="resetDef">
    <use xlink:href="#rim2" fill="#404040"><set attributeName="fill" to="#808080" begin="reset.mouseover" end="reset.mouseout"/></use>
  </g>
</defs>
<script type="application/ecmascript">
var viewWidth = 603;
var viewHeight = 335;
var sectionId = 'dynsection-1';
</script>
<script type="application/ecmascript" xlink:href="svg.min.js"/>
<svg id="graph" class="graph">
<g id="viewport">
<title>include/rest_cpp/endpoint.hpp</title>
<!-- Node1 -->
<g id="Node000001" class="node">
<title>Node1</title>
<g id="a_Node000001"><a xlink:title=" ">
<polygon fill="#999999" stroke="#666666" points="240.5,-327 77.5,-327 77.5,-308 240.5,-308 240.5,-327"/>
<text text-anchor="middle" x="159" y="-315" font-family="Helvetica,sans-Serif" font-size="10.00">include/rest_cpp/endpoint.hpp</text>
</a>
</g>
</g>
<!-- Node2 -->
<g id="Node000002" class="node">
<title>Node2</title>
<g id="a_Node000002"><a xlink:href="connection_8hpp.html" target="_top" xlink:title=" ">
<polygon fill="white" stroke="#666666" points="236,-217 84,-217 84,-187 236,-187 236,-217"/>
<text text-anchor="start" x="92" y="-205" font-family="Helvetica,sans-Serif" font-size="10.00">include/rest_cpp/connection</text>
<text text-anchor="middle" x="160" y="-194" font-family="Helvetica,sans-Serif" font-size="10.00">/connection.hpp</text>
</a>
</g>
</g>
<!-- Node1&#45;&gt;Node2 -->
<g id="edge1_Node000001_Node000002" class="edge">
<title>Node1&#45;&gt;Node2</title>
<g id="a_edge1_Node000001_Node000002"><a xlink:title=" ">
<path fill="none" stroke="#63b8ff" d="M159.16,-297.96C159.36,-275.34 159.7,-237.61 159.88,-217.18"/>
<polygon fill="#63b8ff" stroke="#63b8ff" points="155.66,-297.94 159.08,-307.97 162.66,-298 155.66,-297.94"/>
</a>
</g>
</g>
<!-- Node4 -->
<g id="Node000004" class="node">
<title>Node4</title>
<g id="a_Node000004"><a xlink:href="client_8cpp.html" target="_top" xlink:title=" ">
<polygon fill="white" stroke="#666666" points="180.5,-79.5 99.5,-79.5 99.5,-60.5 180.5,-60.5 180.5,-79.5"/>
<text text-anchor="middle" x="140" y="-67.5" font-family="Helvetica,sans-Serif" font-size="10.00">src/client.cpp</text>
</a>
</g>
</g>
<!-- Node1&#45;&gt;Node4 -->
<g id="edge18_Node000001_Node000004" class="edge">
<title>Node1&#45;&gt;Node4</title>
<g id="a_edge18_Node000001_Node000004"><a xlink:title=" ">
<path fill="none" stroke="#63b8ff" d="M142.01,-300.94C123,-282.63 92.57,-250.45 75,-217 60.86,-190.08 61.04,-181.14 57,-151 55.23,-137.78 50.44,-132.61 57,-121 68.75,-100.2 93,-87.09 112.27,-79.54"/>
<polygon fill="#63b8ff" stroke="#63b8ff" points="139.71,-303.59 149.39,-307.91 144.52,-298.5 139.71,-303.59"/>
</a>
</g>
</g>
<!-- Node5 -->
<g id="Node000005" class="node">
<title>Node5</title>
<g id="a_Node000005"><a xlink:href="connection__pool_8hpp.html" target="_top" xlink:title=" ">
<polygon fill="white" stroke="#666666" points="580,-151 428,-151 428,-121 580,-121 580,-151"/>
<text text-anchor="start" x="436" y="-139" font-family="Helvetica,sans-Serif" font-size="10.00">include/rest_cpp/connection</text>
<text text-anchor="middle" x="504" y="-128" font-family="Helvetica,sans-Serif" font-size="10.00">/connection_pool.hpp</text>
</a>
</g>
</g>
<!-- Node1&#45;&gt;Node5 -->
<g id="edge9_Node000001_Node000005" class="edge">
<title>Node1&#45;&gt;Node5</title>
<g id="a_edge9_Node000001_Node000005"><a xlink:title=" ">
<path fill="none" stroke="#63b8ff" d="M245.9,-306.16C280.59,-299.63 320.04,-289.06 353,-272 413.59,-240.65 469.06,-179.29 492.38,-151.4"/>
<polygon fill="#63b8ff" stroke="#63b8ff" points="245,-302.77 235.77,-307.98 246.23,-309.66 245,-302.77"/>
</a>
</g>
</g>
<!-- Node8 -->
<g id="Node000008" class="node">
<title>Node8</title>
<g id="a_Node000008"><a xlink:href="async__client_8cpp.html" target="_top" xlink:title=" ">
<polygon fill="white" stroke="#666666" points="389.5,-19 274.5,-19 274.5,0 389.5,0 389.5,-19"/>
<text text-anchor="middle" x="332" y="-7" font-family="Helvetica,sans-Serif" font-size="10.00">src/async_client.cpp</text>
</a>
</g>
</g>
<!-- Node1&#45;&gt;Node8 -->
<g id="edge17_Node000001_Node000008" class="edge">
<title>Node1&#45;&gt;Node8</title>
<g id="a_edge17_Node000001_Node000008"><a xlink:title=" ">
<path fill="none" stroke="#63b8ff" d="M113.22,-304.95C66.25,-290.03 0,-259.04 0,-203 0,-203 0,-203 0,-135 0,-81.48 41.91,-78.48 90,-55 148.54,-26.42 223.21,-16.1 274.02,-12.42"/>
<polygon fill="#63b8ff" stroke="#63b8ff" points="112.33,-308.34 122.92,-307.9 114.37,-301.64 112.33,-308.34"/>
</a>
</g>
</g>
<!-- Node9 -->
<g id="Node000009" class="node">
<title>Node9</title>
<g id="a_Node000009"><a xlink:href="request_8hpp.html" target="_top" xlink:title=" ">
<polygon fill="white" stroke="#666666" points="344.5,-272 187.5,-272 187.5,-253 344.5,-253 344.5,-272"/>
<text text-anchor="middle" x="266" y="-260" font-family="Helvetica,sans-Serif" font-size="10.00">include/rest_cpp/request.hpp</text>
</a>
</g>
</g>
<!-- Node1&#45;&gt;Node9 -->
<g id="edge10_Node000001_Node000009" class="edge">
<title>Node1&#45;&gt;Node9</title>
<g id="a_edge10_Node000001_Node000009"><a xlink:title=" ">
<path fill="none" stroke="#63b8ff" d="M185.24,-303.5C204.93,-293.75 231.32,-280.68 248.5,-272.17"/>
<polygon fill="#63b8ff" stroke="#63b8ff" points="183.6,-300.41 176.19,-307.98 186.71,-306.68 183.6,-300.41"/>
</a>
</g>
</g>
<!-- Node3 -->
<g id="Node000003" class="node">
<title>Node3</title>
<g id="a_Node000003"><a xlink:href="client_8hpp.html" target="_top" xlink:title=" ">
<polygon fill="white" stroke="#666666" points="213.5,-145.5 66.5,-145.5 66.5,-126.5 213.5,-126.5 213.5,-145.5"/>
<text text-anchor="middle" x="140" y="-133.5" font-family="Helvetica,sans-Serif" font-size="10.00">include/rest_cpp/client.hpp</text>
</a>
</g>
</g>
<!-- Node2&#45;&gt;Node3 -->
<g id="edge2_Node000002_Node000003" class="edge">
<title>Node2&#45;&gt;Node3</title>
<g id="a_edge2_Node000002_Node000003"><a xlink:title=" ">
<path fill="none" stroke="#63b8ff" d="M152.48,-176.94C149.08,-166.06 145.27,-153.86 142.76,-145.84"/>
<polygon fill="#63b8ff" stroke="#63b8ff" points="149.24,-178.3 155.56,-186.8 155.92,-176.21 149.24,-178.3"/>
</a>
</g>
</g>
<!-- Node2&#45;&gt;Node5 -->
<g id="edge4_Node000002_Node000005" class="edge">
<title>Node2&#45;&gt;Node5</title>
<g id="a_edge4_Node000002_Node000005"><a xlink:title=" ">
<path fill="none" stroke="#63b8ff" d="M245.43,-185.11C301.67,-174.64 374.62,-161.07 428.68,-151.01"/>
<polygon fill="#63b8ff" stroke="#63b8ff" points="244.68,-181.68 235.49,-186.95 245.96,-188.57 244.68,-181.68"/>
</a>
</g>
</g>
<!-- Node3&#45;&gt;Node4 -->
<g id="edge3_Node000003_Node000004" class="edge">
<title>Node3&#45;&gt;Node4</title>
<g id="a_edge3_Node000003_Node000004"><a xlink:title=" ">
<path fill="none" stroke="#63b8ff" d="M140,-116.08C140,-104.13 140,-89.22 140,-79.91"/>
<polygon fill="#63b8ff" stroke="#63b8ff" points="136.5,-116.37 140,-126.37 143.5,-116.37 136.5,-116.37"/>
</a>
</g>
</g>
<!-- Node6 -->
<g id="Node000006" class="node">
<title>Node6</title>
<g id="a_Node000006"><a xlink:href="async__client_8hpp.html" target="_top" xlink:title=" ">
<polygon fill="white" stroke="#666666" points="568,-85 440,-85 440,-55 568,-55 568,-85"/>
<text text-anchor="start" x="448" y="-73" font-family="Helvetica,sans-Serif" font-size="10.00">include/rest_cpp/async</text>
<text text-anchor="middle" x="504" y="-62" font-family="Helvetica,sans-Serif" font-size="10.00">_client.hpp</text>
</a>
</g>
</g>
<!-- Node5&#45;&gt;Node6 -->
<g id="edge5_Node000005_Node000006" class="edge">
<title>Node5&#45;&gt;Node6</title>
<g id="a_edge5_Node000005_Node000006"><a xlink:title=" ">
<path fill="none" stroke="#63b8ff" d="M504,-110.54C504,-101.96 504,-92.61 504,-85.16"/>
<polygon fill="#63b8ff" stroke="#63b8ff" points="500.5,-110.8 504,-120.8 507.5,-110.8 500.5,-110.8"/>
</a>
</g>
</g>
<!-- Node5&#45;&gt;Node8 -->
<g id="edge8_Node000005_Node000008" class="edge">
<title>Node5&#45;&gt;Node8</title>
<g id="a_edge8_Node000005_Node000008"><a xlink:title=" ">
<path fill="none" stroke="#63b8ff" d="M474.38,-115.15C461.03,-106.09 445.12,-95.14 431,-85 398.68,-61.79 361.37,-33.22 343.16,-19.16"/>
<polygon fill="#63b8ff" stroke="#63b8ff" points="472.5,-118.1 482.74,-120.81 476.42,-112.3 472.5,-118.1"/>
</a>
</g>
</g>
<!-- Node7 -->
<g id="Node000007" class="node">
<title>Node7</title>
<g id="a_Node000007"><a xlink:href="pagination_8hpp.html" target="_top" xlink:title=" ">
<polygon fill="white" stroke="#666666" points="590,-19 418,-19 418,0 590,0 590,-19"/>
<text text-anchor="middle" x="504" y="-7" font-family="Helvetica,sans-Serif" font-size="10.00">include/rest_cpp/pagination.hpp</text>
</a>
</g>
</g>
<!-- Node6&#45;&gt;Node7 -->
<g id="edge6_Node000006_Node000007" class="edge">
<title>Node6&#45;&gt;Node7</title>
<g id="a_edge6_Node000006_Node000007"><a xlink:title=" ">
<path fill="none" stroke="#63b8ff" d="M504,-44.75C504,-35.72 504,-26.03 504,-19.27"/>
<polygon fill="#63b8ff" stroke="#63b8ff" points="500.5,-44.84 504,-54.84 507.5,-44.84 500.5,-44.84"/>
</a>
</g>
</g>
<!-- Node6&#45;&gt;Node8 -->
<g id="edge7_Node000006_Node000008" class="edge">
<title>Node6&#45;&gt;Node8</title>
<g id="a_edge7_Node000006_Node000008"><a xlink:title=" ">
<path fill="none" stroke="#63b8ff" d="M453.25,-51.74C421.61,-40.98 382.28,-27.6 357.15,-19.05"/>
<polygon fill="#63b8ff" stroke="#63b8ff" points="452.21,-55.08 462.8,-54.99 454.46,-48.45 452.21,-55.08"/>
</a>
</g>
</g>
<!-- Node9&#45;&gt;Node2 -->
<g id="edge13_Node000009_Node000002" class="edge">
<title>Node9&#45;&gt;Node2</title>
<g id="a_edge13_Node000009_Node000002"><a xlink:title=" ">
<path fill="none" stroke="#63b8ff" d="M241.2,-247.81C224.47,-238.58 202.46,-226.43 185.58,-217.11"/>
<polygon fill="#63b8ff" stroke="#63b8ff" points="239.91,-251.1 250.36,-252.87 243.3,-244.97 239.91,-251.1"/>
</a>
</g>
</g>
<!-- Node9&#45;&gt;Node3 -->
<g id="edge12_Node000009_Node000003" class="edge">
<title>Node9&#45;&gt;Node3</title>
<g id="a_edge12_Node000009_Node000003"><a xlink:title=" ">
<path fill="none" stroke="#63b8ff" d="M264.96,-242.58C263.15,-226.18 258.23,-202.69 245,-187 227.1,-165.78 198.14,-152.93 175.16,-145.58"/>
<polygon fill="#63b8ff" stroke="#63b8ff" points="261.48,-242.93 265.79,-252.61 268.46,-242.36 261.48,-242.93"/>
</a>
</g>
</g>
<!-- Node9&#45;&gt;Node6 -->
<g id="edge11_Node000009_Node000006" class="edge">
<title>Node9&#45;&gt;Node6</title>
<g id="a_edge11_Node000009_Node000006"><a xlink:title=" ">
<path fill="none" stroke="#63b8ff" d="M354.64,-258.12C430.69,-249.95 536.14,-224.95 589,-151 596.75,-140.15 595.62,-132.57 589,-121 579.56,-104.5 562.33,-92.91 545.84,-85.07"/>
<polygon fill="#63b8ff" stroke="#63b8ff" points="354.18,-254.64 344.58,-259.12 354.87,-261.61 354.18,-254.64"/>
</a>
</g>
</g>
<!-- Node10 -->
<g id="Node000010" class="node">
<title>Node10</title>
<g id="a_Node000010"><a xlink:href="middleware_8hpp.html" target="_top" xlink:title=" ">
<polygon fill="white" stroke="#666666" points="410,-145.5 232,-145.5 232,-126.5 410,-126.5 410,-145.5"/>
<text text-anchor="middle" x="321" y="-133.5" font-family="Helvetica,sans-Serif" font-size="10.00">include/rest_cpp/middleware.hpp</text>
</a>
</g>
</g>
<!-- Node9&#45;&gt;Node10 -->
<g id="edge14_Node000009_Node000010" class="edge">
<title>Node9&#45;&gt;Node10</title>
<g id="a_edge14_Node000009_Node000010"><a xlink:title=" ">
<path fill="none" stroke="#63b8ff" d="M273.97,-243.46C285.99,-216.26 308.3,-165.76 317.19,-145.62"/>
<polygon fill="#63b8ff" stroke="#63b8ff" points="270.62,-242.38 269.78,-252.94 277.02,-245.21 270.62,-242.38"/>
</a>
</g>
</g>
<!-- Node10&#45;&gt;Node4 -->
<g id="edge16_Node000010_Node000004" class="edge">
<title>Node10&#45;&gt;Node4</title>
<g id="a_edge16_Node000010_Node000004"><a xlink:title=" ">
<path fill="none" stroke="#63b8ff" d="M287.07,-123C251.32,-110.36 195.93,-90.78 164.31,-79.6"/>
<polygon fill="#63b8ff" stroke="#63b8ff" points="285.99,-126.33 296.59,-126.37 288.33,-119.74 285.99,-126.33"/>
</a>
</g>
</g>
<!-- Node10&#45;&gt;Node8 -->
<g id="edge15_Node000010_Node000008" class="edge">
<title>Node10&#45;&gt;Node8</title>
<g id="a_edge15_Node000010_Node000008"><a xlink:title=" ">
<path fill="none" stroke="#63b8ff" d="M322.66,-116.24C325.08,-88.86 329.48,-39.08 331.24,-19.12"/>
<polygon fill="#63b8ff" stroke="#63b8ff" points="319.15,-116.17 321.76,-126.44 326.12,-116.79 319.15,-116.17"/>
</a>
</g>
</g>
</g>
</svg>

<g id="navigator" transform="translate(0 0)" fill="#404254">
  <rect fill="#f2f5e9" fill-opacity="0.5" stroke="#606060" stroke-width=".5" x="0" y="0" width="60" height="60"/>
  <use id="zoomplus" xlink:href="#zoomPlus" x="17" y="9" onmousedown="handleZoom(evt,'in')"/>
  <use id="zoomminus" xlink:href="#zoomMin" x="42" y="9" onmousedown="handleZoom(evt,'out')"/>
  <use id="reset" xlink:href="#resetDef" x="30" y="36" onmousedown="handleReset()"/>
   <use id="arrowup" xlink:href="#arrowUp" x="0" y="0" onmousedown="handlePan(0,-1)"/>
  <use id="arrowright" xlink:href="#arrowRight" x="0" y="0" onmousedown="handlePan(1,0)"/>
  <use id="arrowdown" xlink:href="#arrowDown" x="0" y="0" onmousedown="handlePan(0,1)"/>
  <use id="arrowleft" xlink:href="#arrowLeft" x="0" y="0" onmousedown="handlePan(-1,0)"/>
</g>
<svg viewBox="0 0 15 15" width="100%" height="30px" preserveAspectRatio="xMaxYMin meet">
 <g id="arrow_out" transform="scale(0.3 0.3)">
  <a xlink:href="endpoint_8hpp__dep__incl_org.svg" target="_base">
   <rect id="button" ry="5" rx="5" y="6" x="6" height="38" width="38"
        fill="#f2f5e9" fill-opacity="0.5" stroke="#606060" stroke-width="1.0"/>
   <path id="arrow"
     d="M 11.500037,31.436501 C 11.940474,20.09759 22.043105,11.32322 32.158766,21.979434 L 37.068811,17.246167 C 37.068811,17.246167 37.088388,32 37.088388,32 L 22.160133,31.978069 C 22.160133,31.978069 26.997745,27.140456 26.997745,27.140456 C 18.528582,18.264221 13.291696,25.230495 11.500037,31.436501 z"
     style="fill:#404040;"/>
  </a>
 </g>
</svg>

<style type='text/css'>
<![CDATA[
[data-mouse-over-selected='false'] { opacity: 0.7; }
[data-mouse-over-selected='true']  { opacity: 1.0; }
]]>
</style>
<script type="application/ecmascript"><![CDATA[
document.addEventListener('DOMContentLoaded', (event) => {
  highlightEdges();
  highlightAdjacentNodes();
});
]]></script>
</svg>
