<?xml version="1.0" encoding="UTF-8" standalone="no"?>
<!DOCTYPE svg PUBLIC "-//W3C//DTD SVG 1.1//EN"
 "http://www.w3.org/Graphics/SVG/1.1/DTD/svg11.dtd">
<!-- Generated by graphviz version 2.43.0 (0)
 -->
<!-- Title: include/rest_cpp/endpoint.hpp Pages: 1 -->
<svg width="572pt" height="93pt"
 viewBox="0.00 0.00 572.00 93.00" xmlns="http://www.w3.org/2000/svg" xmlns:xlink="http://www.w3.org/1999/xlink">
<g id="graph0" class="graph" transform="scale(1 1) rotate(0) translate(4 89)">
<title>include/rest_cpp/endpoint.hpp</title>
<!-- Node1 -->
<g id="Node000001" class="node">
<title>Node1</title>
<g id="a_Node000001"><a xlink:title=" ">
<polygon fill="#999999" stroke="#666666" points="335,-85 172,-85 172,-66 335,-66 335,-85"/>
<text text-anchor="middle" x="253.5" y="-73" font-family="Helvetica,sans-Serif" font-size="10.00">include/rest_cpp/endpoint.hpp</text>
</a>
</g>
</g>
<!-- Node2 -->
<g id="Node000002" class="node">
<title>Node2</title>
<g id="a_Node000002"><a xlink:title=" ">
<polygon fill="#e0e0e0" stroke="#999999" points="79,-24.5 0,-24.5 0,-5.5 79,-5.5 79,-24.5"/>
<text text-anchor="middle" x="39.5" y="-12.5" font-family="Helvetica,sans-Serif" font-size="10.00">openssl/err.h</text>
</a>
</g>
</g>
<!-- Node1&#45;&gt;Node2 -->
<g id="edge1_Node000001_Node000002" class="edge">
<title>Node1&#45;&gt;Node2</title>
<g id="a_edge1_Node000001_Node000002"><a xlink:title=" ">
<path fill="none" stroke="#63b8ff" d="M221.21,-65.94C187.92,-57.09 134.53,-42.78 88.5,-30 85.35,-29.12 82.08,-28.21 78.8,-27.28"/>
<polygon fill="#63b8ff" stroke="#63b8ff" points="79.59,-23.87 69.02,-24.51 77.68,-30.61 79.59,-23.87"/>
</a>
</g>
</g>
<!-- Node3 -->
<g id="Node000003" class="node">
<title>Node3</title>
<g id="a_Node000003"><a xlink:title=" ">
<polygon fill="#e0e0e0" stroke="#999999" points="177.5,-24.5 97.5,-24.5 97.5,-5.5 177.5,-5.5 177.5,-24.5"/>
<text text-anchor="middle" x="137.5" y="-12.5" font-family="Helvetica,sans-Serif" font-size="10.00">openssl/ssl.h</text>
</a>
</g>
</g>
<!-- Node1&#45;&gt;Node3 -->
<g id="edge2_Node000001_Node000003" class="edge">
<title>Node1&#45;&gt;Node3</title>
<g id="a_edge2_Node000001_Node000003"><a xlink:title=" ">
<path fill="none" stroke="#63b8ff" d="M236.38,-65.87C217.28,-56.23 186.13,-40.53 163.9,-29.31"/>
<polygon fill="#63b8ff" stroke="#63b8ff" points="165.19,-26.05 154.69,-24.67 162.04,-32.3 165.19,-26.05"/>
</a>
</g>
</g>
<!-- Node4 -->
<g id="Node000004" class="node">
<title>Node4</title>
<g id="a_Node000004"><a xlink:title=" ">
<polygon fill="#e0e0e0" stroke="#999999" points="311.5,-30 195.5,-30 195.5,0 311.5,0 311.5,-30"/>
<text text-anchor="start" x="203.5" y="-18" font-family="Helvetica,sans-Serif" font-size="10.00">boost/beast/core/tcp</text>
<text text-anchor="middle" x="253.5" y="-7" font-family="Helvetica,sans-Serif" font-size="10.00">_stream.hpp</text>
</a>
</g>
</g>
<!-- Node1&#45;&gt;Node4 -->
<g id="edge3_Node000001_Node000004" class="edge">
<title>Node1&#45;&gt;Node4</title>
<g id="a_edge3_Node000001_Node000004"><a xlink:title=" ">
<path fill="none" stroke="#63b8ff" d="M253.5,-65.87C253.5,-59.11 253.5,-49.35 253.5,-40.26"/>
<polygon fill="#63b8ff" stroke="#63b8ff" points="257,-40.11 253.5,-30.11 250,-40.11 257,-40.11"/>
</a>
</g>
</g>
<!-- Node5 -->
<g id="Node000005" class="node">
<title>Node5</title>
<g id="a_Node000005"><a xlink:title=" ">
<polygon fill="#e0e0e0" stroke="#999999" points="437,-30 330,-30 330,0 437,0 437,-30"/>
<text text-anchor="start" x="338" y="-18" font-family="Helvetica,sans-Serif" font-size="10.00">boost/beast/ssl/ssl</text>
<text text-anchor="middle" x="383.5" y="-7" font-family="Helvetica,sans-Serif" font-size="10.00">_stream.hpp</text>
</a>
</g>
</g>
<!-- Node1&#45;&gt;Node5 -->
<g id="edge4_Node000001_Node000005" class="edge">
<title>Node1&#45;&gt;Node5</title>
<g id="a_edge4_Node000001_Node000005"><a xlink:title=" ">
<path fill="none" stroke="#63b8ff" d="M272.4,-65.99C290.79,-57.72 319.3,-44.89 342.84,-34.3"/>
<polygon fill="#63b8ff" stroke="#63b8ff" points="344.56,-37.36 352.25,-30.06 341.69,-30.98 344.56,-37.36"/>
</a>
</g>
</g>
<!-- Node6 -->
<g id="Node000006" class="node">
<title>Node6</title>
<g id="a_Node000006"><a xlink:title=" ">
<polygon fill="#e0e0e0" stroke="#999999" points="564,-30 455,-30 455,0 564,0 564,-30"/>
<text text-anchor="start" x="463" y="-18" font-family="Helvetica,sans-Serif" font-size="10.00">boost/system/error</text>
<text text-anchor="middle" x="509.5" y="-7" font-family="Helvetica,sans-Serif" font-size="10.00">_code.hpp</text>
</a>
</g>
</g>
<!-- Node1&#45;&gt;Node6 -->
<g id="edge5_Node000001_Node000006" class="edge">
<title>Node1&#45;&gt;Node6</title>
<g id="a_edge5_Node000001_Node000006"><a xlink:title=" ">
<path fill="none" stroke="#63b8ff" d="M290.72,-65.99C331.07,-56.77 396.21,-41.89 444.94,-30.75"/>
<polygon fill="#63b8ff" stroke="#63b8ff" points="445.79,-34.15 454.76,-28.51 444.23,-27.32 445.79,-34.15"/>
</a>
</g>
</g>
</g>
</svg>
