<?xml version="1.0" encoding="UTF-8" standalone="no"?>
<!DOCTYPE svg PUBLIC "-//W3C//DTD SVG 1.1//EN"
 "http://www.w3.org/Graphics/SVG/1.1/DTD/svg11.dtd">
<!-- Generated by graphviz version 2.43.0 (0)
 -->
<!-- Title: include/rest_cpp/error.hpp Pages: 1 -->
<!--zoomable 445 -->

<svg id="main" version="1.1" xmlns="http://www.w3.org/2000/svg" xmlns:xlink="http://www.w3.org/1999/xlink" xml:space="preserve" onload="init(evt)">
<style type="text/css"><![CDATA[
.node, .edge {opacity: 0.7;}
.node.selected, .edge.selected {opacity: 1;}
.edge:hover path { stroke: red; }
.edge:hover polygon { stroke: red; fill: red; }
]]></style>

<defs>
  <circle id="rim" cx="0" cy="0" r="7"/>
  <circle id="rim2" cx="0" cy="0" r="3.5"/>
  <g id="zoomPlus">
    <use xlink:href="#rim" fill="#404040"><set attributeName="fill" to="#808080" begin="zoomplus.mouseover" end="zoomplus.mouseout"/></use>
    <path d="M-4,0h8M0,-4v8" fill="none" stroke="white" stroke-width="1.5" pointer-events="none"/>
  </g>
  <g id="zoomMin">
    <use xlink:href="#rim" fill="#404040"><set attributeName="fill" to="#808080" begin="zoomminus.mouseover" end="zoomminus.mouseout"/></use>
    <path d="M-4,0h8" fill="none" stroke="white" stroke-width="1.5" pointer-events="none"/>
  </g>
  <g id="arrowUp" transform="translate(30 24)">
    <use xlink:href="#rim"/>
    <path pointer-events="none" fill="none" stroke="white" stroke-width="1.5" d="M0,-3.0v7 M-2.5,-0.5L0,-3.0L2.5,-0.5"/>
  </g>
  <g id="arrowRight" transform="rotate(90) translate(36 -43)">
    <use xlink:href="#rim"/>
    <path pointer-events="none" fill="none" stroke="white" stroke-width="1.5" d="M0,-3.0v7 M-2.5,-0.5L0,-3.0L2.5,-0.5"/>
  </g>
  <g id="arrowDown" transform="rotate(180) translate(-30 -48)">
    <use xlink:href="#rim"/>
    <path pointer-events="none" fill="none" stroke="white" stroke-width="1.5" d="M0,-3.0v7 M-2.5,-0.5L0,-3.0L2.5,-0.5"/>
  </g>
  <g id="arrowLeft" transform="rotate(270) translate(-36 17)">
    <use xlink:href="#rim"/>
    <path pointer-events="none" fill="none" stroke="white" stroke-width="1.5" d="M0,-3.0v7 M-2.5,-0.5L0,-3.0L2.5,-0.5"/>
  </g>
  <g id="resetDef">
    <use xlink:href="#rim2" fill="#404040"><set attributeName="fill" to="#808080" begin="reset.mouseover" end="reset.mouseout"/></use>
  </g>
</defs>
<script type="application/ecmascript">
var viewWidth = 858;
var viewHeight = 445;
var sectionId = 'dynsection-1';
</script>
<script type="application/ecmascript" xlink:href="svg.min.js"/>
<svg id="graph" class="graph">
<g id="viewport">
<title>include/rest_cpp/error.hpp</title>
<!-- Node1 -->
<g id="Node000001" class="node">
<title>Node1</title>
<g id="a_Node000001"><a xlink:title=" ">
<polygon fill="#999999" stroke="#666666" points="282.5,-437 139.5,-437 139.5,-418 282.5,-418 282.5,-437"/>
<text text-anchor="middle" x="211" y="-425" font-family="Helvetica,sans-Serif" font-size="10.00">include/rest_cpp/error.hpp</text>
</a>
</g>
</g>
<!-- Node2 -->
<g id="Node000002" class="node">
<title>Node2</title>
<g id="a_Node000002"><a xlink:href="connection__pool_8hpp.html" target="_top" xlink:title=" ">
<polygon fill="white" stroke="#666666" points="152,-151 0,-151 0,-121 152,-121 152,-151"/>
<text text-anchor="start" x="8" y="-139" font-family="Helvetica,sans-Serif" font-size="10.00">include/rest_cpp/connection</text>
<text text-anchor="middle" x="76" y="-128" font-family="Helvetica,sans-Serif" font-size="10.00">/connection_pool.hpp</text>
</a>
</g>
</g>
<!-- Node1&#45;&gt;Node2 -->
<g id="edge1_Node000001_Node000002" class="edge">
<title>Node1&#45;&gt;Node2</title>
<g id="a_edge1_Node000001_Node000002"><a xlink:title=" ">
<path fill="none" stroke="#63b8ff" d="M175.39,-414.04C137.52,-398.25 83,-367.08 83,-318.5 83,-318.5 83,-318.5 83,-261.5 83,-221.45 79.34,-174.27 77.32,-151.18"/>
<polygon fill="#63b8ff" stroke="#63b8ff" points="174.51,-417.46 185.1,-417.91 177.1,-410.96 174.51,-417.46"/>
</a>
</g>
</g>
<!-- Node6 -->
<g id="Node000006" class="node">
<title>Node6</title>
<g id="a_Node000006"><a xlink:href="result_8hpp.html" target="_top" xlink:title=" ">
<polygon fill="white" stroke="#666666" points="434,-382 286,-382 286,-363 434,-363 434,-382"/>
<text text-anchor="middle" x="360" y="-370" font-family="Helvetica,sans-Serif" font-size="10.00">include/rest_cpp/result.hpp</text>
</a>
</g>
</g>
<!-- Node1&#45;&gt;Node6 -->
<g id="edge6_Node000001_Node000006" class="edge">
<title>Node1&#45;&gt;Node6</title>
<g id="a_edge6_Node000001_Node000006"><a xlink:title=" ">
<path fill="none" stroke="#63b8ff" d="M244.59,-414.55C272.26,-404.71 310.84,-390.98 335.62,-382.17"/>
<polygon fill="#63b8ff" stroke="#63b8ff" points="243.19,-411.34 234.94,-417.98 245.53,-417.93 243.19,-411.34"/>
</a>
</g>
</g>
<!-- Node3 -->
<g id="Node000003" class="node">
<title>Node3</title>
<g id="a_Node000003"><a xlink:href="async__client_8hpp.html" target="_top" xlink:title=" ">
<polygon fill="white" stroke="#666666" points="336,-85 208,-85 208,-55 336,-55 336,-85"/>
<text text-anchor="start" x="216" y="-73" font-family="Helvetica,sans-Serif" font-size="10.00">include/rest_cpp/async</text>
<text text-anchor="middle" x="272" y="-62" font-family="Helvetica,sans-Serif" font-size="10.00">_client.hpp</text>
</a>
</g>
</g>
<!-- Node2&#45;&gt;Node3 -->
<g id="edge2_Node000002_Node000003" class="edge">
<title>Node2&#45;&gt;Node3</title>
<g id="a_edge2_Node000002_Node000003"><a xlink:title=" ">
<path fill="none" stroke="#63b8ff" d="M128.91,-117.72C160.32,-107.47 199.62,-94.63 229.09,-85.01"/>
<polygon fill="#63b8ff" stroke="#63b8ff" points="127.43,-114.52 119.01,-120.95 129.61,-121.18 127.43,-114.52"/>
</a>
</g>
</g>
<!-- Node5 -->
<g id="Node000005" class="node">
<title>Node5</title>
<g id="a_Node000005"><a xlink:href="async__client_8cpp.html" target="_top" xlink:title=" ">
<polygon fill="white" stroke="#666666" points="283.5,-19 168.5,-19 168.5,0 283.5,0 283.5,-19"/>
<text text-anchor="middle" x="226" y="-7" font-family="Helvetica,sans-Serif" font-size="10.00">src/async_client.cpp</text>
</a>
</g>
</g>
<!-- Node2&#45;&gt;Node5 -->
<g id="edge5_Node000002_Node000005" class="edge">
<title>Node2&#45;&gt;Node5</title>
<g id="a_edge5_Node000002_Node000005"><a xlink:title=" ">
<path fill="none" stroke="#63b8ff" d="M98.57,-113.94C116.48,-97.46 142.36,-74.21 166,-55 182.1,-41.91 201.52,-27.8 213.81,-19.06"/>
<polygon fill="#63b8ff" stroke="#63b8ff" points="95.9,-111.63 90.93,-120.99 100.65,-116.78 95.9,-111.63"/>
</a>
</g>
</g>
<!-- Node4 -->
<g id="Node000004" class="node">
<title>Node4</title>
<g id="a_Node000004"><a xlink:href="pagination_8hpp.html" target="_top" xlink:title=" ">
<polygon fill="white" stroke="#666666" points="705,-19 533,-19 533,0 705,0 705,-19"/>
<text text-anchor="middle" x="619" y="-7" font-family="Helvetica,sans-Serif" font-size="10.00">include/rest_cpp/pagination.hpp</text>
</a>
</g>
</g>
<!-- Node3&#45;&gt;Node4 -->
<g id="edge3_Node000003_Node000004" class="edge">
<title>Node3&#45;&gt;Node4</title>
<g id="a_edge3_Node000003_Node000004"><a xlink:title=" ">
<path fill="none" stroke="#63b8ff" d="M346.13,-56.5C413.17,-45.2 510.08,-28.86 568.55,-19"/>
<polygon fill="#63b8ff" stroke="#63b8ff" points="345.33,-53.09 336.05,-58.2 346.49,-59.99 345.33,-53.09"/>
</a>
</g>
</g>
<!-- Node3&#45;&gt;Node5 -->
<g id="edge4_Node000003_Node000005" class="edge">
<title>Node3&#45;&gt;Node5</title>
<g id="a_edge4_Node000003_Node000005"><a xlink:title=" ">
<path fill="none" stroke="#63b8ff" d="M254.54,-46.8C247,-37.21 238.61,-26.54 232.89,-19.27"/>
<polygon fill="#63b8ff" stroke="#63b8ff" points="251.93,-49.14 260.86,-54.84 257.43,-44.81 251.93,-49.14"/>
</a>
</g>
</g>
<!-- Node6&#45;&gt;Node2 -->
<g id="edge13_Node000006_Node000002" class="edge">
<title>Node6&#45;&gt;Node2</title>
<g id="a_edge13_Node000006_Node000002"><a xlink:title=" ">
<path fill="none" stroke="#63b8ff" d="M283.89,-360.73C256.84,-354.2 227.34,-343.74 204,-327 137.9,-279.61 95.72,-186.69 81.43,-151.22"/>
<polygon fill="#63b8ff" stroke="#63b8ff" points="283.2,-364.16 293.73,-362.97 284.75,-357.34 283.2,-364.16"/>
</a>
</g>
</g>
<!-- Node6&#45;&gt;Node3 -->
<g id="edge7_Node000006_Node000003" class="edge">
<title>Node6&#45;&gt;Node3</title>
<g id="a_edge7_Node000006_Node000003"><a xlink:title=" ">
<path fill="none" stroke="#63b8ff" d="M319.12,-359.7C277.17,-344.79 218,-314.68 218,-263.5 218,-263.5 218,-263.5 218,-201 218,-155.79 246.2,-108.03 261.84,-85.02"/>
<polygon fill="#63b8ff" stroke="#63b8ff" points="318.24,-363.1 328.84,-363 320.49,-356.47 318.24,-363.1"/>
</a>
</g>
</g>
<!-- Node6&#45;&gt;Node4 -->
<g id="edge14_Node000006_Node000004" class="edge">
<title>Node6&#45;&gt;Node4</title>
<g id="a_edge14_Node000006_Node000004"><a xlink:title=" ">
<path fill="none" stroke="#63b8ff" d="M444.43,-370.05C584.59,-365.33 850,-345.56 850,-263.5 850,-263.5 850,-263.5 850,-135 850,-61.88 759.2,-31.51 691.46,-19.02"/>
<polygon fill="#63b8ff" stroke="#63b8ff" points="444.04,-366.56 434.15,-370.38 444.26,-373.56 444.04,-366.56"/>
</a>
</g>
</g>
<!-- Node7 -->
<g id="Node000007" class="node">
<title>Node7</title>
<g id="a_Node000007"><a xlink:href="client_8hpp.html" target="_top" xlink:title=" ">
<polygon fill="white" stroke="#666666" points="777.5,-145.5 630.5,-145.5 630.5,-126.5 777.5,-126.5 777.5,-145.5"/>
<text text-anchor="middle" x="704" y="-133.5" font-family="Helvetica,sans-Serif" font-size="10.00">include/rest_cpp/client.hpp</text>
</a>
</g>
</g>
<!-- Node6&#45;&gt;Node7 -->
<g id="edge8_Node000006_Node000007" class="edge">
<title>Node6&#45;&gt;Node7</title>
<g id="a_edge8_Node000006_Node000007"><a xlink:title=" ">
<path fill="none" stroke="#63b8ff" d="M429.94,-361.16C496.08,-348.7 595.72,-322.76 668,-272 695.78,-252.49 708.3,-248.48 721,-217 730.99,-192.24 717.14,-160.7 709.08,-145.69"/>
<polygon fill="#63b8ff" stroke="#63b8ff" points="429.23,-357.73 420.02,-362.97 430.49,-364.61 429.23,-357.73"/>
</a>
</g>
</g>
<!-- Node9 -->
<g id="Node000009" class="node">
<title>Node9</title>
<g id="a_Node000009"><a xlink:href="connection_8hpp.html" target="_top" xlink:title=" ">
<polygon fill="white" stroke="#666666" points="436,-217 284,-217 284,-187 436,-187 436,-217"/>
<text text-anchor="start" x="292" y="-205" font-family="Helvetica,sans-Serif" font-size="10.00">include/rest_cpp/connection</text>
<text text-anchor="middle" x="360" y="-194" font-family="Helvetica,sans-Serif" font-size="10.00">/connection.hpp</text>
</a>
</g>
</g>
<!-- Node6&#45;&gt;Node9 -->
<g id="edge10_Node000006_Node000009" class="edge">
<title>Node6&#45;&gt;Node9</title>
<g id="a_edge10_Node000006_Node000009"><a xlink:title=" ">
<path fill="none" stroke="#63b8ff" d="M360,-352.51C360,-318.4 360,-247.51 360,-217.22"/>
<polygon fill="#63b8ff" stroke="#63b8ff" points="356.5,-352.91 360,-362.91 363.5,-352.91 356.5,-352.91"/>
</a>
</g>
</g>
<!-- Node10 -->
<g id="Node000010" class="node">
<title>Node10</title>
<g id="a_Node000010"><a xlink:href="url_8hpp.html" target="_top" xlink:title=" ">
<polygon fill="white" stroke="#666666" points="536.5,-327 403.5,-327 403.5,-308 536.5,-308 536.5,-327"/>
<text text-anchor="middle" x="470" y="-315" font-family="Helvetica,sans-Serif" font-size="10.00">include/rest_cpp/url.hpp</text>
</a>
</g>
</g>
<!-- Node6&#45;&gt;Node10 -->
<g id="edge15_Node000006_Node000010" class="edge">
<title>Node6&#45;&gt;Node10</title>
<g id="a_edge15_Node000006_Node000010"><a xlink:title=" ">
<path fill="none" stroke="#63b8ff" d="M386.7,-358.63C406.97,-348.87 434.27,-335.71 452.01,-327.17"/>
<polygon fill="#63b8ff" stroke="#63b8ff" points="385.16,-355.49 377.67,-362.98 388.2,-361.8 385.16,-355.49"/>
</a>
</g>
</g>
<!-- Node8 -->
<g id="Node000008" class="node">
<title>Node8</title>
<g id="a_Node000008"><a xlink:href="client_8cpp.html" target="_top" xlink:title=" ">
<polygon fill="white" stroke="#666666" points="744.5,-79.5 663.5,-79.5 663.5,-60.5 744.5,-60.5 744.5,-79.5"/>
<text text-anchor="middle" x="704" y="-67.5" font-family="Helvetica,sans-Serif" font-size="10.00">src/client.cpp</text>
</a>
</g>
</g>
<!-- Node7&#45;&gt;Node8 -->
<g id="edge9_Node000007_Node000008" class="edge">
<title>Node7&#45;&gt;Node8</title>
<g id="a_edge9_Node000007_Node000008"><a xlink:title=" ">
<path fill="none" stroke="#63b8ff" d="M704,-116.08C704,-104.13 704,-89.22 704,-79.91"/>
<polygon fill="#63b8ff" stroke="#63b8ff" points="700.5,-116.37 704,-126.37 707.5,-116.37 700.5,-116.37"/>
</a>
</g>
</g>
<!-- Node9&#45;&gt;Node2 -->
<g id="edge12_Node000009_Node000002" class="edge">
<title>Node9&#45;&gt;Node2</title>
<g id="a_edge12_Node000009_Node000002"><a xlink:title=" ">
<path fill="none" stroke="#63b8ff" d="M287.73,-184.71C241.54,-174.31 182.26,-160.95 138.18,-151.01"/>
<polygon fill="#63b8ff" stroke="#63b8ff" points="287.15,-188.17 297.67,-186.95 288.69,-181.34 287.15,-188.17"/>
</a>
</g>
</g>
<!-- Node9&#45;&gt;Node7 -->
<g id="edge11_Node000009_Node000007" class="edge">
<title>Node9&#45;&gt;Node7</title>
<g id="a_edge11_Node000009_Node000007"><a xlink:title=" ">
<path fill="none" stroke="#63b8ff" d="M445.66,-185.06C512.98,-172.54 604.13,-155.58 658.22,-145.52"/>
<polygon fill="#63b8ff" stroke="#63b8ff" points="444.68,-181.68 435.49,-186.95 445.96,-188.57 444.68,-181.68"/>
</a>
</g>
</g>
<!-- Node10&#45;&gt;Node3 -->
<g id="edge16_Node000010_Node000003" class="edge">
<title>Node10&#45;&gt;Node3</title>
<g id="a_edge16_Node000010_Node000003"><a xlink:title=" ">
<path fill="none" stroke="#63b8ff" d="M416.73,-305.39C370.43,-292.63 306.04,-266.7 275,-217 248.95,-175.28 260.66,-112.95 267.86,-85.2"/>
<polygon fill="#63b8ff" stroke="#63b8ff" points="416.05,-308.83 426.61,-307.99 417.83,-302.06 416.05,-308.83"/>
</a>
</g>
</g>
<!-- Node10&#45;&gt;Node5 -->
<g id="edge26_Node000010_Node000005" class="edge">
<title>Node10&#45;&gt;Node5</title>
<g id="a_edge26_Node000010_Node000005"><a xlink:title=" ">
<path fill="none" stroke="#63b8ff" d="M412.12,-306.03C327.51,-289.04 180,-252.36 180,-203 180,-203 180,-203 180,-135 180,-98.46 185.13,-88.81 199,-55 204.42,-41.79 213.43,-27.94 219.54,-19.26"/>
<polygon fill="#63b8ff" stroke="#63b8ff" points="411.62,-309.5 422.11,-308 412.98,-302.63 411.62,-309.5"/>
</a>
</g>
</g>
<!-- Node10&#45;&gt;Node7 -->
<g id="edge17_Node000010_Node000007" class="edge">
<title>Node10&#45;&gt;Node7</title>
<g id="a_edge17_Node000010_Node000007"><a xlink:title=" ">
<path fill="none" stroke="#63b8ff" d="M545.2,-305.9C598.71,-294.03 667.08,-269.09 702,-217 716.78,-194.96 710.62,-161.28 706.54,-145.59"/>
<polygon fill="#63b8ff" stroke="#63b8ff" points="544.45,-302.48 535.39,-307.97 545.9,-309.33 544.45,-302.48"/>
</a>
</g>
</g>
<!-- Node10&#45;&gt;Node8 -->
<g id="edge27_Node000010_Node000008" class="edge">
<title>Node10&#45;&gt;Node8</title>
<g id="a_edge27_Node000010_Node000008"><a xlink:title=" ">
<path fill="none" stroke="#63b8ff" d="M546.74,-309.6C585.04,-303.65 630.97,-292.59 668,-272 733.92,-235.35 758.43,-220.81 787,-151 792.05,-138.66 793.56,-132.61 787,-121 775.25,-100.2 751,-87.09 731.73,-79.54"/>
<polygon fill="#63b8ff" stroke="#63b8ff" points="546.05,-306.16 536.67,-311.07 547.07,-313.09 546.05,-306.16"/>
</a>
</g>
</g>
<!-- Node11 -->
<g id="Node000011" class="node">
<title>Node11</title>
<g id="a_Node000011"><a xlink:href="middleware_8hpp.html" target="_top" xlink:title=" ">
<polygon fill="white" stroke="#666666" points="670,-211.5 492,-211.5 492,-192.5 670,-192.5 670,-211.5"/>
<text text-anchor="middle" x="581" y="-199.5" font-family="Helvetica,sans-Serif" font-size="10.00">include/rest_cpp/middleware.hpp</text>
</a>
</g>
</g>
<!-- Node10&#45;&gt;Node11 -->
<g id="edge18_Node000010_Node000011" class="edge">
<title>Node10&#45;&gt;Node11</title>
<g id="a_edge18_Node000010_Node000011"><a xlink:title=" ">
<path fill="none" stroke="#63b8ff" d="M508.65,-304.18C525.49,-297.1 544.24,-286.65 557,-272 572.49,-254.21 578.14,-225.85 580.07,-211.66"/>
<polygon fill="#63b8ff" stroke="#63b8ff" points="507.06,-301.04 499.03,-307.96 509.61,-307.56 507.06,-301.04"/>
</a>
</g>
</g>
<!-- Node12 -->
<g id="Node000012" class="node">
<title>Node12</title>
<g id="a_Node000012"><a xlink:href="request_8hpp.html" target="_top" xlink:title=" ">
<polygon fill="white" stroke="#666666" points="548.5,-272 391.5,-272 391.5,-253 548.5,-253 548.5,-272"/>
<text text-anchor="middle" x="470" y="-260" font-family="Helvetica,sans-Serif" font-size="10.00">include/rest_cpp/request.hpp</text>
</a>
</g>
</g>
<!-- Node10&#45;&gt;Node12 -->
<g id="edge21_Node000010_Node000012" class="edge">
<title>Node10&#45;&gt;Node12</title>
<g id="a_edge21_Node000010_Node000012"><a xlink:title=" ">
<path fill="none" stroke="#63b8ff" d="M470,-297.66C470,-288.93 470,-278.99 470,-272.09"/>
<polygon fill="#63b8ff" stroke="#63b8ff" points="466.5,-297.75 470,-307.75 473.5,-297.75 466.5,-297.75"/>
</a>
</g>
</g>
<!-- Node11&#45;&gt;Node5 -->
<g id="edge19_Node000011_Node000005" class="edge">
<title>Node11&#45;&gt;Node5</title>
<g id="a_edge19_Node000011_Node000005"><a xlink:title=" ">
<path fill="none" stroke="#63b8ff" d="M560.31,-186.25C520.2,-158.11 428.47,-95.93 345,-55 314.7,-40.14 278.11,-27.15 253.58,-19.1"/>
<polygon fill="#63b8ff" stroke="#63b8ff" points="558.52,-189.28 568.71,-192.18 562.56,-183.56 558.52,-189.28"/>
</a>
</g>
</g>
<!-- Node11&#45;&gt;Node8 -->
<g id="edge20_Node000011_Node000008" class="edge">
<title>Node11&#45;&gt;Node8</title>
<g id="a_edge20_Node000011_Node000008"><a xlink:title=" ">
<path fill="none" stroke="#63b8ff" d="M586.76,-182.78C592.99,-165.32 604.33,-139.04 621,-121 638.47,-102.1 664.71,-87.93 682.99,-79.59"/>
<polygon fill="#63b8ff" stroke="#63b8ff" points="583.41,-181.76 583.53,-192.36 590.04,-184 583.41,-181.76"/>
</a>
</g>
</g>
<!-- Node12&#45;&gt;Node3 -->
<g id="edge22_Node000012_Node000003" class="edge">
<title>Node12&#45;&gt;Node3</title>
<g id="a_edge22_Node000012_Node000003"><a xlink:title=" ">
<path fill="none" stroke="#63b8ff" d="M467.16,-242.54C463.98,-226.44 457.52,-203.41 445,-187 407.81,-138.28 344.03,-103.22 305.17,-85.09"/>
<polygon fill="#63b8ff" stroke="#63b8ff" points="463.79,-243.58 468.94,-252.84 470.69,-242.39 463.79,-243.58"/>
</a>
</g>
</g>
<!-- Node12&#45;&gt;Node7 -->
<g id="edge23_Node000012_Node000007" class="edge">
<title>Node12&#45;&gt;Node7</title>
<g id="a_edge23_Node000012_Node000007"><a xlink:title=" ">
<path fill="none" stroke="#63b8ff" d="M558.53,-251.66C607.14,-244.55 661.1,-233.3 679,-217 699.76,-198.09 703.43,-162.22 703.98,-145.71"/>
<polygon fill="#63b8ff" stroke="#63b8ff" points="557.98,-248.2 548.57,-253.07 558.96,-255.13 557.98,-248.2"/>
</a>
</g>
</g>
<!-- Node12&#45;&gt;Node9 -->
<g id="edge24_Node000012_Node000009" class="edge">
<title>Node12&#45;&gt;Node9</title>
<g id="a_edge24_Node000012_Node000009"><a xlink:title=" ">
<path fill="none" stroke="#63b8ff" d="M444.75,-248.07C427.34,-238.81 404.23,-226.52 386.54,-217.11"/>
<polygon fill="#63b8ff" stroke="#63b8ff" points="443.3,-251.26 453.77,-252.87 446.58,-245.08 443.3,-251.26"/>
</a>
</g>
</g>
<!-- Node12&#45;&gt;Node11 -->
<g id="edge25_Node000012_Node000011" class="edge">
<title>Node12&#45;&gt;Node11</title>
<g id="a_edge25_Node000012_Node000011"><a xlink:title=" ">
<path fill="none" stroke="#63b8ff" d="M495.47,-248.08C516.71,-236.88 546.33,-221.27 564.55,-211.67"/>
<polygon fill="#63b8ff" stroke="#63b8ff" points="493.59,-245.11 486.38,-252.87 496.86,-251.3 493.59,-245.11"/>
</a>
</g>
</g>
</g>
</svg>

<g id="navigator" transform="translate(0 0)" fill="#404254">
  <rect fill="#f2f5e9" fill-opacity="0.5" stroke="#606060" stroke-width=".5" x="0" y="0" width="60" height="60"/>
  <use id="zoomplus" xlink:href="#zoomPlus" x="17" y="9" onmousedown="handleZoom(evt,'in')"/>
  <use id="zoomminus" xlink:href="#zoomMin" x="42" y="9" onmousedown="handleZoom(evt,'out')"/>
  <use id="reset" xlink:href="#resetDef" x="30" y="36" onmousedown="handleReset()"/>
   <use id="arrowup" xlink:href="#arrowUp" x="0" y="0" onmousedown="handlePan(0,-1)"/>
  <use id="arrowright" xlink:href="#arrowRight" x="0" y="0" onmousedown="handlePan(1,0)"/>
  <use id="arrowdown" xlink:href="#arrowDown" x="0" y="0" onmousedown="handlePan(0,1)"/>
  <use id="arrowleft" xlink:href="#arrowLeft" x="0" y="0" onmousedown="handlePan(-1,0)"/>
</g>
<svg viewBox="0 0 15 15" width="100%" height="30px" preserveAspectRatio="xMaxYMin meet">
 <g id="arrow_out" transform="scale(0.3 0.3)">
  <a xlink:href="error_8hpp__dep__incl_org.svg" target="_base">
   <rect id="button" ry="5" rx="5" y="6" x="6" height="38" width="38"
        fill="#f2f5e9" fill-opacity="0.5" stroke="#606060" stroke-width="1.0"/>
   <path id="arrow"
     d="M 11.500037,31.436501 C 11.940474,20.09759 22.043105,11.32322 32.158766,21.979434 L 37.068811,17.246167 C 37.068811,17.246167 37.088388,32 37.088388,32 L 22.160133,31.978069 C 22.160133,31.978069 26.997745,27.140456 26.997745,27.140456 C 18.528582,18.264221 13.291696,25.230495 11.500037,31.436501 z"
     style="fill:#404040;"/>
  </a>
 </g>
</svg>

<style type='text/css'>
<![CDATA[
[data-mouse-over-selected='false'] { opacity: 0.7; }
[data-mouse-over-selected='true']  { opacity: 1.0; }
]]>
</style>
<script type="application/ecmascript"><![CDATA[
document.addEventListener('DOMContentLoaded', (event) => {
  highlightEdges();
  highlightAdjacentNodes();
});
]]></script>
</svg>
