<?xml version="1.0" encoding="UTF-8" standalone="no"?>
<!DOCTYPE svg PUBLIC "-//W3C//DTD SVG 1.1//EN"
 "http://www.w3.org/Graphics/SVG/1.1/DTD/svg11.dtd">
<!-- Generated by graphviz version 2.43.0 (0)
 -->
<!-- Title: Graphical Class Hierarchy Pages: 1 -->
<svg width="373pt" height="64pt"
 viewBox="0.00 0.00 373.00 64.00" xmlns="http://www.w3.org/2000/svg" xmlns:xlink="http://www.w3.org/1999/xlink">
<g id="graph0" class="graph" transform="scale(1 1) rotate(0) translate(4 60)">
<title>Graphical Class Hierarchy</title>
<!-- Node0 -->
<g id="Node000000" class="node">
<title>Node0</title>
<g id="a_Node000000"><a xlink:href="classrest__cpp_1_1RequestInterceptor.html" target="_top" xlink:title="Interface for intercepting and modifying requests before they are sent.">
<polygon fill="white" stroke="#666666" points="157,-37 0,-37 0,-18 157,-18 157,-37"/>
<text text-anchor="middle" x="78.5" y="-25" font-family="Helvetica,sans-Serif" font-size="10.00">rest_cpp::RequestInterceptor</text>
</a>
</g>
</g>
<!-- Node1 -->
<g id="Node000001" class="node">
<title>Node1</title>
<g id="a_Node000001"><a xlink:href="classrest__cpp_1_1ApiKeyInterceptor.html" target="_top" xlink:title="Interceptor for API Key authentication.">
<polygon fill="white" stroke="#666666" points="354.5,-56 203.5,-56 203.5,-37 354.5,-37 354.5,-56"/>
<text text-anchor="middle" x="279" y="-44" font-family="Helvetica,sans-Serif" font-size="10.00">rest_cpp::ApiKeyInterceptor</text>
</a>
</g>
</g>
<!-- Node0&#45;&gt;Node1 -->
<g id="edge1_Node000000_Node000001" class="edge">
<title>Node0&#45;&gt;Node1</title>
<g id="a_edge1_Node000000_Node000001"><a xlink:title=" ">
<path fill="none" stroke="#63b8ff" d="M167.17,-35.89C179.26,-37.05 191.57,-38.23 203.38,-39.36"/>
<polygon fill="#63b8ff" stroke="#63b8ff" points="167.39,-32.4 157.1,-34.93 166.72,-39.36 167.39,-32.4"/>
</a>
</g>
</g>
<!-- Node2 -->
<g id="Node000002" class="node">
<title>Node2</title>
<g id="a_Node000002"><a xlink:href="classrest__cpp_1_1BearerAuthInterceptor.html" target="_top" xlink:title="Interceptor for Bearer Token authentication.">
<polygon fill="white" stroke="#666666" points="365,-19 193,-19 193,0 365,0 365,-19"/>
<text text-anchor="middle" x="279" y="-7" font-family="Helvetica,sans-Serif" font-size="10.00">rest_cpp::BearerAuthInterceptor</text>
</a>
</g>
</g>
<!-- Node0&#45;&gt;Node2 -->
<g id="edge2_Node000000_Node000002" class="edge">
<title>Node0&#45;&gt;Node2</title>
<g id="a_edge2_Node000000_Node000002"><a xlink:title=" ">
<path fill="none" stroke="#63b8ff" d="M167.09,-19.56C175.66,-18.78 184.36,-17.99 192.9,-17.22"/>
<polygon fill="#63b8ff" stroke="#63b8ff" points="166.74,-16.07 157.1,-20.46 167.37,-23.05 166.74,-16.07"/>
</a>
</g>
</g>
</g>
</svg>
