<?xml version="1.0" encoding="UTF-8" standalone="no"?>
<!DOCTYPE svg PUBLIC "-//W3C//DTD SVG 1.1//EN"
 "http://www.w3.org/Graphics/SVG/1.1/DTD/svg11.dtd">
<!-- Generated by graphviz version 2.43.0 (0)
 -->
<!-- Title: include/rest_cpp/middleware.hpp Pages: 1 -->
<svg width="1403pt" height="313pt"
 viewBox="0.00 0.00 1403.00 313.00" xmlns="http://www.w3.org/2000/svg" xmlns:xlink="http://www.w3.org/1999/xlink">
<g id="graph0" class="graph" transform="scale(1 1) rotate(0) translate(4 309)">
<title>include/rest_cpp/middleware.hpp</title>
<!-- Node1 -->
<g id="Node000001" class="node">
<title>Node1</title>
<g id="a_Node000001"><a xlink:title=" ">
<polygon fill="#999999" stroke="#666666" points="255,-305 77,-305 77,-286 255,-286 255,-305"/>
<text text-anchor="middle" x="166" y="-293" font-family="Helvetica,sans-Serif" font-size="10.00">include/rest_cpp/middleware.hpp</text>
</a>
</g>
</g>
<!-- Node2 -->
<g id="Node000002" class="node">
<title>Node2</title>
<g id="a_Node000002"><a xlink:title=" ">
<polygon fill="#e0e0e0" stroke="#999999" points="58,-250 0,-250 0,-231 58,-231 58,-250"/>
<text text-anchor="middle" x="29" y="-238" font-family="Helvetica,sans-Serif" font-size="10.00">memory</text>
</a>
</g>
</g>
<!-- Node1&#45;&gt;Node2 -->
<g id="edge1_Node000001_Node000002" class="edge">
<title>Node1&#45;&gt;Node2</title>
<g id="a_edge1_Node000001_Node000002"><a xlink:title=" ">
<path fill="none" stroke="#63b8ff" d="M143.99,-285.98C121.55,-277.3 86.52,-263.75 61.01,-253.88"/>
<polygon fill="#63b8ff" stroke="#63b8ff" points="62,-250.51 51.41,-250.17 59.48,-257.04 62,-250.51"/>
</a>
</g>
</g>
<!-- Node3 -->
<g id="Node000003" class="node">
<title>Node3</title>
<g id="a_Node000003"><a xlink:title=" ">
<polygon fill="#e0e0e0" stroke="#999999" points="592,-19 548,-19 548,0 592,0 592,-19"/>
<text text-anchor="middle" x="570" y="-7" font-family="Helvetica,sans-Serif" font-size="10.00">string</text>
</a>
</g>
</g>
<!-- Node1&#45;&gt;Node3 -->
<g id="edge2_Node000001_Node000003" class="edge">
<title>Node1&#45;&gt;Node3</title>
<g id="a_edge2_Node000001_Node000003"><a xlink:title=" ">
<path fill="none" stroke="#63b8ff" d="M153.15,-285.77C130.53,-269.25 86,-231.07 86,-186.5 86,-186.5 86,-186.5 86,-124 86,-30.96 429.28,-14.13 537.64,-11.14"/>
<polygon fill="#63b8ff" stroke="#63b8ff" points="538.04,-14.63 547.95,-10.87 537.86,-7.63 538.04,-14.63"/>
</a>
</g>
</g>
<!-- Node4 -->
<g id="Node000004" class="node">
<title>Node4</title>
<g id="a_Node000004"><a xlink:title=" ">
<polygon fill="#e0e0e0" stroke="#999999" points="189.5,-250 142.5,-250 142.5,-231 189.5,-231 189.5,-250"/>
<text text-anchor="middle" x="166" y="-238" font-family="Helvetica,sans-Serif" font-size="10.00">vector</text>
</a>
</g>
</g>
<!-- Node1&#45;&gt;Node4 -->
<g id="edge3_Node000001_Node000004" class="edge">
<title>Node1&#45;&gt;Node4</title>
<g id="a_edge3_Node000001_Node000004"><a xlink:title=" ">
<path fill="none" stroke="#63b8ff" d="M166,-285.75C166,-278.8 166,-268.85 166,-260.13"/>
<polygon fill="#63b8ff" stroke="#63b8ff" points="169.5,-260.09 166,-250.09 162.5,-260.09 169.5,-260.09"/>
</a>
</g>
</g>
<!-- Node5 -->
<g id="Node000005" class="node">
<title>Node5</title>
<g id="a_Node000005"><a xlink:href="request_8hpp.html" target="_top" xlink:title=" ">
<polygon fill="white" stroke="#666666" points="310,-250 236,-250 236,-231 310,-231 310,-250"/>
<text text-anchor="middle" x="273" y="-238" font-family="Helvetica,sans-Serif" font-size="10.00">request.hpp</text>
</a>
</g>
</g>
<!-- Node1&#45;&gt;Node5 -->
<g id="edge4_Node000001_Node000005" class="edge">
<title>Node1&#45;&gt;Node5</title>
<g id="a_edge4_Node000001_Node000005"><a xlink:title=" ">
<path fill="none" stroke="#63b8ff" d="M183.19,-285.98C200.25,-277.54 226.63,-264.47 246.4,-254.68"/>
<polygon fill="#63b8ff" stroke="#63b8ff" points="248.09,-257.75 255.5,-250.17 244.98,-251.47 248.09,-257.75"/>
</a>
</g>
</g>
<!-- Node17 -->
<g id="Node000017" class="node">
<title>Node17</title>
<g id="a_Node000017"><a xlink:href="url_8hpp.html" target="_top" xlink:title=" ">
<polygon fill="white" stroke="#666666" points="1042,-195 992,-195 992,-176 1042,-176 1042,-195"/>
<text text-anchor="middle" x="1017" y="-183" font-family="Helvetica,sans-Serif" font-size="10.00">url.hpp</text>
</a>
</g>
</g>
<!-- Node1&#45;&gt;Node17 -->
<g id="edge27_Node000001_Node000017" class="edge">
<title>Node1&#45;&gt;Node17</title>
<g id="a_edge27_Node000001_Node000017"><a xlink:title=" ">
<path fill="none" stroke="#63b8ff" d="M233.13,-285.98C404.34,-264.25 852.85,-207.33 981.83,-190.96"/>
<polygon fill="#63b8ff" stroke="#63b8ff" points="982.46,-194.41 991.94,-189.68 981.58,-187.47 982.46,-194.41"/>
</a>
</g>
</g>
<!-- Node5&#45;&gt;Node3 -->
<g id="edge6_Node000005_Node000003" class="edge">
<title>Node5&#45;&gt;Node3</title>
<g id="a_edge6_Node000005_Node000003"><a xlink:title=" ">
<path fill="none" stroke="#63b8ff" d="M235.9,-237.97C205.41,-234.52 163.94,-224.31 143,-195 121.03,-164.26 119.51,-139.59 143,-110 192.57,-47.55 446.94,-20.68 537.74,-12.98"/>
<polygon fill="#63b8ff" stroke="#63b8ff" points="538.3,-16.44 547.98,-12.13 537.72,-9.47 538.3,-16.44"/>
</a>
</g>
</g>
<!-- Node6 -->
<g id="Node000006" class="node">
<title>Node6</title>
<g id="a_Node000006"><a xlink:title=" ">
<polygon fill="#e0e0e0" stroke="#999999" points="208,-195 152,-195 152,-176 208,-176 208,-195"/>
<text text-anchor="middle" x="180" y="-183" font-family="Helvetica,sans-Serif" font-size="10.00">optional</text>
</a>
</g>
</g>
<!-- Node5&#45;&gt;Node6 -->
<g id="edge5_Node000005_Node000006" class="edge">
<title>Node5&#45;&gt;Node6</title>
<g id="a_edge5_Node000005_Node000006"><a xlink:title=" ">
<path fill="none" stroke="#63b8ff" d="M258.06,-230.98C243.5,-222.69 221.13,-209.94 204.07,-200.22"/>
<polygon fill="#63b8ff" stroke="#63b8ff" points="205.64,-197.08 195.21,-195.17 202.17,-203.16 205.64,-197.08"/>
</a>
</g>
</g>
<!-- Node7 -->
<g id="Node000007" class="node">
<title>Node7</title>
<g id="a_Node000007"><a xlink:title=" ">
<polygon fill="#e0e0e0" stroke="#999999" points="319.5,-195 226.5,-195 226.5,-176 319.5,-176 319.5,-195"/>
<text text-anchor="middle" x="273" y="-183" font-family="Helvetica,sans-Serif" font-size="10.00">unordered_map</text>
</a>
</g>
</g>
<!-- Node5&#45;&gt;Node7 -->
<g id="edge7_Node000005_Node000007" class="edge">
<title>Node5&#45;&gt;Node7</title>
<g id="a_edge7_Node000005_Node000007"><a xlink:title=" ">
<path fill="none" stroke="#63b8ff" d="M273,-230.75C273,-223.8 273,-213.85 273,-205.13"/>
<polygon fill="#63b8ff" stroke="#63b8ff" points="276.5,-205.09 273,-195.09 269.5,-205.09 276.5,-205.09"/>
</a>
</g>
</g>
<!-- Node8 -->
<g id="Node000008" class="node">
<title>Node8</title>
<g id="a_Node000008"><a xlink:href="http__method_8hpp.html" target="_top" xlink:title=" ">
<polygon fill="white" stroke="#666666" points="438,-195 338,-195 338,-176 438,-176 438,-195"/>
<text text-anchor="middle" x="388" y="-183" font-family="Helvetica,sans-Serif" font-size="10.00">http_method.hpp</text>
</a>
</g>
</g>
<!-- Node5&#45;&gt;Node8 -->
<g id="edge8_Node000005_Node000008" class="edge">
<title>Node5&#45;&gt;Node8</title>
<g id="a_edge8_Node000005_Node000008"><a xlink:title=" ">
<path fill="none" stroke="#63b8ff" d="M291.48,-230.98C309.98,-222.46 338.68,-209.23 359.98,-199.41"/>
<polygon fill="#63b8ff" stroke="#63b8ff" points="361.57,-202.53 369.19,-195.17 358.64,-196.18 361.57,-202.53"/>
</a>
</g>
</g>
<!-- Node11 -->
<g id="Node000011" class="node">
<title>Node11</title>
<g id="a_Node000011"><a xlink:href="endpoint_8hpp.html" target="_top" xlink:title=" ">
<polygon fill="white" stroke="#666666" points="682.5,-195 557.5,-195 557.5,-176 682.5,-176 682.5,-195"/>
<text text-anchor="middle" x="620" y="-183" font-family="Helvetica,sans-Serif" font-size="10.00">rest_cpp/endpoint.hpp</text>
</a>
</g>
</g>
<!-- Node5&#45;&gt;Node11 -->
<g id="edge11_Node000005_Node000011" class="edge">
<title>Node5&#45;&gt;Node11</title>
<g id="a_edge11_Node000005_Node000011"><a xlink:title=" ">
<path fill="none" stroke="#63b8ff" d="M310.14,-233.83C368.41,-224.93 482.14,-207.56 554.42,-196.52"/>
<polygon fill="#63b8ff" stroke="#63b8ff" points="554.98,-199.97 564.33,-195 553.92,-193.05 554.98,-199.97"/>
</a>
</g>
</g>
<!-- Node5&#45;&gt;Node17 -->
<g id="edge17_Node000005_Node000017" class="edge">
<title>Node5&#45;&gt;Node17</title>
<g id="a_edge17_Node000005_Node000017"><a xlink:title=" ">
<path fill="none" stroke="#63b8ff" d="M310.15,-236.85C437.68,-227.77 856.63,-197.92 981.54,-189.03"/>
<polygon fill="#63b8ff" stroke="#63b8ff" points="981.97,-192.5 991.7,-188.3 981.48,-185.52 981.97,-192.5"/>
</a>
</g>
</g>
<!-- Node9 -->
<g id="Node000009" class="node">
<title>Node9</title>
<g id="a_Node000009"><a xlink:title=" ">
<polygon fill="#e0e0e0" stroke="#999999" points="271.5,-134.5 152.5,-134.5 152.5,-115.5 271.5,-115.5 271.5,-134.5"/>
<text text-anchor="middle" x="212" y="-122.5" font-family="Helvetica,sans-Serif" font-size="10.00">boost/beast/core.hpp</text>
</a>
</g>
</g>
<!-- Node8&#45;&gt;Node9 -->
<g id="edge9_Node000008_Node000009" class="edge">
<title>Node8&#45;&gt;Node9</title>
<g id="a_edge9_Node000008_Node000009"><a xlink:title=" ">
<path fill="none" stroke="#63b8ff" d="M362.41,-175.99C332.04,-165.9 281.24,-149.01 247.18,-137.69"/>
<polygon fill="#63b8ff" stroke="#63b8ff" points="248.22,-134.35 237.62,-134.52 246.01,-140.99 248.22,-134.35"/>
</a>
</g>
</g>
<!-- Node10 -->
<g id="Node000010" class="node">
<title>Node10</title>
<g id="a_Node000010"><a xlink:title=" ">
<polygon fill="#e0e0e0" stroke="#999999" points="406.5,-134.5 289.5,-134.5 289.5,-115.5 406.5,-115.5 406.5,-134.5"/>
<text text-anchor="middle" x="348" y="-122.5" font-family="Helvetica,sans-Serif" font-size="10.00">boost/beast/http.hpp</text>
</a>
</g>
</g>
<!-- Node8&#45;&gt;Node10 -->
<g id="edge10_Node000008_Node000010" class="edge">
<title>Node8&#45;&gt;Node10</title>
<g id="a_edge10_Node000008_Node000010"><a xlink:title=" ">
<path fill="none" stroke="#63b8ff" d="M382.1,-175.87C376.25,-167.31 367.13,-153.97 359.79,-143.24"/>
<polygon fill="#63b8ff" stroke="#63b8ff" points="362.46,-140.95 353.93,-134.67 356.68,-144.9 362.46,-140.95"/>
</a>
</g>
</g>
<!-- Node12 -->
<g id="Node000012" class="node">
<title>Node12</title>
<g id="a_Node000012"><a xlink:title=" ">
<polygon fill="#e0e0e0" stroke="#999999" points="503.5,-134.5 424.5,-134.5 424.5,-115.5 503.5,-115.5 503.5,-134.5"/>
<text text-anchor="middle" x="464" y="-122.5" font-family="Helvetica,sans-Serif" font-size="10.00">openssl/err.h</text>
</a>
</g>
</g>
<!-- Node11&#45;&gt;Node12 -->
<g id="edge12_Node000011_Node000012" class="edge">
<title>Node11&#45;&gt;Node12</title>
<g id="a_edge12_Node000011_Node000012"><a xlink:title=" ">
<path fill="none" stroke="#63b8ff" d="M597.32,-175.99C570.74,-166.03 526.52,-149.45 496.36,-138.13"/>
<polygon fill="#63b8ff" stroke="#63b8ff" points="497.3,-134.75 486.71,-134.52 494.85,-141.31 497.3,-134.75"/>
</a>
</g>
</g>
<!-- Node13 -->
<g id="Node000013" class="node">
<title>Node13</title>
<g id="a_Node000013"><a xlink:title=" ">
<polygon fill="#e0e0e0" stroke="#999999" points="602,-134.5 522,-134.5 522,-115.5 602,-115.5 602,-134.5"/>
<text text-anchor="middle" x="562" y="-122.5" font-family="Helvetica,sans-Serif" font-size="10.00">openssl/ssl.h</text>
</a>
</g>
</g>
<!-- Node11&#45;&gt;Node13 -->
<g id="edge13_Node000011_Node000013" class="edge">
<title>Node11&#45;&gt;Node13</title>
<g id="a_edge13_Node000011_Node000013"><a xlink:title=" ">
<path fill="none" stroke="#63b8ff" d="M611.44,-175.87C602.62,-166.97 588.66,-152.89 577.82,-141.95"/>
<polygon fill="#63b8ff" stroke="#63b8ff" points="580.12,-139.3 570.59,-134.67 575.15,-144.23 580.12,-139.3"/>
</a>
</g>
</g>
<!-- Node14 -->
<g id="Node000014" class="node">
<title>Node14</title>
<g id="a_Node000014"><a xlink:title=" ">
<polygon fill="#e0e0e0" stroke="#999999" points="736,-140 620,-140 620,-110 736,-110 736,-140"/>
<text text-anchor="start" x="628" y="-128" font-family="Helvetica,sans-Serif" font-size="10.00">boost/beast/core/tcp</text>
<text text-anchor="middle" x="678" y="-117" font-family="Helvetica,sans-Serif" font-size="10.00">_stream.hpp</text>
</a>
</g>
</g>
<!-- Node11&#45;&gt;Node14 -->
<g id="edge14_Node000011_Node000014" class="edge">
<title>Node11&#45;&gt;Node14</title>
<g id="a_edge14_Node000011_Node000014"><a xlink:title=" ">
<path fill="none" stroke="#63b8ff" d="M628.56,-175.87C635.99,-168.37 647.07,-157.2 656.86,-147.33"/>
<polygon fill="#63b8ff" stroke="#63b8ff" points="659.45,-149.68 664.01,-140.11 654.48,-144.75 659.45,-149.68"/>
</a>
</g>
</g>
<!-- Node15 -->
<g id="Node000015" class="node">
<title>Node15</title>
<g id="a_Node000015"><a xlink:title=" ">
<polygon fill="#e0e0e0" stroke="#999999" points="861.5,-140 754.5,-140 754.5,-110 861.5,-110 861.5,-140"/>
<text text-anchor="start" x="762.5" y="-128" font-family="Helvetica,sans-Serif" font-size="10.00">boost/beast/ssl/ssl</text>
<text text-anchor="middle" x="808" y="-117" font-family="Helvetica,sans-Serif" font-size="10.00">_stream.hpp</text>
</a>
</g>
</g>
<!-- Node11&#45;&gt;Node15 -->
<g id="edge15_Node000011_Node000015" class="edge">
<title>Node11&#45;&gt;Node15</title>
<g id="a_edge15_Node000011_Node000015"><a xlink:title=" ">
<path fill="none" stroke="#63b8ff" d="M647.34,-175.99C674.98,-167.39 718.48,-153.86 753.25,-143.04"/>
<polygon fill="#63b8ff" stroke="#63b8ff" points="754.29,-146.38 762.8,-140.06 752.21,-139.69 754.29,-146.38"/>
</a>
</g>
</g>
<!-- Node16 -->
<g id="Node000016" class="node">
<title>Node16</title>
<g id="a_Node000016"><a xlink:title=" ">
<polygon fill="#e0e0e0" stroke="#999999" points="988.5,-140 879.5,-140 879.5,-110 988.5,-110 988.5,-140"/>
<text text-anchor="start" x="887.5" y="-128" font-family="Helvetica,sans-Serif" font-size="10.00">boost/system/error</text>
<text text-anchor="middle" x="934" y="-117" font-family="Helvetica,sans-Serif" font-size="10.00">_code.hpp</text>
</a>
</g>
</g>
<!-- Node11&#45;&gt;Node16 -->
<g id="edge16_Node000011_Node000016" class="edge">
<title>Node11&#45;&gt;Node16</title>
<g id="a_edge16_Node000011_Node000016"><a xlink:title=" ">
<path fill="none" stroke="#63b8ff" d="M672.04,-175.95C720.7,-167.8 795.65,-154.86 869.46,-140.26"/>
<polygon fill="#63b8ff" stroke="#63b8ff" points="870.27,-143.67 879.39,-138.29 868.9,-136.8 870.27,-143.67"/>
</a>
</g>
</g>
<!-- Node17&#45;&gt;Node3 -->
<g id="edge18_Node000017_Node000003" class="edge">
<title>Node17&#45;&gt;Node3</title>
<g id="a_edge18_Node000017_Node000003"><a xlink:title=" ">
<path fill="none" stroke="#63b8ff" d="M1017.48,-175.74C1017.81,-160.19 1016.12,-127.74 998,-110 941.03,-54.23 691.8,-23.2 602.22,-13.69"/>
<polygon fill="#63b8ff" stroke="#63b8ff" points="602.42,-10.19 592.11,-12.64 601.69,-17.15 602.42,-10.19"/>
</a>
</g>
</g>
<!-- Node18 -->
<g id="Node000018" class="node">
<title>Node18</title>
<g id="a_Node000018"><a xlink:title=" ">
<polygon fill="#e0e0e0" stroke="#999999" points="1118.5,-134.5 1045.5,-134.5 1045.5,-115.5 1118.5,-115.5 1118.5,-134.5"/>
<text text-anchor="middle" x="1082" y="-122.5" font-family="Helvetica,sans-Serif" font-size="10.00">string_view</text>
</a>
</g>
</g>
<!-- Node17&#45;&gt;Node18 -->
<g id="edge19_Node000017_Node000018" class="edge">
<title>Node17&#45;&gt;Node18</title>
<g id="a_edge19_Node000017_Node000018"><a xlink:title=" ">
<path fill="none" stroke="#63b8ff" d="M1026.59,-175.87C1036.58,-166.88 1052.43,-152.61 1064.63,-141.64"/>
<polygon fill="#63b8ff" stroke="#63b8ff" points="1067.28,-143.96 1072.37,-134.67 1062.6,-138.76 1067.28,-143.96"/>
</a>
</g>
</g>
<!-- Node19 -->
<g id="Node000019" class="node">
<title>Node19</title>
<g id="a_Node000019"><a xlink:href="result_8hpp.html" target="_top" xlink:title=" ">
<polygon fill="white" stroke="#666666" points="1229.5,-134.5 1164.5,-134.5 1164.5,-115.5 1229.5,-115.5 1229.5,-134.5"/>
<text text-anchor="middle" x="1197" y="-122.5" font-family="Helvetica,sans-Serif" font-size="10.00">result.hpp</text>
</a>
</g>
</g>
<!-- Node17&#45;&gt;Node19 -->
<g id="edge20_Node000017_Node000019" class="edge">
<title>Node17&#45;&gt;Node19</title>
<g id="a_edge20_Node000017_Node000019"><a xlink:title=" ">
<path fill="none" stroke="#63b8ff" d="M1042.03,-176.37C1072.89,-166.34 1125.57,-149.21 1160.83,-137.76"/>
<polygon fill="#63b8ff" stroke="#63b8ff" points="1162.3,-140.96 1170.72,-134.54 1160.13,-134.3 1162.3,-140.96"/>
</a>
</g>
</g>
<!-- Node20 -->
<g id="Node000020" class="node">
<title>Node20</title>
<g id="a_Node000020"><a xlink:title=" ">
<polygon fill="#e0e0e0" stroke="#999999" points="1097,-74 1045,-74 1045,-55 1097,-55 1097,-74"/>
<text text-anchor="middle" x="1071" y="-62" font-family="Helvetica,sans-Serif" font-size="10.00">cassert</text>
</a>
</g>
</g>
<!-- Node19&#45;&gt;Node20 -->
<g id="edge21_Node000019_Node000020" class="edge">
<title>Node19&#45;&gt;Node20</title>
<g id="a_edge21_Node000019_Node000020"><a xlink:title=" ">
<path fill="none" stroke="#63b8ff" d="M1178.68,-115.49C1157.59,-105.7 1122.74,-89.52 1098.42,-78.23"/>
<polygon fill="#63b8ff" stroke="#63b8ff" points="1099.89,-75.05 1089.34,-74.02 1096.94,-81.4 1099.89,-75.05"/>
</a>
</g>
</g>
<!-- Node21 -->
<g id="Node000021" class="node">
<title>Node21</title>
<g id="a_Node000021"><a xlink:title=" ">
<polygon fill="#e0e0e0" stroke="#999999" points="1184.5,-74 1115.5,-74 1115.5,-55 1184.5,-55 1184.5,-74"/>
<text text-anchor="middle" x="1150" y="-62" font-family="Helvetica,sans-Serif" font-size="10.00">type_traits</text>
</a>
</g>
</g>
<!-- Node19&#45;&gt;Node21 -->
<g id="edge22_Node000019_Node000021" class="edge">
<title>Node19&#45;&gt;Node21</title>
<g id="a_edge22_Node000019_Node000021"><a xlink:title=" ">
<path fill="none" stroke="#63b8ff" d="M1190.06,-115.37C1183.05,-106.64 1172.04,-92.93 1163.33,-82.09"/>
<polygon fill="#63b8ff" stroke="#63b8ff" points="1165.96,-79.77 1156.96,-74.17 1160.5,-84.16 1165.96,-79.77"/>
</a>
</g>
</g>
<!-- Node22 -->
<g id="Node000022" class="node">
<title>Node22</title>
<g id="a_Node000022"><a xlink:title=" ">
<polygon fill="#e0e0e0" stroke="#999999" points="1247.5,-74 1202.5,-74 1202.5,-55 1247.5,-55 1247.5,-74"/>
<text text-anchor="middle" x="1225" y="-62" font-family="Helvetica,sans-Serif" font-size="10.00">utility</text>
</a>
</g>
</g>
<!-- Node19&#45;&gt;Node22 -->
<g id="edge23_Node000019_Node000022" class="edge">
<title>Node19&#45;&gt;Node22</title>
<g id="a_edge23_Node000019_Node000022"><a xlink:title=" ">
<path fill="none" stroke="#63b8ff" d="M1201.13,-115.37C1205.14,-106.99 1211.35,-94.01 1216.44,-83.39"/>
<polygon fill="#63b8ff" stroke="#63b8ff" points="1219.69,-84.7 1220.85,-74.17 1213.38,-81.68 1219.69,-84.7"/>
</a>
</g>
</g>
<!-- Node23 -->
<g id="Node000023" class="node">
<title>Node23</title>
<g id="a_Node000023"><a xlink:title=" ">
<polygon fill="#e0e0e0" stroke="#999999" points="1316.5,-74 1265.5,-74 1265.5,-55 1316.5,-55 1316.5,-74"/>
<text text-anchor="middle" x="1291" y="-62" font-family="Helvetica,sans-Serif" font-size="10.00">variant</text>
</a>
</g>
</g>
<!-- Node19&#45;&gt;Node23 -->
<g id="edge24_Node000019_Node000023" class="edge">
<title>Node19&#45;&gt;Node23</title>
<g id="a_edge24_Node000019_Node000023"><a xlink:title=" ">
<path fill="none" stroke="#63b8ff" d="M1210.87,-115.37C1226,-105.95 1250.46,-90.73 1268.38,-79.58"/>
<polygon fill="#63b8ff" stroke="#63b8ff" points="1270.43,-82.42 1277.07,-74.17 1266.73,-76.48 1270.43,-82.42"/>
</a>
</g>
</g>
<!-- Node24 -->
<g id="Node000024" class="node">
<title>Node24</title>
<g id="a_Node000024"><a xlink:href="error_8hpp.html" target="_top" xlink:title=" ">
<polygon fill="white" stroke="#666666" points="1395,-74 1335,-74 1335,-55 1395,-55 1395,-74"/>
<text text-anchor="middle" x="1365" y="-62" font-family="Helvetica,sans-Serif" font-size="10.00">error.hpp</text>
</a>
</g>
</g>
<!-- Node19&#45;&gt;Node24 -->
<g id="edge25_Node000019_Node000024" class="edge">
<title>Node19&#45;&gt;Node24</title>
<g id="a_edge25_Node000019_Node000024"><a xlink:title=" ">
<path fill="none" stroke="#63b8ff" d="M1221.43,-115.49C1250.29,-105.44 1298.5,-88.66 1331,-77.34"/>
<polygon fill="#63b8ff" stroke="#63b8ff" points="1332.25,-80.61 1340.54,-74.02 1329.95,-74 1332.25,-80.61"/>
</a>
</g>
</g>
<!-- Node24&#45;&gt;Node3 -->
<g id="edge26_Node000024_Node000003" class="edge">
<title>Node24&#45;&gt;Node3</title>
<g id="a_edge26_Node000024_Node000003"><a xlink:title=" ">
<path fill="none" stroke="#63b8ff" d="M1334.85,-56.44C1331.87,-55.89 1328.88,-55.4 1326,-55 1047.67,-16.72 707.25,-11.34 602.32,-10.61"/>
<polygon fill="#63b8ff" stroke="#63b8ff" points="602.1,-7.11 592.08,-10.55 602.06,-14.11 602.1,-7.11"/>
</a>
</g>
</g>
</g>
</svg>
