<?xml version="1.0" encoding="UTF-8" standalone="no"?>
<!DOCTYPE svg PUBLIC "-//W3C//DTD SVG 1.1//EN"
 "http://www.w3.org/Graphics/SVG/1.1/DTD/svg11.dtd">
<!-- Generated by graphviz version 2.43.0 (0)
 -->
<!-- Title: include/rest_cpp/request.hpp Pages: 1 -->
<svg width="616pt" height="280pt"
 viewBox="0.00 0.00 616.00 280.00" xmlns="http://www.w3.org/2000/svg" xmlns:xlink="http://www.w3.org/1999/xlink">
<g id="graph0" class="graph" transform="scale(1 1) rotate(0) translate(4 276)">
<title>include/rest_cpp/request.hpp</title>
<!-- Node1 -->
<g id="Node000001" class="node">
<title>Node1</title>
<g id="a_Node000001"><a xlink:title=" ">
<polygon fill="#999999" stroke="#666666" points="364.5,-272 207.5,-272 207.5,-253 364.5,-253 364.5,-272"/>
<text text-anchor="middle" x="286" y="-260" font-family="Helvetica,sans-Serif" font-size="10.00">include/rest_cpp/request.hpp</text>
</a>
</g>
</g>
<!-- Node2 -->
<g id="Node000002" class="node">
<title>Node2</title>
<g id="a_Node000002"><a xlink:href="async__client_8hpp.html" target="_top" xlink:title=" ">
<polygon fill="white" stroke="#666666" points="185,-85 57,-85 57,-55 185,-55 185,-85"/>
<text text-anchor="start" x="65" y="-73" font-family="Helvetica,sans-Serif" font-size="10.00">include/rest_cpp/async</text>
<text text-anchor="middle" x="121" y="-62" font-family="Helvetica,sans-Serif" font-size="10.00">_client.hpp</text>
</a>
</g>
</g>
<!-- Node1&#45;&gt;Node2 -->
<g id="edge1_Node000001_Node000002" class="edge">
<title>Node1&#45;&gt;Node2</title>
<g id="a_edge1_Node000001_Node000002"><a xlink:title=" ">
<path fill="none" stroke="#63b8ff" d="M228.72,-250.47C177.95,-237.05 108.34,-208.61 85,-151 79.99,-138.64 80.91,-133.69 85,-121 89.33,-107.56 98.77,-94.69 106.89,-85.37"/>
<polygon fill="#63b8ff" stroke="#63b8ff" points="228.05,-253.91 238.61,-252.96 229.76,-247.12 228.05,-253.91"/>
</a>
</g>
</g>
<!-- Node5 -->
<g id="Node000005" class="node">
<title>Node5</title>
<g id="a_Node000005"><a xlink:href="client_8hpp.html" target="_top" xlink:title=" ">
<polygon fill="white" stroke="#666666" points="411.5,-145.5 264.5,-145.5 264.5,-126.5 411.5,-126.5 411.5,-145.5"/>
<text text-anchor="middle" x="338" y="-133.5" font-family="Helvetica,sans-Serif" font-size="10.00">include/rest_cpp/client.hpp</text>
</a>
</g>
</g>
<!-- Node1&#45;&gt;Node5 -->
<g id="edge4_Node000001_Node000005" class="edge">
<title>Node1&#45;&gt;Node5</title>
<g id="a_edge4_Node000001_Node000005"><a xlink:title=" ">
<path fill="none" stroke="#63b8ff" d="M300.58,-245.21C307.07,-237.21 314.29,-227.12 319,-217 330.32,-192.67 335.26,-160.93 337.09,-145.78"/>
<polygon fill="#63b8ff" stroke="#63b8ff" points="297.79,-243.1 293.99,-252.99 303.13,-247.63 297.79,-243.1"/>
</a>
</g>
</g>
<!-- Node7 -->
<g id="Node000007" class="node">
<title>Node7</title>
<g id="a_Node000007"><a xlink:href="connection_8hpp.html" target="_top" xlink:title=" ">
<polygon fill="white" stroke="#666666" points="310,-217 158,-217 158,-187 310,-187 310,-217"/>
<text text-anchor="start" x="166" y="-205" font-family="Helvetica,sans-Serif" font-size="10.00">include/rest_cpp/connection</text>
<text text-anchor="middle" x="234" y="-194" font-family="Helvetica,sans-Serif" font-size="10.00">/connection.hpp</text>
</a>
</g>
</g>
<!-- Node1&#45;&gt;Node7 -->
<g id="edge6_Node000001_Node000007" class="edge">
<title>Node1&#45;&gt;Node7</title>
<g id="a_edge6_Node000001_Node000007"><a xlink:title=" ">
<path fill="none" stroke="#63b8ff" d="M271.47,-245.15C263.63,-236.34 254.06,-225.56 246.55,-217.11"/>
<polygon fill="#63b8ff" stroke="#63b8ff" points="269.07,-247.72 278.33,-252.87 274.3,-243.07 269.07,-247.72"/>
</a>
</g>
</g>
<!-- Node9 -->
<g id="Node000009" class="node">
<title>Node9</title>
<g id="a_Node000009"><a xlink:href="middleware_8hpp.html" target="_top" xlink:title=" ">
<polygon fill="white" stroke="#666666" points="608,-145.5 430,-145.5 430,-126.5 608,-126.5 608,-145.5"/>
<text text-anchor="middle" x="519" y="-133.5" font-family="Helvetica,sans-Serif" font-size="10.00">include/rest_cpp/middleware.hpp</text>
</a>
</g>
</g>
<!-- Node1&#45;&gt;Node9 -->
<g id="edge11_Node000001_Node000009" class="edge">
<title>Node1&#45;&gt;Node9</title>
<g id="a_edge11_Node000001_Node000009"><a xlink:title=" ">
<path fill="none" stroke="#63b8ff" d="M311.12,-248.08C359.18,-222.4 462.93,-166.96 502.87,-145.62"/>
<polygon fill="#63b8ff" stroke="#63b8ff" points="309.19,-245.14 302.02,-252.94 312.48,-251.32 309.19,-245.14"/>
</a>
</g>
</g>
<!-- Node3 -->
<g id="Node000003" class="node">
<title>Node3</title>
<g id="a_Node000003"><a xlink:href="pagination_8hpp.html" target="_top" xlink:title=" ">
<polygon fill="white" stroke="#666666" points="172,-19 0,-19 0,0 172,0 172,-19"/>
<text text-anchor="middle" x="86" y="-7" font-family="Helvetica,sans-Serif" font-size="10.00">include/rest_cpp/pagination.hpp</text>
</a>
</g>
</g>
<!-- Node2&#45;&gt;Node3 -->
<g id="edge2_Node000002_Node000003" class="edge">
<title>Node2&#45;&gt;Node3</title>
<g id="a_edge2_Node000002_Node000003"><a xlink:title=" ">
<path fill="none" stroke="#63b8ff" d="M107.37,-46.22C101.72,-36.78 95.51,-26.39 91.24,-19.27"/>
<polygon fill="#63b8ff" stroke="#63b8ff" points="104.39,-48.05 112.53,-54.84 110.4,-44.46 104.39,-48.05"/>
</a>
</g>
</g>
<!-- Node4 -->
<g id="Node000004" class="node">
<title>Node4</title>
<g id="a_Node000004"><a xlink:href="async__client_8cpp.html" target="_top" xlink:title=" ">
<polygon fill="white" stroke="#666666" points="305.5,-19 190.5,-19 190.5,0 305.5,0 305.5,-19"/>
<text text-anchor="middle" x="248" y="-7" font-family="Helvetica,sans-Serif" font-size="10.00">src/async_client.cpp</text>
</a>
</g>
</g>
<!-- Node2&#45;&gt;Node4 -->
<g id="edge3_Node000002_Node000004" class="edge">
<title>Node2&#45;&gt;Node4</title>
<g id="a_edge3_Node000002_Node000004"><a xlink:title=" ">
<path fill="none" stroke="#63b8ff" d="M160.57,-50.77C183.47,-40.22 211.24,-27.43 229.24,-19.14"/>
<polygon fill="#63b8ff" stroke="#63b8ff" points="159.04,-47.62 151.42,-54.99 161.97,-53.98 159.04,-47.62"/>
</a>
</g>
</g>
<!-- Node6 -->
<g id="Node000006" class="node">
<title>Node6</title>
<g id="a_Node000006"><a xlink:href="client_8cpp.html" target="_top" xlink:title=" ">
<polygon fill="white" stroke="#666666" points="406.5,-79.5 325.5,-79.5 325.5,-60.5 406.5,-60.5 406.5,-79.5"/>
<text text-anchor="middle" x="366" y="-67.5" font-family="Helvetica,sans-Serif" font-size="10.00">src/client.cpp</text>
</a>
</g>
</g>
<!-- Node5&#45;&gt;Node6 -->
<g id="edge5_Node000005_Node000006" class="edge">
<title>Node5&#45;&gt;Node6</title>
<g id="a_edge5_Node000005_Node000006"><a xlink:title=" ">
<path fill="none" stroke="#63b8ff" d="M345.79,-117.18C351.1,-105.05 357.9,-89.51 362.1,-79.91"/>
<polygon fill="#63b8ff" stroke="#63b8ff" points="342.58,-115.8 341.78,-126.37 348.99,-118.61 342.58,-115.8"/>
</a>
</g>
</g>
<!-- Node7&#45;&gt;Node5 -->
<g id="edge7_Node000007_Node000005" class="edge">
<title>Node7&#45;&gt;Node5</title>
<g id="a_edge7_Node000007_Node000005"><a xlink:title=" ">
<path fill="none" stroke="#63b8ff" d="M265.45,-181.65C285.03,-169.6 309.25,-154.69 324.16,-145.52"/>
<polygon fill="#63b8ff" stroke="#63b8ff" points="263.51,-178.73 256.82,-186.95 267.17,-184.69 263.51,-178.73"/>
</a>
</g>
</g>
<!-- Node8 -->
<g id="Node000008" class="node">
<title>Node8</title>
<g id="a_Node000008"><a xlink:href="connection__pool_8hpp.html" target="_top" xlink:title=" ">
<polygon fill="white" stroke="#666666" points="246,-151 94,-151 94,-121 246,-121 246,-151"/>
<text text-anchor="start" x="102" y="-139" font-family="Helvetica,sans-Serif" font-size="10.00">include/rest_cpp/connection</text>
<text text-anchor="middle" x="170" y="-128" font-family="Helvetica,sans-Serif" font-size="10.00">/connection_pool.hpp</text>
</a>
</g>
</g>
<!-- Node7&#45;&gt;Node8 -->
<g id="edge8_Node000007_Node000008" class="edge">
<title>Node7&#45;&gt;Node8</title>
<g id="a_edge8_Node000007_Node000008"><a xlink:title=" ">
<path fill="none" stroke="#63b8ff" d="M212.65,-179.65C203.27,-170.27 192.53,-159.53 184.16,-151.16"/>
<polygon fill="#63b8ff" stroke="#63b8ff" points="210.25,-182.2 219.8,-186.8 215.2,-177.25 210.25,-182.2"/>
</a>
</g>
</g>
<!-- Node8&#45;&gt;Node2 -->
<g id="edge9_Node000008_Node000002" class="edge">
<title>Node8&#45;&gt;Node2</title>
<g id="a_edge9_Node000008_Node000002"><a xlink:title=" ">
<path fill="none" stroke="#63b8ff" d="M153.01,-112.81C145.99,-103.64 138.06,-93.28 131.84,-85.16"/>
<polygon fill="#63b8ff" stroke="#63b8ff" points="150.27,-114.98 159.13,-120.8 155.83,-110.73 150.27,-114.98"/>
</a>
</g>
</g>
<!-- Node8&#45;&gt;Node4 -->
<g id="edge10_Node000008_Node000004" class="edge">
<title>Node8&#45;&gt;Node4</title>
<g id="a_edge10_Node000008_Node000004"><a xlink:title=" ">
<path fill="none" stroke="#63b8ff" d="M184.43,-111.96C202,-83.93 230.77,-38 242.63,-19.07"/>
<polygon fill="#63b8ff" stroke="#63b8ff" points="181.29,-110.39 178.95,-120.72 187.22,-114.1 181.29,-110.39"/>
</a>
</g>
</g>
<!-- Node9&#45;&gt;Node4 -->
<g id="edge12_Node000009_Node000004" class="edge">
<title>Node9&#45;&gt;Node4</title>
<g id="a_edge12_Node000009_Node000004"><a xlink:title=" ">
<path fill="none" stroke="#63b8ff" d="M503.24,-119.4C484.15,-101.36 450.27,-71.96 416,-55 379.9,-37.13 335.76,-25.8 301.79,-19.04"/>
<polygon fill="#63b8ff" stroke="#63b8ff" points="500.84,-121.96 510.47,-126.37 505.7,-116.91 500.84,-121.96"/>
</a>
</g>
</g>
<!-- Node9&#45;&gt;Node6 -->
<g id="edge13_Node000009_Node000006" class="edge">
<title>Node9&#45;&gt;Node6</title>
<g id="a_edge13_Node000009_Node000006"><a xlink:title=" ">
<path fill="none" stroke="#63b8ff" d="M488.78,-122.36C458.63,-109.75 413.11,-90.71 386.8,-79.7"/>
<polygon fill="#63b8ff" stroke="#63b8ff" points="487.79,-125.74 498.37,-126.37 490.49,-119.28 487.79,-125.74"/>
</a>
</g>
</g>
</g>
</svg>
