<?xml version="1.0" encoding="UTF-8" standalone="no"?>
<!DOCTYPE svg PUBLIC "-//W3C//DTD SVG 1.1//EN"
 "http://www.w3.org/Graphics/SVG/1.1/DTD/svg11.dtd">
<!-- Generated by graphviz version 2.43.0 (0)
 -->
<!-- Title: include/rest_cpp/request.hpp Pages: 1 -->
<svg width="1363pt" height="258pt"
 viewBox="0.00 0.00 1363.00 258.00" xmlns="http://www.w3.org/2000/svg" xmlns:xlink="http://www.w3.org/1999/xlink">
<g id="graph0" class="graph" transform="scale(1 1) rotate(0) translate(4 254)">
<title>include/rest_cpp/request.hpp</title>
<!-- Node1 -->
<g id="Node000001" class="node">
<title>Node1</title>
<g id="a_Node000001"><a xlink:title=" ">
<polygon fill="#999999" stroke="#666666" points="311.5,-250 154.5,-250 154.5,-231 311.5,-231 311.5,-250"/>
<text text-anchor="middle" x="233" y="-238" font-family="Helvetica,sans-Serif" font-size="10.00">include/rest_cpp/request.hpp</text>
</a>
</g>
</g>
<!-- Node2 -->
<g id="Node000002" class="node">
<title>Node2</title>
<g id="a_Node000002"><a xlink:title=" ">
<polygon fill="#e0e0e0" stroke="#999999" points="56,-195 0,-195 0,-176 56,-176 56,-195"/>
<text text-anchor="middle" x="28" y="-183" font-family="Helvetica,sans-Serif" font-size="10.00">optional</text>
</a>
</g>
</g>
<!-- Node1&#45;&gt;Node2 -->
<g id="edge1_Node000001_Node000002" class="edge">
<title>Node1&#45;&gt;Node2</title>
<g id="a_edge1_Node000001_Node000002"><a xlink:title=" ">
<path fill="none" stroke="#63b8ff" d="M200.06,-230.98C163.49,-221.53 104.55,-206.29 66.04,-196.33"/>
<polygon fill="#63b8ff" stroke="#63b8ff" points="66.79,-192.91 56.24,-193.8 65.04,-199.69 66.79,-192.91"/>
</a>
</g>
</g>
<!-- Node3 -->
<g id="Node000003" class="node">
<title>Node3</title>
<g id="a_Node000003"><a xlink:title=" ">
<polygon fill="#e0e0e0" stroke="#999999" points="999,-19 955,-19 955,0 999,0 999,-19"/>
<text text-anchor="middle" x="977" y="-7" font-family="Helvetica,sans-Serif" font-size="10.00">string</text>
</a>
</g>
</g>
<!-- Node1&#45;&gt;Node3 -->
<g id="edge2_Node000001_Node000003" class="edge">
<title>Node1&#45;&gt;Node3</title>
<g id="a_edge2_Node000001_Node000003"><a xlink:title=" ">
<path fill="none" stroke="#63b8ff" d="M186.06,-230.95C163.32,-224.58 137.28,-213.63 120,-195 93.8,-166.75 77.34,-138.74 103,-110 160.29,-45.82 793.92,-17.53 944.86,-11.68"/>
<polygon fill="#63b8ff" stroke="#63b8ff" points="945.02,-15.17 954.88,-11.29 944.76,-8.18 945.02,-15.17"/>
</a>
</g>
</g>
<!-- Node4 -->
<g id="Node000004" class="node">
<title>Node4</title>
<g id="a_Node000004"><a xlink:title=" ">
<polygon fill="#e0e0e0" stroke="#999999" points="222.5,-195 129.5,-195 129.5,-176 222.5,-176 222.5,-195"/>
<text text-anchor="middle" x="176" y="-183" font-family="Helvetica,sans-Serif" font-size="10.00">unordered_map</text>
</a>
</g>
</g>
<!-- Node1&#45;&gt;Node4 -->
<g id="edge3_Node000001_Node000004" class="edge">
<title>Node1&#45;&gt;Node4</title>
<g id="a_edge3_Node000001_Node000004"><a xlink:title=" ">
<path fill="none" stroke="#63b8ff" d="M223.84,-230.98C215.5,-223.23 202.97,-211.58 192.82,-202.14"/>
<polygon fill="#63b8ff" stroke="#63b8ff" points="195.03,-199.42 185.32,-195.17 190.26,-204.54 195.03,-199.42"/>
</a>
</g>
</g>
<!-- Node5 -->
<g id="Node000005" class="node">
<title>Node5</title>
<g id="a_Node000005"><a xlink:href="http__method_8hpp.html" target="_top" xlink:title=" ">
<polygon fill="white" stroke="#666666" points="341,-195 241,-195 241,-176 341,-176 341,-195"/>
<text text-anchor="middle" x="291" y="-183" font-family="Helvetica,sans-Serif" font-size="10.00">http_method.hpp</text>
</a>
</g>
</g>
<!-- Node1&#45;&gt;Node5 -->
<g id="edge4_Node000001_Node000005" class="edge">
<title>Node1&#45;&gt;Node5</title>
<g id="a_edge4_Node000001_Node000005"><a xlink:title=" ">
<path fill="none" stroke="#63b8ff" d="M242.32,-230.98C250.81,-223.23 263.56,-211.58 273.88,-202.14"/>
<polygon fill="#63b8ff" stroke="#63b8ff" points="276.49,-204.5 281.51,-195.17 271.77,-199.33 276.49,-204.5"/>
</a>
</g>
</g>
<!-- Node8 -->
<g id="Node000008" class="node">
<title>Node8</title>
<g id="a_Node000008"><a xlink:href="endpoint_8hpp.html" target="_top" xlink:title=" ">
<polygon fill="white" stroke="#666666" points="642.5,-195 517.5,-195 517.5,-176 642.5,-176 642.5,-195"/>
<text text-anchor="middle" x="580" y="-183" font-family="Helvetica,sans-Serif" font-size="10.00">rest_cpp/endpoint.hpp</text>
</a>
</g>
</g>
<!-- Node1&#45;&gt;Node8 -->
<g id="edge7_Node000001_Node000008" class="edge">
<title>Node1&#45;&gt;Node8</title>
<g id="a_edge7_Node000001_Node000008"><a xlink:title=" ">
<path fill="none" stroke="#63b8ff" d="M288.75,-230.98C350.13,-221.61 448.72,-206.55 513.93,-196.59"/>
<polygon fill="#63b8ff" stroke="#63b8ff" points="514.74,-200.01 524.1,-195.04 513.69,-193.09 514.74,-200.01"/>
</a>
</g>
</g>
<!-- Node14 -->
<g id="Node000014" class="node">
<title>Node14</title>
<g id="a_Node000014"><a xlink:href="url_8hpp.html" target="_top" xlink:title=" ">
<polygon fill="white" stroke="#666666" points="1034,-195 984,-195 984,-176 1034,-176 1034,-195"/>
<text text-anchor="middle" x="1009" y="-183" font-family="Helvetica,sans-Serif" font-size="10.00">url.hpp</text>
</a>
</g>
</g>
<!-- Node1&#45;&gt;Node14 -->
<g id="edge13_Node000001_Node000014" class="edge">
<title>Node1&#45;&gt;Node14</title>
<g id="a_edge13_Node000001_Node000014"><a xlink:title=" ">
<path fill="none" stroke="#63b8ff" d="M311.68,-234.13C477.2,-222.82 855.87,-196.96 973.48,-188.93"/>
<polygon fill="#63b8ff" stroke="#63b8ff" points="973.98,-192.4 983.72,-188.23 973.5,-185.42 973.98,-192.4"/>
</a>
</g>
</g>
<!-- Node6 -->
<g id="Node000006" class="node">
<title>Node6</title>
<g id="a_Node000006"><a xlink:title=" ">
<polygon fill="#e0e0e0" stroke="#999999" points="231.5,-134.5 112.5,-134.5 112.5,-115.5 231.5,-115.5 231.5,-134.5"/>
<text text-anchor="middle" x="172" y="-122.5" font-family="Helvetica,sans-Serif" font-size="10.00">boost/beast/core.hpp</text>
</a>
</g>
</g>
<!-- Node5&#45;&gt;Node6 -->
<g id="edge5_Node000005_Node000006" class="edge">
<title>Node5&#45;&gt;Node6</title>
<g id="a_edge5_Node000005_Node000006"><a xlink:title=" ">
<path fill="none" stroke="#63b8ff" d="M273.7,-175.99C253.95,-166.29 221.45,-150.31 198.51,-139.03"/>
<polygon fill="#63b8ff" stroke="#63b8ff" points="199.84,-135.79 189.32,-134.52 196.75,-142.07 199.84,-135.79"/>
</a>
</g>
</g>
<!-- Node7 -->
<g id="Node000007" class="node">
<title>Node7</title>
<g id="a_Node000007"><a xlink:title=" ">
<polygon fill="#e0e0e0" stroke="#999999" points="366.5,-134.5 249.5,-134.5 249.5,-115.5 366.5,-115.5 366.5,-134.5"/>
<text text-anchor="middle" x="308" y="-122.5" font-family="Helvetica,sans-Serif" font-size="10.00">boost/beast/http.hpp</text>
</a>
</g>
</g>
<!-- Node5&#45;&gt;Node7 -->
<g id="edge6_Node000005_Node000007" class="edge">
<title>Node5&#45;&gt;Node7</title>
<g id="a_edge6_Node000005_Node000007"><a xlink:title=" ">
<path fill="none" stroke="#63b8ff" d="M293.51,-175.87C295.89,-167.66 299.56,-155.04 302.61,-144.55"/>
<polygon fill="#63b8ff" stroke="#63b8ff" points="306.05,-145.25 305.48,-134.67 299.33,-143.29 306.05,-145.25"/>
</a>
</g>
</g>
<!-- Node9 -->
<g id="Node000009" class="node">
<title>Node9</title>
<g id="a_Node000009"><a xlink:title=" ">
<polygon fill="#e0e0e0" stroke="#999999" points="463.5,-134.5 384.5,-134.5 384.5,-115.5 463.5,-115.5 463.5,-134.5"/>
<text text-anchor="middle" x="424" y="-122.5" font-family="Helvetica,sans-Serif" font-size="10.00">openssl/err.h</text>
</a>
</g>
</g>
<!-- Node8&#45;&gt;Node9 -->
<g id="edge8_Node000008_Node000009" class="edge">
<title>Node8&#45;&gt;Node9</title>
<g id="a_edge8_Node000008_Node000009"><a xlink:title=" ">
<path fill="none" stroke="#63b8ff" d="M557.32,-175.99C530.74,-166.03 486.52,-149.45 456.36,-138.13"/>
<polygon fill="#63b8ff" stroke="#63b8ff" points="457.3,-134.75 446.71,-134.52 454.85,-141.31 457.3,-134.75"/>
</a>
</g>
</g>
<!-- Node10 -->
<g id="Node000010" class="node">
<title>Node10</title>
<g id="a_Node000010"><a xlink:title=" ">
<polygon fill="#e0e0e0" stroke="#999999" points="562,-134.5 482,-134.5 482,-115.5 562,-115.5 562,-134.5"/>
<text text-anchor="middle" x="522" y="-122.5" font-family="Helvetica,sans-Serif" font-size="10.00">openssl/ssl.h</text>
</a>
</g>
</g>
<!-- Node8&#45;&gt;Node10 -->
<g id="edge9_Node000008_Node000010" class="edge">
<title>Node8&#45;&gt;Node10</title>
<g id="a_edge9_Node000008_Node000010"><a xlink:title=" ">
<path fill="none" stroke="#63b8ff" d="M571.44,-175.87C562.62,-166.97 548.66,-152.89 537.82,-141.95"/>
<polygon fill="#63b8ff" stroke="#63b8ff" points="540.12,-139.3 530.59,-134.67 535.15,-144.23 540.12,-139.3"/>
</a>
</g>
</g>
<!-- Node11 -->
<g id="Node000011" class="node">
<title>Node11</title>
<g id="a_Node000011"><a xlink:title=" ">
<polygon fill="#e0e0e0" stroke="#999999" points="696,-140 580,-140 580,-110 696,-110 696,-140"/>
<text text-anchor="start" x="588" y="-128" font-family="Helvetica,sans-Serif" font-size="10.00">boost/beast/core/tcp</text>
<text text-anchor="middle" x="638" y="-117" font-family="Helvetica,sans-Serif" font-size="10.00">_stream.hpp</text>
</a>
</g>
</g>
<!-- Node8&#45;&gt;Node11 -->
<g id="edge10_Node000008_Node000011" class="edge">
<title>Node8&#45;&gt;Node11</title>
<g id="a_edge10_Node000008_Node000011"><a xlink:title=" ">
<path fill="none" stroke="#63b8ff" d="M588.56,-175.87C595.99,-168.37 607.07,-157.2 616.86,-147.33"/>
<polygon fill="#63b8ff" stroke="#63b8ff" points="619.45,-149.68 624.01,-140.11 614.48,-144.75 619.45,-149.68"/>
</a>
</g>
</g>
<!-- Node12 -->
<g id="Node000012" class="node">
<title>Node12</title>
<g id="a_Node000012"><a xlink:title=" ">
<polygon fill="#e0e0e0" stroke="#999999" points="821.5,-140 714.5,-140 714.5,-110 821.5,-110 821.5,-140"/>
<text text-anchor="start" x="722.5" y="-128" font-family="Helvetica,sans-Serif" font-size="10.00">boost/beast/ssl/ssl</text>
<text text-anchor="middle" x="768" y="-117" font-family="Helvetica,sans-Serif" font-size="10.00">_stream.hpp</text>
</a>
</g>
</g>
<!-- Node8&#45;&gt;Node12 -->
<g id="edge11_Node000008_Node000012" class="edge">
<title>Node8&#45;&gt;Node12</title>
<g id="a_edge11_Node000008_Node000012"><a xlink:title=" ">
<path fill="none" stroke="#63b8ff" d="M607.34,-175.99C634.98,-167.39 678.48,-153.86 713.25,-143.04"/>
<polygon fill="#63b8ff" stroke="#63b8ff" points="714.29,-146.38 722.8,-140.06 712.21,-139.69 714.29,-146.38"/>
</a>
</g>
</g>
<!-- Node13 -->
<g id="Node000013" class="node">
<title>Node13</title>
<g id="a_Node000013"><a xlink:title=" ">
<polygon fill="#e0e0e0" stroke="#999999" points="948.5,-140 839.5,-140 839.5,-110 948.5,-110 948.5,-140"/>
<text text-anchor="start" x="847.5" y="-128" font-family="Helvetica,sans-Serif" font-size="10.00">boost/system/error</text>
<text text-anchor="middle" x="894" y="-117" font-family="Helvetica,sans-Serif" font-size="10.00">_code.hpp</text>
</a>
</g>
</g>
<!-- Node8&#45;&gt;Node13 -->
<g id="edge12_Node000008_Node000013" class="edge">
<title>Node8&#45;&gt;Node13</title>
<g id="a_edge12_Node000008_Node000013"><a xlink:title=" ">
<path fill="none" stroke="#63b8ff" d="M632.04,-175.95C680.7,-167.8 755.65,-154.86 829.46,-140.26"/>
<polygon fill="#63b8ff" stroke="#63b8ff" points="830.27,-143.67 839.39,-138.29 828.9,-136.8 830.27,-143.67"/>
</a>
</g>
</g>
<!-- Node14&#45;&gt;Node3 -->
<g id="edge14_Node000014_Node000003" class="edge">
<title>Node14&#45;&gt;Node3</title>
<g id="a_edge14_Node000014_Node000003"><a xlink:title=" ">
<path fill="none" stroke="#63b8ff" d="M1006.32,-175.7C1003.67,-166.78 999.65,-152.53 997,-140 988.72,-100.82 982.37,-54.29 979.21,-29.04"/>
<polygon fill="#63b8ff" stroke="#63b8ff" points="982.68,-28.55 977.99,-19.04 975.73,-29.39 982.68,-28.55"/>
</a>
</g>
</g>
<!-- Node15 -->
<g id="Node000015" class="node">
<title>Node15</title>
<g id="a_Node000015"><a xlink:title=" ">
<polygon fill="#e0e0e0" stroke="#999999" points="1078.5,-134.5 1005.5,-134.5 1005.5,-115.5 1078.5,-115.5 1078.5,-134.5"/>
<text text-anchor="middle" x="1042" y="-122.5" font-family="Helvetica,sans-Serif" font-size="10.00">string_view</text>
</a>
</g>
</g>
<!-- Node14&#45;&gt;Node15 -->
<g id="edge15_Node000014_Node000015" class="edge">
<title>Node14&#45;&gt;Node15</title>
<g id="a_edge15_Node000014_Node000015"><a xlink:title=" ">
<path fill="none" stroke="#63b8ff" d="M1013.87,-175.87C1018.65,-167.4 1026.07,-154.24 1032.09,-143.57"/>
<polygon fill="#63b8ff" stroke="#63b8ff" points="1035.25,-145.1 1037.11,-134.67 1029.15,-141.66 1035.25,-145.1"/>
</a>
</g>
</g>
<!-- Node16 -->
<g id="Node000016" class="node">
<title>Node16</title>
<g id="a_Node000016"><a xlink:href="result_8hpp.html" target="_top" xlink:title=" ">
<polygon fill="white" stroke="#666666" points="1189.5,-134.5 1124.5,-134.5 1124.5,-115.5 1189.5,-115.5 1189.5,-134.5"/>
<text text-anchor="middle" x="1157" y="-122.5" font-family="Helvetica,sans-Serif" font-size="10.00">result.hpp</text>
</a>
</g>
</g>
<!-- Node14&#45;&gt;Node16 -->
<g id="edge16_Node000014_Node000016" class="edge">
<title>Node14&#45;&gt;Node16</title>
<g id="a_edge16_Node000014_Node000016"><a xlink:title=" ">
<path fill="none" stroke="#63b8ff" d="M1030.52,-175.99C1055.62,-166.07 1097.32,-149.59 1125.93,-138.28"/>
<polygon fill="#63b8ff" stroke="#63b8ff" points="1127.44,-141.45 1135.45,-134.52 1124.87,-134.94 1127.44,-141.45"/>
</a>
</g>
</g>
<!-- Node17 -->
<g id="Node000017" class="node">
<title>Node17</title>
<g id="a_Node000017"><a xlink:title=" ">
<polygon fill="#e0e0e0" stroke="#999999" points="1057,-74 1005,-74 1005,-55 1057,-55 1057,-74"/>
<text text-anchor="middle" x="1031" y="-62" font-family="Helvetica,sans-Serif" font-size="10.00">cassert</text>
</a>
</g>
</g>
<!-- Node16&#45;&gt;Node17 -->
<g id="edge17_Node000016_Node000017" class="edge">
<title>Node16&#45;&gt;Node17</title>
<g id="a_edge17_Node000016_Node000017"><a xlink:title=" ">
<path fill="none" stroke="#63b8ff" d="M1138.68,-115.49C1117.59,-105.7 1082.74,-89.52 1058.42,-78.23"/>
<polygon fill="#63b8ff" stroke="#63b8ff" points="1059.89,-75.05 1049.34,-74.02 1056.94,-81.4 1059.89,-75.05"/>
</a>
</g>
</g>
<!-- Node18 -->
<g id="Node000018" class="node">
<title>Node18</title>
<g id="a_Node000018"><a xlink:title=" ">
<polygon fill="#e0e0e0" stroke="#999999" points="1144.5,-74 1075.5,-74 1075.5,-55 1144.5,-55 1144.5,-74"/>
<text text-anchor="middle" x="1110" y="-62" font-family="Helvetica,sans-Serif" font-size="10.00">type_traits</text>
</a>
</g>
</g>
<!-- Node16&#45;&gt;Node18 -->
<g id="edge18_Node000016_Node000018" class="edge">
<title>Node16&#45;&gt;Node18</title>
<g id="a_edge18_Node000016_Node000018"><a xlink:title=" ">
<path fill="none" stroke="#63b8ff" d="M1150.06,-115.37C1143.05,-106.64 1132.04,-92.93 1123.33,-82.09"/>
<polygon fill="#63b8ff" stroke="#63b8ff" points="1125.96,-79.77 1116.96,-74.17 1120.5,-84.16 1125.96,-79.77"/>
</a>
</g>
</g>
<!-- Node19 -->
<g id="Node000019" class="node">
<title>Node19</title>
<g id="a_Node000019"><a xlink:title=" ">
<polygon fill="#e0e0e0" stroke="#999999" points="1207.5,-74 1162.5,-74 1162.5,-55 1207.5,-55 1207.5,-74"/>
<text text-anchor="middle" x="1185" y="-62" font-family="Helvetica,sans-Serif" font-size="10.00">utility</text>
</a>
</g>
</g>
<!-- Node16&#45;&gt;Node19 -->
<g id="edge19_Node000016_Node000019" class="edge">
<title>Node16&#45;&gt;Node19</title>
<g id="a_edge19_Node000016_Node000019"><a xlink:title=" ">
<path fill="none" stroke="#63b8ff" d="M1161.13,-115.37C1165.14,-106.99 1171.35,-94.01 1176.44,-83.39"/>
<polygon fill="#63b8ff" stroke="#63b8ff" points="1179.69,-84.7 1180.85,-74.17 1173.38,-81.68 1179.69,-84.7"/>
</a>
</g>
</g>
<!-- Node20 -->
<g id="Node000020" class="node">
<title>Node20</title>
<g id="a_Node000020"><a xlink:title=" ">
<polygon fill="#e0e0e0" stroke="#999999" points="1276.5,-74 1225.5,-74 1225.5,-55 1276.5,-55 1276.5,-74"/>
<text text-anchor="middle" x="1251" y="-62" font-family="Helvetica,sans-Serif" font-size="10.00">variant</text>
</a>
</g>
</g>
<!-- Node16&#45;&gt;Node20 -->
<g id="edge20_Node000016_Node000020" class="edge">
<title>Node16&#45;&gt;Node20</title>
<g id="a_edge20_Node000016_Node000020"><a xlink:title=" ">
<path fill="none" stroke="#63b8ff" d="M1170.87,-115.37C1186,-105.95 1210.46,-90.73 1228.38,-79.58"/>
<polygon fill="#63b8ff" stroke="#63b8ff" points="1230.43,-82.42 1237.07,-74.17 1226.73,-76.48 1230.43,-82.42"/>
</a>
</g>
</g>
<!-- Node21 -->
<g id="Node000021" class="node">
<title>Node21</title>
<g id="a_Node000021"><a xlink:href="error_8hpp.html" target="_top" xlink:title=" ">
<polygon fill="white" stroke="#666666" points="1355,-74 1295,-74 1295,-55 1355,-55 1355,-74"/>
<text text-anchor="middle" x="1325" y="-62" font-family="Helvetica,sans-Serif" font-size="10.00">error.hpp</text>
</a>
</g>
</g>
<!-- Node16&#45;&gt;Node21 -->
<g id="edge21_Node000016_Node000021" class="edge">
<title>Node16&#45;&gt;Node21</title>
<g id="a_edge21_Node000016_Node000021"><a xlink:title=" ">
<path fill="none" stroke="#63b8ff" d="M1181.43,-115.49C1210.29,-105.44 1258.5,-88.66 1291,-77.34"/>
<polygon fill="#63b8ff" stroke="#63b8ff" points="1292.25,-80.61 1300.54,-74.02 1289.95,-74 1292.25,-80.61"/>
</a>
</g>
</g>
<!-- Node21&#45;&gt;Node3 -->
<g id="edge22_Node000021_Node000003" class="edge">
<title>Node21&#45;&gt;Node3</title>
<g id="a_edge22_Node000021_Node000003"><a xlink:title=" ">
<path fill="none" stroke="#63b8ff" d="M1294.81,-56.7C1291.84,-56.09 1288.86,-55.52 1286,-55 1185.54,-36.84 1065.63,-21.31 1009.28,-14.38"/>
<polygon fill="#63b8ff" stroke="#63b8ff" points="1009.55,-10.88 999.19,-13.14 1008.7,-17.83 1009.55,-10.88"/>
</a>
</g>
</g>
</g>
</svg>
