<?xml version="1.0" encoding="UTF-8" standalone="no"?>
<!DOCTYPE svg PUBLIC "-//W3C//DTD SVG 1.1//EN"
 "http://www.w3.org/Graphics/SVG/1.1/DTD/svg11.dtd">
<!-- Generated by graphviz version 2.43.0 (0)
 -->
<!-- Title: include/rest_cpp/response.hpp Pages: 1 -->
<svg width="772pt" height="280pt"
 viewBox="0.00 0.00 771.59 280.00" xmlns="http://www.w3.org/2000/svg" xmlns:xlink="http://www.w3.org/1999/xlink">
<g id="graph0" class="graph" transform="scale(1 1) rotate(0) translate(4 276)">
<title>include/rest_cpp/response.hpp</title>
<!-- Node1 -->
<g id="Node000001" class="node">
<title>Node1</title>
<g id="a_Node000001"><a xlink:title=" ">
<polygon fill="#999999" stroke="#666666" points="525.5,-272 361.5,-272 361.5,-253 525.5,-253 525.5,-272"/>
<text text-anchor="middle" x="443.5" y="-260" font-family="Helvetica,sans-Serif" font-size="10.00">include/rest_cpp/response.hpp</text>
</a>
</g>
</g>
<!-- Node2 -->
<g id="Node000002" class="node">
<title>Node2</title>
<g id="a_Node000002"><a xlink:href="async__client_8hpp.html" target="_top" xlink:title=" ">
<polygon fill="white" stroke="#666666" points="409.5,-85 281.5,-85 281.5,-55 409.5,-55 409.5,-85"/>
<text text-anchor="start" x="289.5" y="-73" font-family="Helvetica,sans-Serif" font-size="10.00">include/rest_cpp/async</text>
<text text-anchor="middle" x="345.5" y="-62" font-family="Helvetica,sans-Serif" font-size="10.00">_client.hpp</text>
</a>
</g>
</g>
<!-- Node1&#45;&gt;Node2 -->
<g id="edge1_Node000001_Node000002" class="edge">
<title>Node1&#45;&gt;Node2</title>
<g id="a_edge1_Node000001_Node000002"><a xlink:title=" ">
<path fill="none" stroke="#63b8ff" d="M428.56,-245.05C410.71,-224.52 381.16,-187.63 364.5,-151 354.57,-129.17 349.49,-101.54 347.17,-85.12"/>
<polygon fill="#63b8ff" stroke="#63b8ff" points="426.17,-247.63 435.42,-252.8 431.41,-242.99 426.17,-247.63"/>
</a>
</g>
</g>
<!-- Node3 -->
<g id="Node000003" class="node">
<title>Node3</title>
<g id="a_Node000003"><a xlink:href="pagination_8hpp.html" target="_top" xlink:title=" ">
<polygon fill="white" stroke="#666666" points="665.5,-19 493.5,-19 493.5,0 665.5,0 665.5,-19"/>
<text text-anchor="middle" x="579.5" y="-7" font-family="Helvetica,sans-Serif" font-size="10.00">include/rest_cpp/pagination.hpp</text>
</a>
</g>
</g>
<!-- Node1&#45;&gt;Node3 -->
<g id="edge11_Node000001_Node000003" class="edge">
<title>Node1&#45;&gt;Node3</title>
<g id="a_edge11_Node000001_Node000003"><a xlink:title=" ">
<path fill="none" stroke="#63b8ff" d="M535.75,-259.39C611.76,-251.93 713.74,-227.24 756.5,-151 794.02,-84.1 671.01,-37.44 610.77,-19.12"/>
<polygon fill="#63b8ff" stroke="#63b8ff" points="535.33,-255.91 525.68,-260.29 535.95,-262.88 535.33,-255.91"/>
</a>
</g>
</g>
<!-- Node5 -->
<g id="Node000005" class="node">
<title>Node5</title>
<g id="a_Node000005"><a xlink:href="client_8hpp.html" target="_top" xlink:title=" ">
<polygon fill="white" stroke="#666666" points="147,-145.5 0,-145.5 0,-126.5 147,-126.5 147,-145.5"/>
<text text-anchor="middle" x="73.5" y="-133.5" font-family="Helvetica,sans-Serif" font-size="10.00">include/rest_cpp/client.hpp</text>
</a>
</g>
</g>
<!-- Node1&#45;&gt;Node5 -->
<g id="edge4_Node000001_Node000005" class="edge">
<title>Node1&#45;&gt;Node5</title>
<g id="a_edge4_Node000001_Node000005"><a xlink:title=" ">
<path fill="none" stroke="#63b8ff" d="M351.17,-253.27C280.59,-245.86 189.92,-233.58 156.5,-217 121.54,-199.66 91.68,-162.32 79.44,-145.51"/>
<polygon fill="#63b8ff" stroke="#63b8ff" points="351.12,-256.78 361.43,-254.33 351.84,-249.82 351.12,-256.78"/>
</a>
</g>
</g>
<!-- Node7 -->
<g id="Node000007" class="node">
<title>Node7</title>
<g id="a_Node000007"><a xlink:href="connection_8hpp.html" target="_top" xlink:title=" ">
<polygon fill="white" stroke="#666666" points="317.5,-217 165.5,-217 165.5,-187 317.5,-187 317.5,-217"/>
<text text-anchor="start" x="173.5" y="-205" font-family="Helvetica,sans-Serif" font-size="10.00">include/rest_cpp/connection</text>
<text text-anchor="middle" x="241.5" y="-194" font-family="Helvetica,sans-Serif" font-size="10.00">/connection.hpp</text>
</a>
</g>
</g>
<!-- Node1&#45;&gt;Node7 -->
<g id="edge6_Node000001_Node000007" class="edge">
<title>Node1&#45;&gt;Node7</title>
<g id="a_edge6_Node000001_Node000007"><a xlink:title=" ">
<path fill="none" stroke="#63b8ff" d="M404.48,-250.2C371.84,-240.75 325.12,-227.22 290.06,-217.06"/>
<polygon fill="#63b8ff" stroke="#63b8ff" points="403.55,-253.57 414.13,-252.99 405.5,-246.85 403.55,-253.57"/>
</a>
</g>
</g>
<!-- Node9 -->
<g id="Node000009" class="node">
<title>Node9</title>
<g id="a_Node000009"><a xlink:href="serialize__impl_8hpp.html" target="_top" xlink:title=" ">
<polygon fill="white" stroke="#666666" points="611.5,-217 471.5,-217 471.5,-187 611.5,-187 611.5,-217"/>
<text text-anchor="start" x="479.5" y="-205" font-family="Helvetica,sans-Serif" font-size="10.00">include/rest_cpp/serialize</text>
<text text-anchor="middle" x="541.5" y="-194" font-family="Helvetica,sans-Serif" font-size="10.00">_impl.hpp</text>
</a>
</g>
</g>
<!-- Node1&#45;&gt;Node9 -->
<g id="edge12_Node000001_Node000009" class="edge">
<title>Node1&#45;&gt;Node9</title>
<g id="a_edge12_Node000001_Node000009"><a xlink:title=" ">
<path fill="none" stroke="#63b8ff" d="M466.86,-247.55C482.27,-238.36 502.39,-226.35 517.86,-217.11"/>
<polygon fill="#63b8ff" stroke="#63b8ff" points="464.75,-244.74 457.96,-252.87 468.34,-250.75 464.75,-244.74"/>
</a>
</g>
</g>
<!-- Node10 -->
<g id="Node000010" class="node">
<title>Node10</title>
<g id="a_Node000010"><a xlink:href="serialize__nlohmann_8hpp.html" target="_top" xlink:title=" ">
<polygon fill="white" stroke="#666666" points="513.5,-151 373.5,-151 373.5,-121 513.5,-121 513.5,-151"/>
<text text-anchor="start" x="381.5" y="-139" font-family="Helvetica,sans-Serif" font-size="10.00">include/rest_cpp/serialize</text>
<text text-anchor="middle" x="443.5" y="-128" font-family="Helvetica,sans-Serif" font-size="10.00">_nlohmann.hpp</text>
</a>
</g>
</g>
<!-- Node1&#45;&gt;Node10 -->
<g id="edge18_Node000001_Node000010" class="edge">
<title>Node1&#45;&gt;Node10</title>
<g id="a_edge18_Node000001_Node000010"><a xlink:title=" ">
<path fill="none" stroke="#63b8ff" d="M443.5,-242.91C443.5,-217.83 443.5,-173.72 443.5,-151.16"/>
<polygon fill="#63b8ff" stroke="#63b8ff" points="440,-242.94 443.5,-252.94 447,-242.94 440,-242.94"/>
</a>
</g>
</g>
<!-- Node11 -->
<g id="Node000011" class="node">
<title>Node11</title>
<g id="a_Node000011"><a xlink:href="serialize__simdjson_8hpp.html" target="_top" xlink:title=" ">
<polygon fill="white" stroke="#666666" points="747.5,-151 607.5,-151 607.5,-121 747.5,-121 747.5,-151"/>
<text text-anchor="start" x="615.5" y="-139" font-family="Helvetica,sans-Serif" font-size="10.00">include/rest_cpp/serialize</text>
<text text-anchor="middle" x="677.5" y="-128" font-family="Helvetica,sans-Serif" font-size="10.00">_simdjson.hpp</text>
</a>
</g>
</g>
<!-- Node1&#45;&gt;Node11 -->
<g id="edge19_Node000001_Node000011" class="edge">
<title>Node1&#45;&gt;Node11</title>
<g id="a_edge19_Node000001_Node000011"><a xlink:title=" ">
<path fill="none" stroke="#63b8ff" d="M535.72,-251.03C564.68,-244.53 595.57,-234.02 620.5,-217 645.01,-200.27 662.53,-169.32 671.25,-151.22"/>
<polygon fill="#63b8ff" stroke="#63b8ff" points="534.64,-247.68 525.57,-253.16 536.08,-254.53 534.64,-247.68"/>
</a>
</g>
</g>
<!-- Node2&#45;&gt;Node3 -->
<g id="edge2_Node000002_Node000003" class="edge">
<title>Node2&#45;&gt;Node3</title>
<g id="a_edge2_Node000002_Node000003"><a xlink:title=" ">
<path fill="none" stroke="#63b8ff" d="M411.49,-52.5C455.03,-41.62 510.29,-27.8 545.29,-19.05"/>
<polygon fill="#63b8ff" stroke="#63b8ff" points="410.4,-49.17 401.55,-54.99 412.1,-55.96 410.4,-49.17"/>
</a>
</g>
</g>
<!-- Node4 -->
<g id="Node000004" class="node">
<title>Node4</title>
<g id="a_Node000004"><a xlink:href="async__client_8cpp.html" target="_top" xlink:title=" ">
<polygon fill="white" stroke="#666666" points="351,-19 236,-19 236,0 351,0 351,-19"/>
<text text-anchor="middle" x="293.5" y="-7" font-family="Helvetica,sans-Serif" font-size="10.00">src/async_client.cpp</text>
</a>
</g>
</g>
<!-- Node2&#45;&gt;Node4 -->
<g id="edge3_Node000002_Node000004" class="edge">
<title>Node2&#45;&gt;Node4</title>
<g id="a_edge3_Node000002_Node000004"><a xlink:title=" ">
<path fill="none" stroke="#63b8ff" d="M326.02,-47.09C317.43,-37.42 307.82,-26.61 301.29,-19.27"/>
<polygon fill="#63b8ff" stroke="#63b8ff" points="323.65,-49.69 332.91,-54.84 328.88,-45.04 323.65,-49.69"/>
</a>
</g>
</g>
<!-- Node6 -->
<g id="Node000006" class="node">
<title>Node6</title>
<g id="a_Node000006"><a xlink:href="client_8cpp.html" target="_top" xlink:title=" ">
<polygon fill="white" stroke="#666666" points="114,-79.5 33,-79.5 33,-60.5 114,-60.5 114,-79.5"/>
<text text-anchor="middle" x="73.5" y="-67.5" font-family="Helvetica,sans-Serif" font-size="10.00">src/client.cpp</text>
</a>
</g>
</g>
<!-- Node5&#45;&gt;Node6 -->
<g id="edge5_Node000005_Node000006" class="edge">
<title>Node5&#45;&gt;Node6</title>
<g id="a_edge5_Node000005_Node000006"><a xlink:title=" ">
<path fill="none" stroke="#63b8ff" d="M73.5,-116.08C73.5,-104.13 73.5,-89.22 73.5,-79.91"/>
<polygon fill="#63b8ff" stroke="#63b8ff" points="70,-116.37 73.5,-126.37 77,-116.37 70,-116.37"/>
</a>
</g>
</g>
<!-- Node7&#45;&gt;Node5 -->
<g id="edge7_Node000007_Node000005" class="edge">
<title>Node7&#45;&gt;Node5</title>
<g id="a_edge7_Node000007_Node000005"><a xlink:title=" ">
<path fill="none" stroke="#63b8ff" d="M194.93,-183.26C162.62,-170.95 121.03,-155.11 95.86,-145.52"/>
<polygon fill="#63b8ff" stroke="#63b8ff" points="194.04,-186.67 204.63,-186.95 196.53,-180.12 194.04,-186.67"/>
</a>
</g>
</g>
<!-- Node8 -->
<g id="Node000008" class="node">
<title>Node8</title>
<g id="a_Node000008"><a xlink:href="connection__pool_8hpp.html" target="_top" xlink:title=" ">
<polygon fill="white" stroke="#666666" points="317.5,-151 165.5,-151 165.5,-121 317.5,-121 317.5,-151"/>
<text text-anchor="start" x="173.5" y="-139" font-family="Helvetica,sans-Serif" font-size="10.00">include/rest_cpp/connection</text>
<text text-anchor="middle" x="241.5" y="-128" font-family="Helvetica,sans-Serif" font-size="10.00">/connection_pool.hpp</text>
</a>
</g>
</g>
<!-- Node7&#45;&gt;Node8 -->
<g id="edge8_Node000007_Node000008" class="edge">
<title>Node7&#45;&gt;Node8</title>
<g id="a_edge8_Node000007_Node000008"><a xlink:title=" ">
<path fill="none" stroke="#63b8ff" d="M241.5,-176.54C241.5,-167.96 241.5,-158.61 241.5,-151.16"/>
<polygon fill="#63b8ff" stroke="#63b8ff" points="238,-176.8 241.5,-186.8 245,-176.8 238,-176.8"/>
</a>
</g>
</g>
<!-- Node8&#45;&gt;Node2 -->
<g id="edge9_Node000008_Node000002" class="edge">
<title>Node8&#45;&gt;Node2</title>
<g id="a_edge9_Node000008_Node000002"><a xlink:title=" ">
<path fill="none" stroke="#63b8ff" d="M272.87,-115.69C288.93,-105.82 308.11,-94.01 322.73,-85.01"/>
<polygon fill="#63b8ff" stroke="#63b8ff" points="271.01,-112.73 264.32,-120.95 274.67,-118.69 271.01,-112.73"/>
</a>
</g>
</g>
<!-- Node8&#45;&gt;Node4 -->
<g id="edge10_Node000008_Node000004" class="edge">
<title>Node8&#45;&gt;Node4</title>
<g id="a_edge10_Node000008_Node000004"><a xlink:title=" ">
<path fill="none" stroke="#63b8ff" d="M250.26,-111.08C256.24,-95.08 264.5,-73.64 272.5,-55 277.89,-42.44 284.75,-28.2 289.13,-19.28"/>
<polygon fill="#63b8ff" stroke="#63b8ff" points="246.88,-110.12 246.69,-120.71 253.45,-112.56 246.88,-110.12"/>
</a>
</g>
</g>
<!-- Node9&#45;&gt;Node2 -->
<g id="edge13_Node000009_Node000002" class="edge">
<title>Node9&#45;&gt;Node2</title>
<g id="a_edge13_Node000009_Node000002"><a xlink:title=" ">
<path fill="none" stroke="#63b8ff" d="M541.93,-176.71C540.92,-159.06 536.65,-135.76 522.5,-121 493.44,-90.69 447.53,-78.33 409.75,-73.47"/>
<polygon fill="#63b8ff" stroke="#63b8ff" points="538.43,-176.94 542.19,-186.85 545.43,-176.76 538.43,-176.94"/>
</a>
</g>
</g>
<!-- Node9&#45;&gt;Node3 -->
<g id="edge15_Node000009_Node000003" class="edge">
<title>Node9&#45;&gt;Node3</title>
<g id="a_edge15_Node000009_Node000003"><a xlink:title=" ">
<path fill="none" stroke="#63b8ff" d="M546.3,-176.93C554.81,-134.28 572.16,-47.31 577.73,-19.36"/>
<polygon fill="#63b8ff" stroke="#63b8ff" points="542.82,-176.5 544.29,-186.99 549.68,-177.87 542.82,-176.5"/>
</a>
</g>
</g>
<!-- Node9&#45;&gt;Node5 -->
<g id="edge14_Node000009_Node000005" class="edge">
<title>Node9&#45;&gt;Node5</title>
<g id="a_edge14_Node000009_Node000005"><a xlink:title=" ">
<path fill="none" stroke="#63b8ff" d="M461.26,-191.48C383.29,-182.02 261.61,-166.68 156.5,-151 145.37,-149.34 133.43,-147.41 122.17,-145.53"/>
<polygon fill="#63b8ff" stroke="#63b8ff" points="461.14,-194.99 471.49,-192.72 461.98,-188.04 461.14,-194.99"/>
</a>
</g>
</g>
<!-- Node9&#45;&gt;Node10 -->
<g id="edge16_Node000009_Node000010" class="edge">
<title>Node9&#45;&gt;Node10</title>
<g id="a_edge16_Node000009_Node000010"><a xlink:title=" ">
<path fill="none" stroke="#63b8ff" d="M511.34,-181.3C496.42,-171.56 478.75,-160.02 465.19,-151.16"/>
<polygon fill="#63b8ff" stroke="#63b8ff" points="509.46,-184.26 519.75,-186.8 513.29,-178.4 509.46,-184.26"/>
</a>
</g>
</g>
<!-- Node9&#45;&gt;Node11 -->
<g id="edge17_Node000009_Node000011" class="edge">
<title>Node9&#45;&gt;Node11</title>
<g id="a_edge17_Node000009_Node000011"><a xlink:title=" ">
<path fill="none" stroke="#63b8ff" d="M580.5,-182.65C601.89,-172.58 627.99,-160.3 647.72,-151.01"/>
<polygon fill="#63b8ff" stroke="#63b8ff" points="578.9,-179.53 571.35,-186.95 581.88,-185.86 578.9,-179.53"/>
</a>
</g>
</g>
</g>
</svg>
