<?xml version="1.0" encoding="UTF-8" standalone="no"?>
<!DOCTYPE svg PUBLIC "-//W3C//DTD SVG 1.1//EN"
 "http://www.w3.org/Graphics/SVG/1.1/DTD/svg11.dtd">
<!-- Generated by graphviz version 2.43.0 (0)
 -->
<!-- Title: include/rest_cpp/response.hpp Pages: 1 -->
<svg width="656pt" height="93pt"
 viewBox="0.00 0.00 655.50 93.00" xmlns="http://www.w3.org/2000/svg" xmlns:xlink="http://www.w3.org/1999/xlink">
<g id="graph0" class="graph" transform="scale(1 1) rotate(0) translate(4 89)">
<title>include/rest_cpp/response.hpp</title>
<!-- Node1 -->
<g id="Node000001" class="node">
<title>Node1</title>
<g id="a_Node000001"><a xlink:title=" ">
<polygon fill="#999999" stroke="#666666" points="492,-85 328,-85 328,-66 492,-66 492,-85"/>
<text text-anchor="middle" x="410" y="-73" font-family="Helvetica,sans-Serif" font-size="10.00">include/rest_cpp/response.hpp</text>
</a>
</g>
</g>
<!-- Node2 -->
<g id="Node000002" class="node">
<title>Node2</title>
<g id="a_Node000002"><a xlink:title=" ">
<polygon fill="#e0e0e0" stroke="#999999" points="146,-24.5 0,-24.5 0,-5.5 146,-5.5 146,-24.5"/>
<text text-anchor="middle" x="73" y="-12.5" font-family="Helvetica,sans-Serif" font-size="10.00">boost/beast/http/fields.hpp</text>
</a>
</g>
</g>
<!-- Node1&#45;&gt;Node2 -->
<g id="edge1_Node000001_Node000002" class="edge">
<title>Node1&#45;&gt;Node2</title>
<g id="a_edge1_Node000001_Node000002"><a xlink:title=" ">
<path fill="none" stroke="#63b8ff" d="M361,-65.99C300.35,-55.47 197.15,-37.55 132.15,-26.27"/>
<polygon fill="#63b8ff" stroke="#63b8ff" points="132.51,-22.78 122.06,-24.52 131.32,-29.68 132.51,-22.78"/>
</a>
</g>
</g>
<!-- Node3 -->
<g id="Node000003" class="node">
<title>Node3</title>
<g id="a_Node000003"><a xlink:title=" ">
<polygon fill="#e0e0e0" stroke="#999999" points="328,-24.5 164,-24.5 164,-5.5 328,-5.5 328,-24.5"/>
<text text-anchor="middle" x="246" y="-12.5" font-family="Helvetica,sans-Serif" font-size="10.00">boost/beast/http/message.hpp</text>
</a>
</g>
</g>
<!-- Node1&#45;&gt;Node3 -->
<g id="edge2_Node000001_Node000003" class="edge">
<title>Node1&#45;&gt;Node3</title>
<g id="a_edge2_Node000001_Node000003"><a xlink:title=" ">
<path fill="none" stroke="#63b8ff" d="M386.15,-65.99C358.1,-55.99 311.33,-39.3 279.6,-27.99"/>
<polygon fill="#63b8ff" stroke="#63b8ff" points="280.47,-24.58 269.88,-24.52 278.12,-31.17 280.47,-24.58"/>
</a>
</g>
</g>
<!-- Node4 -->
<g id="Node000004" class="node">
<title>Node4</title>
<g id="a_Node000004"><a xlink:title=" ">
<polygon fill="#e0e0e0" stroke="#999999" points="473.5,-30 346.5,-30 346.5,0 473.5,0 473.5,-30"/>
<text text-anchor="start" x="354.5" y="-18" font-family="Helvetica,sans-Serif" font-size="10.00">boost/beast/http/string</text>
<text text-anchor="middle" x="410" y="-7" font-family="Helvetica,sans-Serif" font-size="10.00">_body.hpp</text>
</a>
</g>
</g>
<!-- Node1&#45;&gt;Node4 -->
<g id="edge3_Node000001_Node000004" class="edge">
<title>Node1&#45;&gt;Node4</title>
<g id="a_edge3_Node000001_Node000004"><a xlink:title=" ">
<path fill="none" stroke="#63b8ff" d="M410,-65.87C410,-59.11 410,-49.35 410,-40.26"/>
<polygon fill="#63b8ff" stroke="#63b8ff" points="413.5,-40.11 410,-30.11 406.5,-40.11 413.5,-40.11"/>
</a>
</g>
</g>
<!-- Node5 -->
<g id="Node000005" class="node">
<title>Node5</title>
<g id="a_Node000005"><a xlink:title=" ">
<polygon fill="#e0e0e0" stroke="#999999" points="536,-24.5 492,-24.5 492,-5.5 536,-5.5 536,-24.5"/>
<text text-anchor="middle" x="514" y="-12.5" font-family="Helvetica,sans-Serif" font-size="10.00">string</text>
</a>
</g>
</g>
<!-- Node1&#45;&gt;Node5 -->
<g id="edge4_Node000001_Node000005" class="edge">
<title>Node1&#45;&gt;Node5</title>
<g id="a_edge4_Node000001_Node000005"><a xlink:title=" ">
<path fill="none" stroke="#63b8ff" d="M425.35,-65.87C442.32,-56.32 469.9,-40.81 489.79,-29.62"/>
<polygon fill="#63b8ff" stroke="#63b8ff" points="491.59,-32.62 498.59,-24.67 488.16,-26.52 491.59,-32.62"/>
</a>
</g>
</g>
<!-- Node6 -->
<g id="Node000006" class="node">
<title>Node6</title>
<g id="a_Node000006"><a xlink:title=" ">
<polygon fill="#e0e0e0" stroke="#999999" points="647.5,-24.5 554.5,-24.5 554.5,-5.5 647.5,-5.5 647.5,-24.5"/>
<text text-anchor="middle" x="601" y="-12.5" font-family="Helvetica,sans-Serif" font-size="10.00">unordered_map</text>
</a>
</g>
</g>
<!-- Node1&#45;&gt;Node6 -->
<g id="edge5_Node000001_Node000006" class="edge">
<title>Node1&#45;&gt;Node6</title>
<g id="a_edge5_Node000001_Node000006"><a xlink:title=" ">
<path fill="none" stroke="#63b8ff" d="M437.77,-65.99C470.87,-55.86 526.34,-38.87 563.29,-27.55"/>
<polygon fill="#63b8ff" stroke="#63b8ff" points="564.66,-30.79 573.19,-24.52 562.61,-24.1 564.66,-30.79"/>
</a>
</g>
</g>
</g>
</svg>
