<?xml version="1.0" encoding="UTF-8" standalone="no"?>
<!DOCTYPE svg PUBLIC "-//W3C//DTD SVG 1.1//EN"
 "http://www.w3.org/Graphics/SVG/1.1/DTD/svg11.dtd">
<!-- Generated by graphviz version 2.43.0 (0)
 -->
<!-- Title: include/rest_cpp/result.hpp Pages: 1 -->
<!--zoomable 390 -->

<svg id="main" version="1.1" xmlns="http://www.w3.org/2000/svg" xmlns:xlink="http://www.w3.org/1999/xlink" xml:space="preserve" onload="init(evt)">
<style type="text/css"><![CDATA[
.node, .edge {opacity: 0.7;}
.node.selected, .edge.selected {opacity: 1;}
.edge:hover path { stroke: red; }
.edge:hover polygon { stroke: red; fill: red; }
]]></style>

<defs>
  <circle id="rim" cx="0" cy="0" r="7"/>
  <circle id="rim2" cx="0" cy="0" r="3.5"/>
  <g id="zoomPlus">
    <use xlink:href="#rim" fill="#404040"><set attributeName="fill" to="#808080" begin="zoomplus.mouseover" end="zoomplus.mouseout"/></use>
    <path d="M-4,0h8M0,-4v8" fill="none" stroke="white" stroke-width="1.5" pointer-events="none"/>
  </g>
  <g id="zoomMin">
    <use xlink:href="#rim" fill="#404040"><set attributeName="fill" to="#808080" begin="zoomminus.mouseover" end="zoomminus.mouseout"/></use>
    <path d="M-4,0h8" fill="none" stroke="white" stroke-width="1.5" pointer-events="none"/>
  </g>
  <g id="arrowUp" transform="translate(30 24)">
    <use xlink:href="#rim"/>
    <path pointer-events="none" fill="none" stroke="white" stroke-width="1.5" d="M0,-3.0v7 M-2.5,-0.5L0,-3.0L2.5,-0.5"/>
  </g>
  <g id="arrowRight" transform="rotate(90) translate(36 -43)">
    <use xlink:href="#rim"/>
    <path pointer-events="none" fill="none" stroke="white" stroke-width="1.5" d="M0,-3.0v7 M-2.5,-0.5L0,-3.0L2.5,-0.5"/>
  </g>
  <g id="arrowDown" transform="rotate(180) translate(-30 -48)">
    <use xlink:href="#rim"/>
    <path pointer-events="none" fill="none" stroke="white" stroke-width="1.5" d="M0,-3.0v7 M-2.5,-0.5L0,-3.0L2.5,-0.5"/>
  </g>
  <g id="arrowLeft" transform="rotate(270) translate(-36 17)">
    <use xlink:href="#rim"/>
    <path pointer-events="none" fill="none" stroke="white" stroke-width="1.5" d="M0,-3.0v7 M-2.5,-0.5L0,-3.0L2.5,-0.5"/>
  </g>
  <g id="resetDef">
    <use xlink:href="#rim2" fill="#404040"><set attributeName="fill" to="#808080" begin="reset.mouseover" end="reset.mouseout"/></use>
  </g>
</defs>
<script type="application/ecmascript">
var viewWidth = 753;
var viewHeight = 390;
var sectionId = 'dynsection-1';
</script>
<script type="application/ecmascript" xlink:href="svg.min.js"/>
<svg id="graph" class="graph">
<g id="viewport">
<title>include/rest_cpp/result.hpp</title>
<!-- Node1 -->
<g id="Node000001" class="node">
<title>Node1</title>
<g id="a_Node000001"><a xlink:title=" ">
<polygon fill="#999999" stroke="#666666" points="238,-382 90,-382 90,-363 238,-363 238,-382"/>
<text text-anchor="middle" x="164" y="-370" font-family="Helvetica,sans-Serif" font-size="10.00">include/rest_cpp/result.hpp</text>
</a>
</g>
</g>
<!-- Node2 -->
<g id="Node000002" class="node">
<title>Node2</title>
<g id="a_Node000002"><a xlink:href="async__client_8hpp.html" target="_top" xlink:title=" ">
<polygon fill="white" stroke="#666666" points="184,-85 56,-85 56,-55 184,-55 184,-85"/>
<text text-anchor="start" x="64" y="-73" font-family="Helvetica,sans-Serif" font-size="10.00">include/rest_cpp/async</text>
<text text-anchor="middle" x="120" y="-62" font-family="Helvetica,sans-Serif" font-size="10.00">_client.hpp</text>
</a>
</g>
</g>
<!-- Node1&#45;&gt;Node2 -->
<g id="edge1_Node000001_Node000002" class="edge">
<title>Node1&#45;&gt;Node2</title>
<g id="a_edge1_Node000001_Node000002"><a xlink:title=" ">
<path fill="none" stroke="#63b8ff" d="M129.26,-359.01C91.96,-343.11 38,-311.77 38,-263.5 38,-263.5 38,-263.5 38,-201 38,-152.43 79.45,-107.22 103.41,-85.13"/>
<polygon fill="#63b8ff" stroke="#63b8ff" points="128.22,-362.37 138.8,-362.91 130.87,-355.89 128.22,-362.37"/>
</a>
</g>
</g>
<!-- Node3 -->
<g id="Node000003" class="node">
<title>Node3</title>
<g id="a_Node000003"><a xlink:href="pagination_8hpp.html" target="_top" xlink:title=" ">
<polygon fill="white" stroke="#666666" points="187,-19 15,-19 15,0 187,0 187,-19"/>
<text text-anchor="middle" x="101" y="-7" font-family="Helvetica,sans-Serif" font-size="10.00">include/rest_cpp/pagination.hpp</text>
</a>
</g>
</g>
<!-- Node1&#45;&gt;Node3 -->
<g id="edge12_Node000001_Node000003" class="edge">
<title>Node1&#45;&gt;Node3</title>
<g id="a_edge12_Node000001_Node000003"><a xlink:title=" ">
<path fill="none" stroke="#63b8ff" d="M112.09,-360.33C64.05,-346.59 0,-318.04 0,-263.5 0,-263.5 0,-263.5 0,-135 0,-80.73 58.6,-36.9 86.53,-19.09"/>
<polygon fill="#63b8ff" stroke="#63b8ff" points="111.2,-363.72 121.77,-362.97 113.04,-356.96 111.2,-363.72"/>
</a>
</g>
</g>
<!-- Node5 -->
<g id="Node000005" class="node">
<title>Node5</title>
<g id="a_Node000005"><a xlink:href="client_8hpp.html" target="_top" xlink:title=" ">
<polygon fill="white" stroke="#666666" points="482.5,-145.5 335.5,-145.5 335.5,-126.5 482.5,-126.5 482.5,-145.5"/>
<text text-anchor="middle" x="409" y="-133.5" font-family="Helvetica,sans-Serif" font-size="10.00">include/rest_cpp/client.hpp</text>
</a>
</g>
</g>
<!-- Node1&#45;&gt;Node5 -->
<g id="edge4_Node000001_Node000005" class="edge">
<title>Node1&#45;&gt;Node5</title>
<g id="a_edge4_Node000001_Node000005"><a xlink:title=" ">
<path fill="none" stroke="#63b8ff" d="M182.84,-356.61C216.1,-329.99 286.82,-271.9 341,-217 365.07,-192.61 390.46,-160.9 402.25,-145.77"/>
<polygon fill="#63b8ff" stroke="#63b8ff" points="180.51,-354 174.86,-362.97 184.87,-359.47 180.51,-354"/>
</a>
</g>
</g>
<!-- Node7 -->
<g id="Node000007" class="node">
<title>Node7</title>
<g id="a_Node000007"><a xlink:href="connection_8hpp.html" target="_top" xlink:title=" ">
<polygon fill="white" stroke="#666666" points="332,-217 180,-217 180,-187 332,-187 332,-217"/>
<text text-anchor="start" x="188" y="-205" font-family="Helvetica,sans-Serif" font-size="10.00">include/rest_cpp/connection</text>
<text text-anchor="middle" x="256" y="-194" font-family="Helvetica,sans-Serif" font-size="10.00">/connection.hpp</text>
</a>
</g>
</g>
<!-- Node1&#45;&gt;Node7 -->
<g id="edge6_Node000001_Node000007" class="edge">
<title>Node1&#45;&gt;Node7</title>
<g id="a_edge6_Node000001_Node000007"><a xlink:title=" ">
<path fill="none" stroke="#63b8ff" d="M169.08,-353.05C176.22,-328.9 190.66,-285.8 211,-253 219.25,-239.7 231.19,-226.63 240.7,-217.18"/>
<polygon fill="#63b8ff" stroke="#63b8ff" points="165.63,-352.4 166.25,-362.98 172.36,-354.32 165.63,-352.4"/>
</a>
</g>
</g>
<!-- Node8 -->
<g id="Node000008" class="node">
<title>Node8</title>
<g id="a_Node000008"><a xlink:href="connection__pool_8hpp.html" target="_top" xlink:title=" ">
<polygon fill="white" stroke="#666666" points="317,-151 165,-151 165,-121 317,-121 317,-151"/>
<text text-anchor="start" x="173" y="-139" font-family="Helvetica,sans-Serif" font-size="10.00">include/rest_cpp/connection</text>
<text text-anchor="middle" x="241" y="-128" font-family="Helvetica,sans-Serif" font-size="10.00">/connection_pool.hpp</text>
</a>
</g>
</g>
<!-- Node1&#45;&gt;Node8 -->
<g id="edge11_Node000001_Node000008" class="edge">
<title>Node1&#45;&gt;Node8</title>
<g id="a_edge11_Node000001_Node000008"><a xlink:title=" ">
<path fill="none" stroke="#63b8ff" d="M159.64,-352.94C152.49,-318.03 141.78,-241.24 171,-187 179.43,-171.35 195.15,-159.45 209.56,-151.19"/>
<polygon fill="#63b8ff" stroke="#63b8ff" points="156.23,-353.7 161.78,-362.72 163.06,-352.2 156.23,-353.7"/>
</a>
</g>
</g>
<!-- Node9 -->
<g id="Node000009" class="node">
<title>Node9</title>
<g id="a_Node000009"><a xlink:href="url_8hpp.html" target="_top" xlink:title=" ">
<polygon fill="white" stroke="#666666" points="481.5,-327 348.5,-327 348.5,-308 481.5,-308 481.5,-327"/>
<text text-anchor="middle" x="415" y="-315" font-family="Helvetica,sans-Serif" font-size="10.00">include/rest_cpp/url.hpp</text>
</a>
</g>
</g>
<!-- Node1&#45;&gt;Node9 -->
<g id="edge13_Node000001_Node000009" class="edge">
<title>Node1&#45;&gt;Node9</title>
<g id="a_edge13_Node000001_Node000009"><a xlink:title=" ">
<path fill="none" stroke="#63b8ff" d="M214.3,-360.88C261.35,-350.94 330.72,-336.3 374.36,-327.08"/>
<polygon fill="#63b8ff" stroke="#63b8ff" points="213.39,-357.49 204.33,-362.98 214.83,-364.34 213.39,-357.49"/>
</a>
</g>
</g>
<!-- Node2&#45;&gt;Node3 -->
<g id="edge2_Node000002_Node000003" class="edge">
<title>Node2&#45;&gt;Node3</title>
<g id="a_edge2_Node000002_Node000003"><a xlink:title=" ">
<path fill="none" stroke="#63b8ff" d="M112.22,-45.04C109.26,-35.93 106.07,-26.1 103.85,-19.27"/>
<polygon fill="#63b8ff" stroke="#63b8ff" points="108.98,-46.41 115.4,-54.84 115.64,-44.25 108.98,-46.41"/>
</a>
</g>
</g>
<!-- Node4 -->
<g id="Node000004" class="node">
<title>Node4</title>
<g id="a_Node000004"><a xlink:href="async__client_8cpp.html" target="_top" xlink:title=" ">
<polygon fill="white" stroke="#666666" points="354.5,-19 239.5,-19 239.5,0 354.5,0 354.5,-19"/>
<text text-anchor="middle" x="297" y="-7" font-family="Helvetica,sans-Serif" font-size="10.00">src/async_client.cpp</text>
</a>
</g>
</g>
<!-- Node2&#45;&gt;Node4 -->
<g id="edge3_Node000002_Node000004" class="edge">
<title>Node2&#45;&gt;Node4</title>
<g id="a_edge3_Node000002_Node000004"><a xlink:title=" ">
<path fill="none" stroke="#63b8ff" d="M172.22,-51.74C204.78,-40.98 245.26,-27.6 271.12,-19.05"/>
<polygon fill="#63b8ff" stroke="#63b8ff" points="170.79,-48.53 162.4,-54.99 172.99,-55.17 170.79,-48.53"/>
</a>
</g>
</g>
<!-- Node6 -->
<g id="Node000006" class="node">
<title>Node6</title>
<g id="a_Node000006"><a xlink:href="client_8cpp.html" target="_top" xlink:title=" ">
<polygon fill="white" stroke="#666666" points="551.5,-79.5 470.5,-79.5 470.5,-60.5 551.5,-60.5 551.5,-79.5"/>
<text text-anchor="middle" x="511" y="-67.5" font-family="Helvetica,sans-Serif" font-size="10.00">src/client.cpp</text>
</a>
</g>
</g>
<!-- Node5&#45;&gt;Node6 -->
<g id="edge5_Node000005_Node000006" class="edge">
<title>Node5&#45;&gt;Node6</title>
<g id="a_edge5_Node000005_Node000006"><a xlink:title=" ">
<path fill="none" stroke="#63b8ff" d="M431.28,-121.02C451.34,-108.43 480.2,-90.32 497.14,-79.7"/>
<polygon fill="#63b8ff" stroke="#63b8ff" points="429.37,-118.09 422.76,-126.37 433.09,-124.02 429.37,-118.09"/>
</a>
</g>
</g>
<!-- Node7&#45;&gt;Node5 -->
<g id="edge7_Node000007_Node000005" class="edge">
<title>Node7&#45;&gt;Node5</title>
<g id="a_edge7_Node000007_Node000005"><a xlink:title=" ">
<path fill="none" stroke="#63b8ff" d="M299.17,-182.94C328.49,-170.68 365.91,-155.02 388.64,-145.52"/>
<polygon fill="#63b8ff" stroke="#63b8ff" points="297.45,-179.87 289.58,-186.95 300.15,-186.32 297.45,-179.87"/>
</a>
</g>
</g>
<!-- Node7&#45;&gt;Node8 -->
<g id="edge8_Node000007_Node000008" class="edge">
<title>Node7&#45;&gt;Node8</title>
<g id="a_edge8_Node000007_Node000008"><a xlink:title=" ">
<path fill="none" stroke="#63b8ff" d="M250.33,-176.83C248.31,-168.17 246.09,-158.7 244.32,-151.16"/>
<polygon fill="#63b8ff" stroke="#63b8ff" points="246.98,-177.86 252.67,-186.8 253.8,-176.26 246.98,-177.86"/>
</a>
</g>
</g>
<!-- Node8&#45;&gt;Node2 -->
<g id="edge9_Node000008_Node000002" class="edge">
<title>Node8&#45;&gt;Node2</title>
<g id="a_edge9_Node000008_Node000002"><a xlink:title=" ">
<path fill="none" stroke="#63b8ff" d="M205.53,-116.24C186.65,-106.25 163.82,-94.18 146.49,-85.01"/>
<polygon fill="#63b8ff" stroke="#63b8ff" points="203.97,-119.37 214.45,-120.95 207.24,-113.19 203.97,-119.37"/>
</a>
</g>
</g>
<!-- Node8&#45;&gt;Node4 -->
<g id="edge10_Node000008_Node000004" class="edge">
<title>Node8&#45;&gt;Node4</title>
<g id="a_edge10_Node000008_Node000004"><a xlink:title=" ">
<path fill="none" stroke="#63b8ff" d="M251.53,-111.6C264.15,-83.53 284.67,-37.92 293.15,-19.07"/>
<polygon fill="#63b8ff" stroke="#63b8ff" points="248.33,-110.16 247.42,-120.72 254.72,-113.03 248.33,-110.16"/>
</a>
</g>
</g>
<!-- Node9&#45;&gt;Node2 -->
<g id="edge14_Node000009_Node000002" class="edge">
<title>Node9&#45;&gt;Node2</title>
<g id="a_edge14_Node000009_Node000002"><a xlink:title=" ">
<path fill="none" stroke="#63b8ff" d="M338.49,-306.5C278.21,-294.8 195.94,-269.8 144,-217 108.69,-181.11 113.38,-114.59 117.52,-85.39"/>
<polygon fill="#63b8ff" stroke="#63b8ff" points="337.88,-309.94 348.35,-308.33 339.16,-303.06 337.88,-309.94"/>
</a>
</g>
</g>
<!-- Node9&#45;&gt;Node4 -->
<g id="edge24_Node000009_Node000004" class="edge">
<title>Node9&#45;&gt;Node4</title>
<g id="a_edge24_Node000009_Node000004"><a xlink:title=" ">
<path fill="none" stroke="#63b8ff" d="M487.92,-306.38C585.11,-290.8 745,-256.98 745,-203 745,-203 745,-203 745,-135 745,-54.88 475.65,-24.16 354.65,-14.4"/>
<polygon fill="#63b8ff" stroke="#63b8ff" points="487.18,-302.95 477.85,-307.96 488.27,-309.87 487.18,-302.95"/>
</a>
</g>
</g>
<!-- Node9&#45;&gt;Node5 -->
<g id="edge15_Node000009_Node000005" class="edge">
<title>Node9&#45;&gt;Node5</title>
<g id="a_edge15_Node000009_Node000005"><a xlink:title=" ">
<path fill="none" stroke="#63b8ff" d="M370.14,-304.4C353.96,-297.64 337.4,-287.36 328,-272 311.37,-244.82 354.47,-242.18 374,-217 391.65,-194.24 402.38,-161.2 406.74,-145.67"/>
<polygon fill="#63b8ff" stroke="#63b8ff" points="368.96,-307.7 379.56,-307.99 371.46,-301.16 368.96,-307.7"/>
</a>
</g>
</g>
<!-- Node9&#45;&gt;Node6 -->
<g id="edge25_Node000009_Node000006" class="edge">
<title>Node9&#45;&gt;Node6</title>
<g id="a_edge25_Node000009_Node000006"><a xlink:title=" ">
<path fill="none" stroke="#63b8ff" d="M460.05,-304.33C476.36,-297.55 493.17,-287.29 503,-272 543.78,-208.54 521.44,-109.07 513.46,-79.54"/>
<polygon fill="#63b8ff" stroke="#63b8ff" points="458.67,-301.11 450.56,-307.92 461.15,-307.65 458.67,-301.11"/>
</a>
</g>
</g>
<!-- Node10 -->
<g id="Node000010" class="node">
<title>Node10</title>
<g id="a_Node000010"><a xlink:href="middleware_8hpp.html" target="_top" xlink:title=" ">
<polygon fill="white" stroke="#666666" points="717,-211.5 539,-211.5 539,-192.5 717,-192.5 717,-211.5"/>
<text text-anchor="middle" x="628" y="-199.5" font-family="Helvetica,sans-Serif" font-size="10.00">include/rest_cpp/middleware.hpp</text>
</a>
</g>
</g>
<!-- Node9&#45;&gt;Node10 -->
<g id="edge16_Node000009_Node000010" class="edge">
<title>Node9&#45;&gt;Node10</title>
<g id="a_edge16_Node000009_Node000010"><a xlink:title=" ">
<path fill="none" stroke="#63b8ff" d="M455.22,-304.96C479.39,-297.25 510.33,-285.95 536,-272 568.63,-254.26 602.41,-225.88 618.44,-211.68"/>
<polygon fill="#63b8ff" stroke="#63b8ff" points="454.15,-301.63 445.64,-307.95 456.23,-308.31 454.15,-301.63"/>
</a>
</g>
</g>
<!-- Node11 -->
<g id="Node000011" class="node">
<title>Node11</title>
<g id="a_Node000011"><a xlink:href="request_8hpp.html" target="_top" xlink:title=" ">
<polygon fill="white" stroke="#666666" points="493.5,-272 336.5,-272 336.5,-253 493.5,-253 493.5,-272"/>
<text text-anchor="middle" x="415" y="-260" font-family="Helvetica,sans-Serif" font-size="10.00">include/rest_cpp/request.hpp</text>
</a>
</g>
</g>
<!-- Node9&#45;&gt;Node11 -->
<g id="edge19_Node000009_Node000011" class="edge">
<title>Node9&#45;&gt;Node11</title>
<g id="a_edge19_Node000009_Node000011"><a xlink:title=" ">
<path fill="none" stroke="#63b8ff" d="M415,-297.66C415,-288.93 415,-278.99 415,-272.09"/>
<polygon fill="#63b8ff" stroke="#63b8ff" points="411.5,-297.75 415,-307.75 418.5,-297.75 411.5,-297.75"/>
</a>
</g>
</g>
<!-- Node10&#45;&gt;Node4 -->
<g id="edge17_Node000010_Node000004" class="edge">
<title>Node10&#45;&gt;Node4</title>
<g id="a_edge17_Node000010_Node000004"><a xlink:title=" ">
<path fill="none" stroke="#63b8ff" d="M625.13,-182.28C619.23,-150.63 602.6,-86.87 561,-55 529.45,-30.83 422.26,-19.09 354.55,-13.97"/>
<polygon fill="#63b8ff" stroke="#63b8ff" points="621.72,-183.1 626.85,-192.37 628.62,-181.92 621.72,-183.1"/>
</a>
</g>
</g>
<!-- Node10&#45;&gt;Node6 -->
<g id="edge18_Node000010_Node000006" class="edge">
<title>Node10&#45;&gt;Node6</title>
<g id="a_edge18_Node000010_Node000006"><a xlink:title=" ">
<path fill="none" stroke="#63b8ff" d="M613.44,-184.82C588.45,-157.06 538.22,-101.24 518.86,-79.73"/>
<polygon fill="#63b8ff" stroke="#63b8ff" points="611.03,-187.38 620.32,-192.47 616.24,-182.7 611.03,-187.38"/>
</a>
</g>
</g>
<!-- Node11&#45;&gt;Node2 -->
<g id="edge20_Node000011_Node000002" class="edge">
<title>Node11&#45;&gt;Node2</title>
<g id="a_edge20_Node000011_Node000002"><a xlink:title=" ">
<path fill="none" stroke="#63b8ff" d="M326.2,-254.65C266.32,-248.32 194.16,-236.81 171,-217 130.8,-182.62 122.27,-114.7 120.47,-85.21"/>
<polygon fill="#63b8ff" stroke="#63b8ff" points="326.15,-258.16 336.46,-255.7 326.87,-251.2 326.15,-258.16"/>
</a>
</g>
</g>
<!-- Node11&#45;&gt;Node5 -->
<g id="edge21_Node000011_Node000005" class="edge">
<title>Node11&#45;&gt;Node5</title>
<g id="a_edge21_Node000011_Node000005"><a xlink:title=" ">
<path fill="none" stroke="#63b8ff" d="M414.35,-242.7C413.8,-227.64 412.95,-205.96 412,-187 411.28,-172.58 410.23,-155.84 409.58,-145.85"/>
<polygon fill="#63b8ff" stroke="#63b8ff" points="410.85,-242.91 414.7,-252.78 417.85,-242.66 410.85,-242.91"/>
</a>
</g>
</g>
<!-- Node11&#45;&gt;Node7 -->
<g id="edge22_Node000011_Node000007" class="edge">
<title>Node11&#45;&gt;Node7</title>
<g id="a_edge22_Node000011_Node000007"><a xlink:title=" ">
<path fill="none" stroke="#63b8ff" d="M382.27,-249.46C356.7,-240.05 321.11,-226.95 294.23,-217.06"/>
<polygon fill="#63b8ff" stroke="#63b8ff" points="381.29,-252.83 391.88,-252.99 383.7,-246.26 381.29,-252.83"/>
</a>
</g>
</g>
<!-- Node11&#45;&gt;Node10 -->
<g id="edge23_Node000011_Node000010" class="edge">
<title>Node11&#45;&gt;Node10</title>
<g id="a_edge23_Node000011_Node000010"><a xlink:title=" ">
<path fill="none" stroke="#63b8ff" d="M455.69,-250.32C496.88,-239.01 559.67,-221.77 596.99,-211.52"/>
<polygon fill="#63b8ff" stroke="#63b8ff" points="454.69,-246.97 445.97,-252.99 456.54,-253.72 454.69,-246.97"/>
</a>
</g>
</g>
</g>
</svg>

<g id="navigator" transform="translate(0 0)" fill="#404254">
  <rect fill="#f2f5e9" fill-opacity="0.5" stroke="#606060" stroke-width=".5" x="0" y="0" width="60" height="60"/>
  <use id="zoomplus" xlink:href="#zoomPlus" x="17" y="9" onmousedown="handleZoom(evt,'in')"/>
  <use id="zoomminus" xlink:href="#zoomMin" x="42" y="9" onmousedown="handleZoom(evt,'out')"/>
  <use id="reset" xlink:href="#resetDef" x="30" y="36" onmousedown="handleReset()"/>
   <use id="arrowup" xlink:href="#arrowUp" x="0" y="0" onmousedown="handlePan(0,-1)"/>
  <use id="arrowright" xlink:href="#arrowRight" x="0" y="0" onmousedown="handlePan(1,0)"/>
  <use id="arrowdown" xlink:href="#arrowDown" x="0" y="0" onmousedown="handlePan(0,1)"/>
  <use id="arrowleft" xlink:href="#arrowLeft" x="0" y="0" onmousedown="handlePan(-1,0)"/>
</g>
<svg viewBox="0 0 15 15" width="100%" height="30px" preserveAspectRatio="xMaxYMin meet">
 <g id="arrow_out" transform="scale(0.3 0.3)">
  <a xlink:href="result_8hpp__dep__incl_org.svg" target="_base">
   <rect id="button" ry="5" rx="5" y="6" x="6" height="38" width="38"
        fill="#f2f5e9" fill-opacity="0.5" stroke="#606060" stroke-width="1.0"/>
   <path id="arrow"
     d="M 11.500037,31.436501 C 11.940474,20.09759 22.043105,11.32322 32.158766,21.979434 L 37.068811,17.246167 C 37.068811,17.246167 37.088388,32 37.088388,32 L 22.160133,31.978069 C 22.160133,31.978069 26.997745,27.140456 26.997745,27.140456 C 18.528582,18.264221 13.291696,25.230495 11.500037,31.436501 z"
     style="fill:#404040;"/>
  </a>
 </g>
</svg>

<style type='text/css'>
<![CDATA[
[data-mouse-over-selected='false'] { opacity: 0.7; }
[data-mouse-over-selected='true']  { opacity: 1.0; }
]]>
</style>
<script type="application/ecmascript"><![CDATA[
document.addEventListener('DOMContentLoaded', (event) => {
  highlightEdges();
  highlightAdjacentNodes();
});
]]></script>
</svg>
