<?xml version="1.0" encoding="UTF-8" standalone="no"?>
<!DOCTYPE svg PUBLIC "-//W3C//DTD SVG 1.1//EN"
 "http://www.w3.org/Graphics/SVG/1.1/DTD/svg11.dtd">
<!-- Generated by graphviz version 2.43.0 (0)
 -->
<!-- Title: include/rest_cpp/serialize_impl.hpp Pages: 1 -->
<svg width="754pt" height="159pt"
 viewBox="0.00 0.00 754.00 159.00" xmlns="http://www.w3.org/2000/svg" xmlns:xlink="http://www.w3.org/1999/xlink">
<g id="graph0" class="graph" transform="scale(1 1) rotate(0) translate(4 155)">
<title>include/rest_cpp/serialize_impl.hpp</title>
<!-- Node1 -->
<g id="Node000001" class="node">
<title>Node1</title>
<g id="a_Node000001"><a xlink:title=" ">
<polygon fill="#999999" stroke="#666666" points="426,-151 286,-151 286,-121 426,-121 426,-151"/>
<text text-anchor="start" x="294" y="-139" font-family="Helvetica,sans-Serif" font-size="10.00">include/rest_cpp/serialize</text>
<text text-anchor="middle" x="356" y="-128" font-family="Helvetica,sans-Serif" font-size="10.00">_impl.hpp</text>
</a>
</g>
</g>
<!-- Node2 -->
<g id="Node000002" class="node">
<title>Node2</title>
<g id="a_Node000002"><a xlink:href="async__client_8hpp.html" target="_top" xlink:title=" ">
<polygon fill="white" stroke="#666666" points="264,-85 136,-85 136,-55 264,-55 264,-85"/>
<text text-anchor="start" x="144" y="-73" font-family="Helvetica,sans-Serif" font-size="10.00">include/rest_cpp/async</text>
<text text-anchor="middle" x="200" y="-62" font-family="Helvetica,sans-Serif" font-size="10.00">_client.hpp</text>
</a>
</g>
</g>
<!-- Node1&#45;&gt;Node2 -->
<g id="edge1_Node000001_Node000002" class="edge">
<title>Node1&#45;&gt;Node2</title>
<g id="a_edge1_Node000001_Node000002"><a xlink:title=" ">
<path fill="none" stroke="#63b8ff" d="M312.26,-117.05C287.54,-106.91 257.1,-94.43 234.16,-85.01"/>
<polygon fill="#63b8ff" stroke="#63b8ff" points="311.18,-120.4 321.77,-120.95 313.84,-113.92 311.18,-120.4"/>
</a>
</g>
</g>
<!-- Node3 -->
<g id="Node000003" class="node">
<title>Node3</title>
<g id="a_Node000003"><a xlink:href="pagination_8hpp.html" target="_top" xlink:title=" ">
<polygon fill="white" stroke="#666666" points="172,-19 0,-19 0,0 172,0 172,-19"/>
<text text-anchor="middle" x="86" y="-7" font-family="Helvetica,sans-Serif" font-size="10.00">include/rest_cpp/pagination.hpp</text>
</a>
</g>
</g>
<!-- Node1&#45;&gt;Node3 -->
<g id="edge6_Node000001_Node000003" class="edge">
<title>Node1&#45;&gt;Node3</title>
<g id="a_edge6_Node000001_Node000003"><a xlink:title=" ">
<path fill="none" stroke="#63b8ff" d="M275.71,-133.66C228.38,-129.17 169.61,-116.81 127,-85 104.4,-68.13 92.7,-34.96 88.22,-19.21"/>
<polygon fill="#63b8ff" stroke="#63b8ff" points="275.68,-137.16 285.94,-134.52 276.27,-130.19 275.68,-137.16"/>
</a>
</g>
</g>
<!-- Node5 -->
<g id="Node000005" class="node">
<title>Node5</title>
<g id="a_Node000005"><a xlink:href="client_8hpp.html" target="_top" xlink:title=" ">
<polygon fill="white" stroke="#666666" points="429.5,-79.5 282.5,-79.5 282.5,-60.5 429.5,-60.5 429.5,-79.5"/>
<text text-anchor="middle" x="356" y="-67.5" font-family="Helvetica,sans-Serif" font-size="10.00">include/rest_cpp/client.hpp</text>
</a>
</g>
</g>
<!-- Node1&#45;&gt;Node5 -->
<g id="edge4_Node000001_Node000005" class="edge">
<title>Node1&#45;&gt;Node5</title>
<g id="a_edge4_Node000001_Node000005"><a xlink:title=" ">
<path fill="none" stroke="#63b8ff" d="M356,-110.6C356,-99.8 356,-87.78 356,-79.84"/>
<polygon fill="#63b8ff" stroke="#63b8ff" points="352.5,-110.8 356,-120.8 359.5,-110.8 352.5,-110.8"/>
</a>
</g>
</g>
<!-- Node7 -->
<g id="Node000007" class="node">
<title>Node7</title>
<g id="a_Node000007"><a xlink:href="serialize__nlohmann_8hpp.html" target="_top" xlink:title=" ">
<polygon fill="white" stroke="#666666" points="588,-85 448,-85 448,-55 588,-55 588,-85"/>
<text text-anchor="start" x="456" y="-73" font-family="Helvetica,sans-Serif" font-size="10.00">include/rest_cpp/serialize</text>
<text text-anchor="middle" x="518" y="-62" font-family="Helvetica,sans-Serif" font-size="10.00">_nlohmann.hpp</text>
</a>
</g>
</g>
<!-- Node1&#45;&gt;Node7 -->
<g id="edge7_Node000001_Node000007" class="edge">
<title>Node1&#45;&gt;Node7</title>
<g id="a_edge7_Node000001_Node000007"><a xlink:title=" ">
<path fill="none" stroke="#63b8ff" d="M401.09,-117.19C426.81,-107.02 458.6,-94.47 482.53,-85.01"/>
<polygon fill="#63b8ff" stroke="#63b8ff" points="399.57,-114.03 391.55,-120.95 402.14,-120.54 399.57,-114.03"/>
</a>
</g>
</g>
<!-- Node8 -->
<g id="Node000008" class="node">
<title>Node8</title>
<g id="a_Node000008"><a xlink:href="serialize__simdjson_8hpp.html" target="_top" xlink:title=" ">
<polygon fill="white" stroke="#666666" points="746,-85 606,-85 606,-55 746,-55 746,-85"/>
<text text-anchor="start" x="614" y="-73" font-family="Helvetica,sans-Serif" font-size="10.00">include/rest_cpp/serialize</text>
<text text-anchor="middle" x="676" y="-62" font-family="Helvetica,sans-Serif" font-size="10.00">_simdjson.hpp</text>
</a>
</g>
</g>
<!-- Node1&#45;&gt;Node8 -->
<g id="edge8_Node000001_Node000008" class="edge">
<title>Node1&#45;&gt;Node8</title>
<g id="a_edge8_Node000001_Node000008"><a xlink:title=" ">
<path fill="none" stroke="#63b8ff" d="M436.12,-118.98C488.35,-108.53 555.85,-95.03 605.94,-85.01"/>
<polygon fill="#63b8ff" stroke="#63b8ff" points="435.34,-115.56 426.23,-120.95 436.72,-122.43 435.34,-115.56"/>
</a>
</g>
</g>
<!-- Node2&#45;&gt;Node3 -->
<g id="edge2_Node000002_Node000003" class="edge">
<title>Node2&#45;&gt;Node3</title>
<g id="a_edge2_Node000002_Node000003"><a xlink:title=" ">
<path fill="none" stroke="#63b8ff" d="M163.66,-50.35C143.26,-39.88 118.78,-27.32 102.84,-19.14"/>
<polygon fill="#63b8ff" stroke="#63b8ff" points="162.2,-53.54 172.69,-54.99 165.4,-47.31 162.2,-53.54"/>
</a>
</g>
</g>
<!-- Node4 -->
<g id="Node000004" class="node">
<title>Node4</title>
<g id="a_Node000004"><a xlink:href="async__client_8cpp.html" target="_top" xlink:title=" ">
<polygon fill="white" stroke="#666666" points="305.5,-19 190.5,-19 190.5,0 305.5,0 305.5,-19"/>
<text text-anchor="middle" x="248" y="-7" font-family="Helvetica,sans-Serif" font-size="10.00">src/async_client.cpp</text>
</a>
</g>
</g>
<!-- Node2&#45;&gt;Node4 -->
<g id="edge3_Node000002_Node000004" class="edge">
<title>Node2&#45;&gt;Node4</title>
<g id="a_edge3_Node000002_Node000004"><a xlink:title=" ">
<path fill="none" stroke="#63b8ff" d="M217.98,-47.09C225.91,-37.42 234.78,-26.61 240.81,-19.27"/>
<polygon fill="#63b8ff" stroke="#63b8ff" points="215.26,-44.89 211.62,-54.84 220.67,-49.33 215.26,-44.89"/>
</a>
</g>
</g>
<!-- Node6 -->
<g id="Node000006" class="node">
<title>Node6</title>
<g id="a_Node000006"><a xlink:href="client_8cpp.html" target="_top" xlink:title=" ">
<polygon fill="white" stroke="#666666" points="404.5,-19 323.5,-19 323.5,0 404.5,0 404.5,-19"/>
<text text-anchor="middle" x="364" y="-7" font-family="Helvetica,sans-Serif" font-size="10.00">src/client.cpp</text>
</a>
</g>
</g>
<!-- Node5&#45;&gt;Node6 -->
<g id="edge5_Node000005_Node000006" class="edge">
<title>Node5&#45;&gt;Node6</title>
<g id="a_edge5_Node000005_Node000006"><a xlink:title=" ">
<path fill="none" stroke="#63b8ff" d="M358.58,-50.16C360,-39.74 361.7,-27.3 362.81,-19.17"/>
<polygon fill="#63b8ff" stroke="#63b8ff" points="355.07,-49.99 357.18,-60.37 362,-50.93 355.07,-49.99"/>
</a>
</g>
</g>
</g>
</svg>
