<?xml version="1.0" encoding="UTF-8" standalone="no"?>
<!DOCTYPE svg PUBLIC "-//W3C//DTD SVG 1.1//EN"
 "http://www.w3.org/Graphics/SVG/1.1/DTD/svg11.dtd">
<!-- Generated by graphviz version 2.43.0 (0)
 -->
<!-- Title: include/rest_cpp/serialize_nlohmann.hpp Pages: 1 -->
<svg width="656pt" height="225pt"
 viewBox="0.00 0.00 655.50 225.00" xmlns="http://www.w3.org/2000/svg" xmlns:xlink="http://www.w3.org/1999/xlink">
<g id="graph0" class="graph" transform="scale(1 1) rotate(0) translate(4 221)">
<title>include/rest_cpp/serialize_nlohmann.hpp</title>
<!-- Node1 -->
<g id="Node000001" class="node">
<title>Node1</title>
<g id="a_Node000001"><a xlink:title=" ">
<polygon fill="#999999" stroke="#666666" points="441,-217 301,-217 301,-187 441,-187 441,-217"/>
<text text-anchor="start" x="309" y="-205" font-family="Helvetica,sans-Serif" font-size="10.00">include/rest_cpp/serialize</text>
<text text-anchor="middle" x="371" y="-194" font-family="Helvetica,sans-Serif" font-size="10.00">_nlohmann.hpp</text>
</a>
</g>
</g>
<!-- Node2 -->
<g id="Node000002" class="node">
<title>Node2</title>
<g id="a_Node000002"><a xlink:title=" ">
<polygon fill="#e0e0e0" stroke="#999999" points="302,-145.5 192,-145.5 192,-126.5 302,-126.5 302,-145.5"/>
<text text-anchor="middle" x="247" y="-133.5" font-family="Helvetica,sans-Serif" font-size="10.00">nlohmann/json.hpp</text>
</a>
</g>
</g>
<!-- Node1&#45;&gt;Node2 -->
<g id="edge1_Node000001_Node000002" class="edge">
<title>Node1&#45;&gt;Node2</title>
<g id="a_edge1_Node000001_Node000002"><a xlink:title=" ">
<path fill="none" stroke="#63b8ff" d="M343.79,-186.95C322.52,-175.98 293.18,-160.83 272.39,-150.11"/>
<polygon fill="#63b8ff" stroke="#63b8ff" points="273.99,-146.99 263.5,-145.52 270.78,-153.21 273.99,-146.99"/>
</a>
</g>
</g>
<!-- Node3 -->
<g id="Node000003" class="node">
<title>Node3</title>
<g id="a_Node000003"><a xlink:href="serialize__impl_8hpp.html" target="_top" xlink:title=" ">
<polygon fill="white" stroke="#666666" points="422,-151 320,-151 320,-121 422,-121 422,-151"/>
<text text-anchor="start" x="328" y="-139" font-family="Helvetica,sans-Serif" font-size="10.00">rest_cpp/serialize</text>
<text text-anchor="middle" x="371" y="-128" font-family="Helvetica,sans-Serif" font-size="10.00">_impl.hpp</text>
</a>
</g>
</g>
<!-- Node1&#45;&gt;Node3 -->
<g id="edge2_Node000001_Node000003" class="edge">
<title>Node1&#45;&gt;Node3</title>
<g id="a_edge2_Node000001_Node000003"><a xlink:title=" ">
<path fill="none" stroke="#63b8ff" d="M371,-186.8C371,-179.34 371,-169.99 371,-161.41"/>
<polygon fill="#63b8ff" stroke="#63b8ff" points="374.5,-161.16 371,-151.16 367.5,-161.16 374.5,-161.16"/>
</a>
</g>
</g>
<!-- Node4 -->
<g id="Node000004" class="node">
<title>Node4</title>
<g id="a_Node000004"><a xlink:href="response_8hpp.html" target="_top" xlink:title=" ">
<polygon fill="white" stroke="#666666" points="451,-85 369,-85 369,-66 451,-66 451,-85"/>
<text text-anchor="middle" x="410" y="-73" font-family="Helvetica,sans-Serif" font-size="10.00">response.hpp</text>
</a>
</g>
</g>
<!-- Node1&#45;&gt;Node4 -->
<g id="edge9_Node000001_Node000004" class="edge">
<title>Node1&#45;&gt;Node4</title>
<g id="a_edge9_Node000001_Node000004"><a xlink:title=" ">
<path fill="none" stroke="#63b8ff" d="M396.72,-186.97C409.57,-178.43 423.87,-166.23 431,-151 439.78,-132.26 430.39,-109.1 421.52,-93.62"/>
<polygon fill="#63b8ff" stroke="#63b8ff" points="424.47,-91.74 416.23,-85.09 418.52,-95.43 424.47,-91.74"/>
</a>
</g>
</g>
<!-- Node3&#45;&gt;Node4 -->
<g id="edge3_Node000003_Node000004" class="edge">
<title>Node3&#45;&gt;Node4</title>
<g id="a_edge3_Node000003_Node000004"><a xlink:title=" ">
<path fill="none" stroke="#63b8ff" d="M380.44,-120.84C385.87,-112.69 392.73,-102.4 398.48,-93.78"/>
<polygon fill="#63b8ff" stroke="#63b8ff" points="401.52,-95.53 404.16,-85.27 395.7,-91.65 401.52,-95.53"/>
</a>
</g>
</g>
<!-- Node5 -->
<g id="Node000005" class="node">
<title>Node5</title>
<g id="a_Node000005"><a xlink:title=" ">
<polygon fill="#e0e0e0" stroke="#999999" points="146,-24.5 0,-24.5 0,-5.5 146,-5.5 146,-24.5"/>
<text text-anchor="middle" x="73" y="-12.5" font-family="Helvetica,sans-Serif" font-size="10.00">boost/beast/http/fields.hpp</text>
</a>
</g>
</g>
<!-- Node4&#45;&gt;Node5 -->
<g id="edge4_Node000004_Node000005" class="edge">
<title>Node4&#45;&gt;Node5</title>
<g id="a_edge4_Node000004_Node000005"><a xlink:title=" ">
<path fill="none" stroke="#63b8ff" d="M368.68,-67.33C309.41,-57.04 199.97,-38.04 132.14,-26.27"/>
<polygon fill="#63b8ff" stroke="#63b8ff" points="132.49,-22.77 122.04,-24.51 131.29,-29.67 132.49,-22.77"/>
</a>
</g>
</g>
<!-- Node6 -->
<g id="Node000006" class="node">
<title>Node6</title>
<g id="a_Node000006"><a xlink:title=" ">
<polygon fill="#e0e0e0" stroke="#999999" points="328,-24.5 164,-24.5 164,-5.5 328,-5.5 328,-24.5"/>
<text text-anchor="middle" x="246" y="-12.5" font-family="Helvetica,sans-Serif" font-size="10.00">boost/beast/http/message.hpp</text>
</a>
</g>
</g>
<!-- Node4&#45;&gt;Node6 -->
<g id="edge5_Node000004_Node000006" class="edge">
<title>Node4&#45;&gt;Node6</title>
<g id="a_edge5_Node000004_Node000006"><a xlink:title=" ">
<path fill="none" stroke="#63b8ff" d="M386.15,-65.99C358.1,-55.99 311.33,-39.3 279.6,-27.99"/>
<polygon fill="#63b8ff" stroke="#63b8ff" points="280.47,-24.58 269.88,-24.52 278.12,-31.17 280.47,-24.58"/>
</a>
</g>
</g>
<!-- Node7 -->
<g id="Node000007" class="node">
<title>Node7</title>
<g id="a_Node000007"><a xlink:title=" ">
<polygon fill="#e0e0e0" stroke="#999999" points="473.5,-30 346.5,-30 346.5,0 473.5,0 473.5,-30"/>
<text text-anchor="start" x="354.5" y="-18" font-family="Helvetica,sans-Serif" font-size="10.00">boost/beast/http/string</text>
<text text-anchor="middle" x="410" y="-7" font-family="Helvetica,sans-Serif" font-size="10.00">_body.hpp</text>
</a>
</g>
</g>
<!-- Node4&#45;&gt;Node7 -->
<g id="edge6_Node000004_Node000007" class="edge">
<title>Node4&#45;&gt;Node7</title>
<g id="a_edge6_Node000004_Node000007"><a xlink:title=" ">
<path fill="none" stroke="#63b8ff" d="M410,-65.87C410,-59.11 410,-49.35 410,-40.26"/>
<polygon fill="#63b8ff" stroke="#63b8ff" points="413.5,-40.11 410,-30.11 406.5,-40.11 413.5,-40.11"/>
</a>
</g>
</g>
<!-- Node8 -->
<g id="Node000008" class="node">
<title>Node8</title>
<g id="a_Node000008"><a xlink:title=" ">
<polygon fill="#e0e0e0" stroke="#999999" points="536,-24.5 492,-24.5 492,-5.5 536,-5.5 536,-24.5"/>
<text text-anchor="middle" x="514" y="-12.5" font-family="Helvetica,sans-Serif" font-size="10.00">string</text>
</a>
</g>
</g>
<!-- Node4&#45;&gt;Node8 -->
<g id="edge7_Node000004_Node000008" class="edge">
<title>Node4&#45;&gt;Node8</title>
<g id="a_edge7_Node000004_Node000008"><a xlink:title=" ">
<path fill="none" stroke="#63b8ff" d="M425.35,-65.87C442.32,-56.32 469.9,-40.81 489.79,-29.62"/>
<polygon fill="#63b8ff" stroke="#63b8ff" points="491.59,-32.62 498.59,-24.67 488.16,-26.52 491.59,-32.62"/>
</a>
</g>
</g>
<!-- Node9 -->
<g id="Node000009" class="node">
<title>Node9</title>
<g id="a_Node000009"><a xlink:title=" ">
<polygon fill="#e0e0e0" stroke="#999999" points="647.5,-24.5 554.5,-24.5 554.5,-5.5 647.5,-5.5 647.5,-24.5"/>
<text text-anchor="middle" x="601" y="-12.5" font-family="Helvetica,sans-Serif" font-size="10.00">unordered_map</text>
</a>
</g>
</g>
<!-- Node4&#45;&gt;Node9 -->
<g id="edge8_Node000004_Node000009" class="edge">
<title>Node4&#45;&gt;Node9</title>
<g id="a_edge8_Node000004_Node000009"><a xlink:title=" ">
<path fill="none" stroke="#63b8ff" d="M437.77,-65.99C470.87,-55.86 526.34,-38.87 563.29,-27.55"/>
<polygon fill="#63b8ff" stroke="#63b8ff" points="564.66,-30.79 573.19,-24.52 562.61,-24.1 564.66,-30.79"/>
</a>
</g>
</g>
</g>
</svg>
