<?xml version="1.0" encoding="UTF-8" standalone="no"?>
<!DOCTYPE svg PUBLIC "-//W3C//DTD SVG 1.1//EN"
 "http://www.w3.org/Graphics/SVG/1.1/DTD/svg11.dtd">
<!-- Generated by graphviz version 2.43.0 (0)
 -->
<!-- Title: rest_cpp::ConnectionPool::Bucket Pages: 1 -->
<svg width="1071pt" height="212pt"
 viewBox="0.00 0.00 1071.00 212.00" xmlns="http://www.w3.org/2000/svg" xmlns:xlink="http://www.w3.org/1999/xlink">
<g id="graph0" class="graph" transform="scale(1 1) rotate(0) translate(4 208)">
<title>rest_cpp::ConnectionPool::Bucket</title>
<!-- Node1 -->
<g id="Node000001" class="node">
<title>Node1</title>
<g id="a_Node000001"><a xlink:title="Per&#45;endpoint bucket with circuit breaker.">
<polygon fill="#999999" stroke="#666666" points="1063,-158 923,-158 923,-128 1063,-128 1063,-158"/>
<text text-anchor="start" x="931" y="-146" font-family="Helvetica,sans-Serif" font-size="10.00">rest_cpp::ConnectionPool</text>
<text text-anchor="middle" x="993" y="-135" font-family="Helvetica,sans-Serif" font-size="10.00">::Bucket</text>
</a>
</g>
</g>
<!-- Node2 -->
<g id="Node000002" class="node">
<title>Node2</title>
<g id="a_Node000002"><a xlink:title=" ">
<polygon fill="white" stroke="#666666" points="838,-204 679,-204 679,-174 838,-174 838,-204"/>
<text text-anchor="start" x="687" y="-192" font-family="Helvetica,sans-Serif" font-size="10.00">std::deque&lt; rest_cpp</text>
<text text-anchor="middle" x="758.5" y="-181" font-family="Helvetica,sans-Serif" font-size="10.00">::ConnectionPool::IdleEntry &gt;</text>
</a>
</g>
</g>
<!-- Node2&#45;&gt;Node1 -->
<g id="edge1_Node000001_Node000002" class="edge">
<title>Node2&#45;&gt;Node1</title>
<g id="a_edge1_Node000001_Node000002"><a xlink:title=" ">
<path fill="none" stroke="#9a32cd" stroke-dasharray="5,2" d="M845.63,-171.96C871.06,-166.93 898.56,-161.49 922.77,-156.7"/>
<polygon fill="#9a32cd" stroke="#9a32cd" points="844.76,-168.56 835.63,-173.94 846.12,-175.43 844.76,-168.56"/>
</a>
</g>
<text text-anchor="middle" x="880.5" y="-171" font-family="Helvetica,sans-Serif" font-size="10.00" fill="grey"> idle</text>
</g>
<!-- Node3 -->
<g id="Node000003" class="node">
<title>Node3</title>
<g id="a_Node000003"><a xlink:href="structrest__cpp_1_1ConnectionPool_1_1IdleEntry.html" target="_top" xlink:title="Entry for an idle connection with health tracking.">
<polygon fill="white" stroke="#666666" points="516,-203 376,-203 376,-173 516,-173 516,-203"/>
<text text-anchor="start" x="384" y="-191" font-family="Helvetica,sans-Serif" font-size="10.00">rest_cpp::ConnectionPool</text>
<text text-anchor="middle" x="446" y="-180" font-family="Helvetica,sans-Serif" font-size="10.00">::IdleEntry</text>
</a>
</g>
</g>
<!-- Node3&#45;&gt;Node2 -->
<g id="edge2_Node000002_Node000003" class="edge">
<title>Node3&#45;&gt;Node2</title>
<g id="a_edge2_Node000002_Node000003"><a xlink:title=" ">
<path fill="none" stroke="#9a32cd" stroke-dasharray="5,2" d="M526.39,-188.26C573.19,-188.41 632.18,-188.6 678.85,-188.75"/>
<polygon fill="#9a32cd" stroke="#9a32cd" points="526.31,-184.76 516.3,-188.22 526.28,-191.76 526.31,-184.76"/>
</a>
</g>
<text text-anchor="middle" x="597.5" y="-191" font-family="Helvetica,sans-Serif" font-size="10.00" fill="grey"> elements</text>
</g>
<!-- Node4 -->
<g id="Node000004" class="node">
<title>Node4</title>
<g id="a_Node000004"><a xlink:title=" ">
<polygon fill="white" stroke="#666666" points="291,-176 172,-176 172,-146 291,-146 291,-176"/>
<text text-anchor="start" x="180" y="-164" font-family="Helvetica,sans-Serif" font-size="10.00">std::unique_ptr&lt; rest</text>
<text text-anchor="middle" x="231.5" y="-153" font-family="Helvetica,sans-Serif" font-size="10.00">_cpp::Connection &gt;</text>
</a>
</g>
</g>
<!-- Node4&#45;&gt;Node3 -->
<g id="edge3_Node000003_Node000004" class="edge">
<title>Node4&#45;&gt;Node3</title>
<g id="a_edge3_Node000003_Node000004"><a xlink:title=" ">
<path fill="none" stroke="#9a32cd" stroke-dasharray="5,2" d="M301.15,-169.72C324.99,-172.75 351.74,-176.15 375.63,-179.19"/>
<polygon fill="#9a32cd" stroke="#9a32cd" points="301.49,-166.24 291.13,-168.45 300.61,-173.18 301.49,-166.24"/>
</a>
</g>
<text text-anchor="middle" x="333.5" y="-179" font-family="Helvetica,sans-Serif" font-size="10.00" fill="grey"> conn</text>
</g>
<!-- Node6 -->
<g id="Node000006" class="node">
<title>Node6</title>
<g id="a_Node000006"><a xlink:title=" ">
<polygon fill="white" stroke="#666666" points="661,-167 534,-167 534,-115 661,-115 661,-167"/>
<text text-anchor="start" x="542" y="-155" font-family="Helvetica,sans-Serif" font-size="10.00">std::unordered_map</text>
<text text-anchor="start" x="542" y="-144" font-family="Helvetica,sans-Serif" font-size="10.00">&lt; std::uint64_t, std</text>
<text text-anchor="start" x="542" y="-133" font-family="Helvetica,sans-Serif" font-size="10.00">::unique_ptr&lt; rest_cpp</text>
<text text-anchor="middle" x="597.5" y="-122" font-family="Helvetica,sans-Serif" font-size="10.00">::Connection &gt; &gt;</text>
</a>
</g>
</g>
<!-- Node4&#45;&gt;Node6 -->
<g id="edge6_Node000006_Node000004" class="edge">
<title>Node4&#45;&gt;Node6</title>
<g id="a_edge6_Node000006_Node000004"><a xlink:title=" ">
<path fill="none" stroke="#9a32cd" stroke-dasharray="5,2" d="M301.38,-156.46C303.96,-156.3 306.5,-156.15 309,-156 386.46,-151.45 475.71,-146.9 533.95,-144.03"/>
<polygon fill="#9a32cd" stroke="#9a32cd" points="301.15,-152.96 291.38,-157.07 301.58,-159.95 301.15,-152.96"/>
</a>
</g>
<text text-anchor="middle" x="333.5" y="-159" font-family="Helvetica,sans-Serif" font-size="10.00" fill="grey"> elements</text>
</g>
<!-- Node5 -->
<g id="Node000005" class="node">
<title>Node5</title>
<g id="a_Node000005"><a xlink:href="classrest__cpp_1_1Connection.html" target="_top" xlink:title="Represents a single network connection to an endpoint.">
<polygon fill="white" stroke="#666666" points="119,-176 0,-176 0,-146 119,-146 119,-176"/>
<text text-anchor="start" x="8" y="-164" font-family="Helvetica,sans-Serif" font-size="10.00">rest_cpp::Connection</text>
<text text-anchor="middle" x="59.5" y="-153" font-family="Helvetica,sans-Serif" font-size="10.00">&lt; mode &gt;</text>
</a>
</g>
</g>
<!-- Node5&#45;&gt;Node4 -->
<g id="edge4_Node000004_Node000005" class="edge">
<title>Node5&#45;&gt;Node4</title>
<g id="a_edge4_Node000004_Node000005"><a xlink:title=" ">
<path fill="none" stroke="#9a32cd" stroke-dasharray="5,2" d="M129.18,-161C143.34,-161 158.13,-161 171.89,-161"/>
<polygon fill="#9a32cd" stroke="#9a32cd" points="129,-157.5 119,-161 129,-164.5 129,-157.5"/>
</a>
</g>
<text text-anchor="middle" x="145.5" y="-164" font-family="Helvetica,sans-Serif" font-size="10.00" fill="grey"> ptr</text>
</g>
<!-- Node6&#45;&gt;Node1 -->
<g id="edge5_Node000001_Node000006" class="edge">
<title>Node6&#45;&gt;Node1</title>
<g id="a_edge5_Node000001_Node000006"><a xlink:title=" ">
<path fill="none" stroke="#9a32cd" stroke-dasharray="5,2" d="M671.61,-141.37C743.47,-141.74 852.34,-142.29 922.81,-142.65"/>
<polygon fill="#9a32cd" stroke="#9a32cd" points="671.3,-137.87 661.29,-141.32 671.27,-144.87 671.3,-137.87"/>
</a>
</g>
<text text-anchor="middle" x="758.5" y="-145" font-family="Helvetica,sans-Serif" font-size="10.00" fill="grey"> in_use</text>
</g>
<!-- Node7 -->
<g id="Node000007" class="node">
<title>Node7</title>
<g id="a_Node000007"><a xlink:title=" ">
<polygon fill="white" stroke="#666666" points="836,-98 681,-98 681,-68 836,-68 836,-98"/>
<text text-anchor="start" x="689" y="-86" font-family="Helvetica,sans-Serif" font-size="10.00">std::list&lt; rest_cpp</text>
<text text-anchor="middle" x="758.5" y="-75" font-family="Helvetica,sans-Serif" font-size="10.00">::ConnectionPool::Waiter * &gt;</text>
</a>
</g>
</g>
<!-- Node7&#45;&gt;Node1 -->
<g id="edge7_Node000001_Node000007" class="edge">
<title>Node7&#45;&gt;Node1</title>
<g id="a_edge7_Node000001_Node000007"><a xlink:title=" ">
<path fill="none" stroke="#9a32cd" stroke-dasharray="5,2" d="M834.73,-100.43C857.37,-105.86 882.24,-112 905,-118 916.7,-121.09 929.23,-124.58 941.04,-127.95"/>
<polygon fill="#9a32cd" stroke="#9a32cd" points="835.38,-96.99 824.84,-98.07 833.75,-103.8 835.38,-96.99"/>
</a>
</g>
<text text-anchor="middle" x="880.5" y="-121" font-family="Helvetica,sans-Serif" font-size="10.00" fill="grey"> waiters</text>
</g>
<!-- Node8 -->
<g id="Node000008" class="node">
<title>Node8</title>
<g id="a_Node000008"><a xlink:href="structrest__cpp_1_1ConnectionPool_1_1Waiter.html" target="_top" xlink:title="Waiter for connection availability.">
<polygon fill="white" stroke="#666666" points="1063,-64 923,-64 923,-34 1063,-34 1063,-64"/>
<text text-anchor="start" x="931" y="-52" font-family="Helvetica,sans-Serif" font-size="10.00">rest_cpp::ConnectionPool</text>
<text text-anchor="middle" x="993" y="-41" font-family="Helvetica,sans-Serif" font-size="10.00">::Waiter</text>
</a>
</g>
</g>
<!-- Node7&#45;&gt;Node8 -->
<g id="edge10_Node000008_Node000007" class="edge">
<title>Node7&#45;&gt;Node8</title>
<g id="a_edge10_Node000008_Node000007"><a xlink:title=" ">
<path fill="none" stroke="#9a32cd" stroke-dasharray="5,2" d="M846.21,-70.32C871.47,-66.63 898.73,-62.64 922.76,-59.13"/>
<polygon fill="#9a32cd" stroke="#9a32cd" points="845.66,-66.86 836.27,-71.77 846.67,-73.79 845.66,-66.86"/>
</a>
</g>
<text text-anchor="middle" x="880.5" y="-72" font-family="Helvetica,sans-Serif" font-size="10.00" fill="grey"> queue_it</text>
</g>
<!-- Node8&#45;&gt;Node7 -->
<g id="edge8_Node000007_Node000008" class="edge">
<title>Node8&#45;&gt;Node7</title>
<g id="a_edge8_Node000007_Node000008"><a xlink:title=" ">
<path fill="none" stroke="#9a32cd" stroke-dasharray="5,2" d="M912.55,-45.3C893.9,-45.61 874.17,-46.91 856,-50 835.05,-53.56 812.54,-61.04 794.53,-67.97"/>
<polygon fill="#9a32cd" stroke="#9a32cd" points="912.81,-48.8 922.78,-45.22 912.76,-41.8 912.81,-48.8"/>
</a>
</g>
<text text-anchor="middle" x="880.5" y="-53" font-family="Helvetica,sans-Serif" font-size="10.00" fill="grey"> elements</text>
</g>
<!-- Node9 -->
<g id="Node000009" class="node">
<title>Node9</title>
<g id="a_Node000009"><a xlink:title=" ">
<polygon fill="white" stroke="#666666" points="822.5,-30 694.5,-30 694.5,0 822.5,0 822.5,-30"/>
<text text-anchor="start" x="702.5" y="-18" font-family="Helvetica,sans-Serif" font-size="10.00">std::shared_ptr&lt; boost</text>
<text text-anchor="middle" x="758.5" y="-7" font-family="Helvetica,sans-Serif" font-size="10.00">::asio::steady_timer &gt;</text>
</a>
</g>
</g>
<!-- Node9&#45;&gt;Node8 -->
<g id="edge9_Node000008_Node000009" class="edge">
<title>Node9&#45;&gt;Node8</title>
<g id="a_edge9_Node000008_Node000009"><a xlink:title=" ">
<path fill="none" stroke="#9a32cd" stroke-dasharray="5,2" d="M832.8,-21.7C855.96,-24.18 881.6,-27.3 905,-31 910.79,-31.92 916.78,-32.96 922.78,-34.06"/>
<polygon fill="#9a32cd" stroke="#9a32cd" points="833.01,-18.2 822.7,-20.64 832.28,-25.16 833.01,-18.2"/>
</a>
</g>
<text text-anchor="middle" x="880.5" y="-34" font-family="Helvetica,sans-Serif" font-size="10.00" fill="grey"> timer</text>
</g>
</g>
</svg>
