<?xml version="1.0" encoding="UTF-8" standalone="no"?>
<!DOCTYPE svg PUBLIC "-//W3C//DTD SVG 1.1//EN"
 "http://www.w3.org/Graphics/SVG/1.1/DTD/svg11.dtd">
<!-- Generated by graphviz version 2.43.0 (0)
 -->
<!-- Title: rest_cpp::ConnectionPool::Waiter Pages: 1 -->
<svg width="582pt" height="41pt"
 viewBox="0.00 0.00 582.00 40.98" xmlns="http://www.w3.org/2000/svg" xmlns:xlink="http://www.w3.org/1999/xlink">
<g id="graph0" class="graph" transform="scale(1 1) rotate(0) translate(4 36.98)">
<title>rest_cpp::ConnectionPool::Waiter</title>
<!-- Node1 -->
<g id="Node000001" class="node">
<title>Node1</title>
<g id="a_Node000001"><a xlink:title="Waiter for connection availability.">
<polygon fill="#999999" stroke="#666666" points="334,-32.98 194,-32.98 194,-2.98 334,-2.98 334,-32.98"/>
<text text-anchor="start" x="202" y="-20.98" font-family="Helvetica,sans-Serif" font-size="10.00">rest_cpp::ConnectionPool</text>
<text text-anchor="middle" x="264" y="-9.98" font-family="Helvetica,sans-Serif" font-size="10.00">::Waiter</text>
</a>
</g>
</g>
<!-- Node3 -->
<g id="Node000003" class="node">
<title>Node3</title>
<g id="a_Node000003"><a xlink:title=" ">
<polygon fill="white" stroke="#666666" points="574,-32.98 419,-32.98 419,-2.98 574,-2.98 574,-32.98"/>
<text text-anchor="start" x="427" y="-20.98" font-family="Helvetica,sans-Serif" font-size="10.00">std::list&lt; rest_cpp</text>
<text text-anchor="middle" x="496.5" y="-9.98" font-family="Helvetica,sans-Serif" font-size="10.00">::ConnectionPool::Waiter * &gt;</text>
</a>
</g>
</g>
<!-- Node1&#45;&gt;Node3 -->
<g id="edge3_Node000003_Node000001" class="edge">
<title>Node1&#45;&gt;Node3</title>
<g id="a_edge3_Node000003_Node000001"><a xlink:title=" ">
<path fill="none" stroke="#9a32cd" stroke-dasharray="5,2" d="M344.32,-17.98C368.41,-17.98 394.82,-17.98 418.73,-17.98"/>
<polygon fill="#9a32cd" stroke="#9a32cd" points="344.16,-14.48 334.16,-17.98 344.16,-21.48 344.16,-14.48"/>
</a>
</g>
<text text-anchor="middle" x="376.5" y="-20.98" font-family="Helvetica,sans-Serif" font-size="10.00" fill="grey"> elements</text>
</g>
<!-- Node2 -->
<g id="Node000002" class="node">
<title>Node2</title>
<g id="a_Node000002"><a xlink:title=" ">
<polygon fill="white" stroke="#666666" points="128,-32.98 0,-32.98 0,-2.98 128,-2.98 128,-32.98"/>
<text text-anchor="start" x="8" y="-20.98" font-family="Helvetica,sans-Serif" font-size="10.00">std::shared_ptr&lt; boost</text>
<text text-anchor="middle" x="64" y="-9.98" font-family="Helvetica,sans-Serif" font-size="10.00">::asio::steady_timer &gt;</text>
</a>
</g>
</g>
<!-- Node2&#45;&gt;Node1 -->
<g id="edge1_Node000001_Node000002" class="edge">
<title>Node2&#45;&gt;Node1</title>
<g id="a_edge1_Node000001_Node000002"><a xlink:title=" ">
<path fill="none" stroke="#9a32cd" stroke-dasharray="5,2" d="M138.42,-17.98C156.58,-17.98 175.96,-17.98 193.9,-17.98"/>
<polygon fill="#9a32cd" stroke="#9a32cd" points="138.19,-14.48 128.19,-17.98 138.19,-21.48 138.19,-14.48"/>
</a>
</g>
<text text-anchor="middle" x="161" y="-20.98" font-family="Helvetica,sans-Serif" font-size="10.00" fill="grey"> timer</text>
</g>
<!-- Node3&#45;&gt;Node1 -->
<g id="edge2_Node000001_Node000003" class="edge">
<title>Node3&#45;&gt;Node1</title>
<g id="a_edge2_Node000001_Node000003"><a xlink:title=" ">
<path fill="none" stroke="#9a32cd" stroke-dasharray="5,2" d="M408.71,-2.71C406.11,-2.44 403.54,-2.19 401,-1.98 379.3,-0.15 373.69,0 352,-1.98 346.19,-2.51 340.18,-3.23 334.18,-4.08"/>
<polygon fill="#9a32cd" stroke="#9a32cd" points="408.45,-6.2 418.79,-3.88 409.26,0.75 408.45,-6.2"/>
</a>
</g>
<text text-anchor="middle" x="376.5" y="-4.98" font-family="Helvetica,sans-Serif" font-size="10.00" fill="grey"> queue_it</text>
</g>
</g>
</svg>
