<?xml version="1.0" encoding="UTF-8" standalone="no"?>
<!DOCTYPE svg PUBLIC "-//W3C//DTD SVG 1.1//EN"
 "http://www.w3.org/Graphics/SVG/1.1/DTD/svg11.dtd">
<!-- Generated by graphviz version 2.43.0 (0)
 -->
<!-- Title: rest_cpp::RestClientConfiguration Pages: 1 -->
<svg width="960pt" height="130pt"
 viewBox="0.00 0.00 960.00 129.50" xmlns="http://www.w3.org/2000/svg" xmlns:xlink="http://www.w3.org/1999/xlink">
<g id="graph0" class="graph" transform="scale(1 1) rotate(0) translate(4 125.5)">
<title>rest_cpp::RestClientConfiguration</title>
<!-- Node1 -->
<g id="Node000001" class="node">
<title>Node1</title>
<g id="a_Node000001"><a xlink:title="Configuration for the synchronous RestClient.">
<polygon fill="#999999" stroke="#666666" points="952,-84 773,-84 773,-65 952,-65 952,-84"/>
<text text-anchor="middle" x="862.5" y="-72" font-family="Helvetica,sans-Serif" font-size="10.00">rest_cpp::RestClientConfiguration</text>
</a>
</g>
</g>
<!-- Node2 -->
<g id="Node000002" class="node">
<title>Node2</title>
<g id="a_Node000002"><a xlink:title=" ">
<polygon fill="white" stroke="#666666" points="342,-116 277,-116 277,-97 342,-97 342,-116"/>
<text text-anchor="middle" x="309.5" y="-104" font-family="Helvetica,sans-Serif" font-size="10.00">std::string</text>
</a>
</g>
</g>
<!-- Node2&#45;&gt;Node1 -->
<g id="edge1_Node000001_Node000002" class="edge">
<title>Node2&#45;&gt;Node1</title>
<g id="a_edge1_Node000001_Node000002"><a xlink:title=" ">
<path fill="none" stroke="#9a32cd" stroke-dasharray="5,2" d="M352.23,-108.72C374.43,-109.8 402.19,-110.97 427,-111.5 559.84,-114.35 714.74,-95.9 799.03,-84.02"/>
<polygon fill="#9a32cd" stroke="#9a32cd" points="352.29,-105.22 342.13,-108.22 351.95,-112.22 352.29,-105.22"/>
</a>
</g>
<text text-anchor="middle" x="574.5" y="-113.5" font-family="Helvetica,sans-Serif" font-size="10.00" fill="grey"> user_agent</text>
</g>
<!-- Node4 -->
<g id="Node000004" class="node">
<title>Node4</title>
<g id="a_Node000004"><a xlink:title=" ">
<polygon fill="white" stroke="#666666" points="635.5,-89.5 513.5,-89.5 513.5,-59.5 635.5,-59.5 635.5,-89.5"/>
<text text-anchor="start" x="521.5" y="-77.5" font-family="Helvetica,sans-Serif" font-size="10.00">std::map&lt; std::string,</text>
<text text-anchor="middle" x="574.5" y="-66.5" font-family="Helvetica,sans-Serif" font-size="10.00"> std::string &gt;</text>
</a>
</g>
</g>
<!-- Node2&#45;&gt;Node4 -->
<g id="edge4_Node000004_Node000002" class="edge">
<title>Node2&#45;&gt;Node4</title>
<g id="a_edge4_Node000004_Node000002"><a xlink:title=" ">
<path fill="none" stroke="#9a32cd" stroke-dasharray="5,2" d="M352.18,-99.98C374.37,-96.61 402.13,-92.59 427,-89.5 455.29,-85.99 486.73,-82.69 513.21,-80.09"/>
<polygon fill="#9a32cd" stroke="#9a32cd" points="351.45,-96.55 342.1,-101.52 352.51,-103.47 351.45,-96.55"/>
</a>
</g>
<text text-anchor="middle" x="451.5" y="-103.5" font-family="Helvetica,sans-Serif" font-size="10.00" fill="grey"> elements</text>
<text text-anchor="middle" x="451.5" y="-92.5" font-family="Helvetica,sans-Serif" font-size="10.00" fill="grey">keys</text>
</g>
<!-- Node3 -->
<g id="Node000003" class="node">
<title>Node3</title>
<g id="a_Node000003"><a xlink:title=" ">
<polygon fill="white" stroke="#666666" points="130.5,-121.5 26.5,-121.5 26.5,-91.5 130.5,-91.5 130.5,-121.5"/>
<text text-anchor="start" x="34.5" y="-109.5" font-family="Helvetica,sans-Serif" font-size="10.00">std::basic_string&lt;</text>
<text text-anchor="middle" x="78.5" y="-98.5" font-family="Helvetica,sans-Serif" font-size="10.00"> Char &gt;</text>
</a>
</g>
</g>
<!-- Node3&#45;&gt;Node2 -->
<g id="edge2_Node000002_Node000003" class="edge">
<title>Node3&#45;&gt;Node2</title>
<g id="a_edge2_Node000002_Node000003"><a xlink:title=" ">
<path fill="none" stroke="#63b8ff" d="M140.88,-106.5C184.74,-106.5 241.97,-106.5 276.93,-106.5"/>
<polygon fill="#63b8ff" stroke="#63b8ff" points="140.61,-103 130.61,-106.5 140.61,-110 140.61,-103"/>
</a>
</g>
</g>
<!-- Node4&#45;&gt;Node1 -->
<g id="edge3_Node000001_Node000004" class="edge">
<title>Node4&#45;&gt;Node1</title>
<g id="a_edge3_Node000001_Node000004"><a xlink:title=" ">
<path fill="none" stroke="#9a32cd" stroke-dasharray="5,2" d="M645.83,-74.5C684.14,-74.5 731.92,-74.5 772.77,-74.5"/>
<polygon fill="#9a32cd" stroke="#9a32cd" points="645.8,-71 635.8,-74.5 645.8,-78 645.8,-71"/>
</a>
</g>
<text text-anchor="middle" x="714" y="-77.5" font-family="Helvetica,sans-Serif" font-size="10.00" fill="grey"> default_headers</text>
</g>
<!-- Node5 -->
<g id="Node000005" class="node">
<title>Node5</title>
<g id="a_Node000005"><a xlink:title=" ">
<polygon fill="white" stroke="#666666" points="655,-41 494,-41 494,0 655,0 655,-41"/>
<text text-anchor="start" x="502" y="-29" font-family="Helvetica,sans-Serif" font-size="10.00">std::vector&lt; std::shared</text>
<text text-anchor="start" x="502" y="-18" font-family="Helvetica,sans-Serif" font-size="10.00">_ptr&lt; const class rest</text>
<text text-anchor="middle" x="574.5" y="-7" font-family="Helvetica,sans-Serif" font-size="10.00">_cpp::RequestInterceptor &gt; &gt;</text>
</a>
</g>
</g>
<!-- Node5&#45;&gt;Node1 -->
<g id="edge5_Node000001_Node000005" class="edge">
<title>Node5&#45;&gt;Node1</title>
<g id="a_edge5_Node000001_Node000005"><a xlink:title=" ">
<path fill="none" stroke="#9a32cd" stroke-dasharray="5,2" d="M665.27,-37.45C713.34,-46.53 770.76,-57.37 811.03,-64.97"/>
<polygon fill="#9a32cd" stroke="#9a32cd" points="665.64,-33.96 655.17,-35.54 664.34,-40.84 665.64,-33.96"/>
</a>
</g>
<text text-anchor="middle" x="714" y="-56.5" font-family="Helvetica,sans-Serif" font-size="10.00" fill="grey"> interceptors</text>
</g>
<!-- Node6 -->
<g id="Node000006" class="node">
<title>Node6</title>
<g id="a_Node000006"><a xlink:title=" ">
<polygon fill="white" stroke="#666666" points="409,-35.5 210,-35.5 210,-5.5 409,-5.5 409,-35.5"/>
<text text-anchor="start" x="218" y="-23.5" font-family="Helvetica,sans-Serif" font-size="10.00">std::shared_ptr&lt; const</text>
<text text-anchor="middle" x="309.5" y="-12.5" font-family="Helvetica,sans-Serif" font-size="10.00"> class rest_cpp::RequestInterceptor &gt;</text>
</a>
</g>
</g>
<!-- Node6&#45;&gt;Node5 -->
<g id="edge6_Node000005_Node000006" class="edge">
<title>Node6&#45;&gt;Node5</title>
<g id="a_edge6_Node000005_Node000006"><a xlink:title=" ">
<path fill="none" stroke="#9a32cd" stroke-dasharray="5,2" d="M419.43,-20.5C444.41,-20.5 470.5,-20.5 493.97,-20.5"/>
<polygon fill="#9a32cd" stroke="#9a32cd" points="419.18,-17 409.18,-20.5 419.18,-24 419.18,-17"/>
</a>
</g>
<text text-anchor="middle" x="451.5" y="-23.5" font-family="Helvetica,sans-Serif" font-size="10.00" fill="grey"> elements</text>
</g>
<!-- Node7 -->
<g id="Node000007" class="node">
<title>Node7</title>
<g id="a_Node000007"><a xlink:href="classrest__cpp_1_1RequestInterceptor.html" target="_top" xlink:title="Interface for intercepting and modifying requests before they are sent.">
<polygon fill="white" stroke="#666666" points="157,-30 0,-30 0,-11 157,-11 157,-30"/>
<text text-anchor="middle" x="78.5" y="-18" font-family="Helvetica,sans-Serif" font-size="10.00">rest_cpp::RequestInterceptor</text>
</a>
</g>
</g>
<!-- Node7&#45;&gt;Node6 -->
<g id="edge7_Node000006_Node000007" class="edge">
<title>Node7&#45;&gt;Node6</title>
<g id="a_edge7_Node000006_Node000007"><a xlink:title=" ">
<path fill="none" stroke="#9a32cd" stroke-dasharray="5,2" d="M167.12,-20.5C181.12,-20.5 195.7,-20.5 209.94,-20.5"/>
<polygon fill="#9a32cd" stroke="#9a32cd" points="167.03,-17 157.03,-20.5 167.03,-24 167.03,-17"/>
</a>
</g>
<text text-anchor="middle" x="183.5" y="-23.5" font-family="Helvetica,sans-Serif" font-size="10.00" fill="grey"> ptr</text>
</g>
</g>
</svg>
