<?xml version="1.0" encoding="UTF-8" standalone="no"?>
<!DOCTYPE svg PUBLIC "-//W3C//DTD SVG 1.1//EN"
 "http://www.w3.org/Graphics/SVG/1.1/DTD/svg11.dtd">
<!-- Generated by graphviz version 2.43.0 (0)
 -->
<!-- Title: rest_cpp::ConnectionPool::IdleEntry Pages: 1 -->
<svg width="148pt" height="192pt"
 viewBox="0.00 0.00 148.00 192.00" xmlns="http://www.w3.org/2000/svg" xmlns:xlink="http://www.w3.org/1999/xlink">
<g id="graph0" class="graph" transform="scale(1 1) rotate(0) translate(4 188)">
<title>rest_cpp::ConnectionPool::IdleEntry</title>
<!-- Node1 -->
<g id="Node000001" class="node">
<title>Node1</title>
<g id="a_Node000001"><a xlink:title="Entry for an idle connection with health tracking.">
<polygon fill="#999999" stroke="#666666" points="140,-30 0,-30 0,0 140,0 140,-30"/>
<text text-anchor="start" x="8" y="-18" font-family="Helvetica,sans-Serif" font-size="10.00">rest_cpp::ConnectionPool</text>
<text text-anchor="middle" x="70" y="-7" font-family="Helvetica,sans-Serif" font-size="10.00">::IdleEntry</text>
</a>
</g>
</g>
<!-- Node2 -->
<g id="Node000002" class="node">
<title>Node2</title>
<g id="a_Node000002"><a xlink:title=" ">
<polygon fill="white" stroke="#666666" points="129.5,-107 10.5,-107 10.5,-77 129.5,-77 129.5,-107"/>
<text text-anchor="start" x="18.5" y="-95" font-family="Helvetica,sans-Serif" font-size="10.00">std::unique_ptr&lt; rest</text>
<text text-anchor="middle" x="70" y="-84" font-family="Helvetica,sans-Serif" font-size="10.00">_cpp::Connection &gt;</text>
</a>
</g>
</g>
<!-- Node2&#45;&gt;Node1 -->
<g id="edge1_Node000001_Node000002" class="edge">
<title>Node2&#45;&gt;Node1</title>
<g id="a_edge1_Node000001_Node000002"><a xlink:title=" ">
<path fill="none" stroke="#9a32cd" stroke-dasharray="5,2" d="M70,-66.54C70,-54.45 70,-40.29 70,-30.04"/>
<polygon fill="#9a32cd" stroke="#9a32cd" points="66.5,-66.89 70,-76.89 73.5,-66.89 66.5,-66.89"/>
</a>
</g>
<text text-anchor="middle" x="83.5" y="-51" font-family="Helvetica,sans-Serif" font-size="10.00" fill="grey"> conn</text>
</g>
<!-- Node3 -->
<g id="Node000003" class="node">
<title>Node3</title>
<g id="a_Node000003"><a xlink:href="classrest__cpp_1_1Connection.html" target="_top" xlink:title="Represents a single network connection to an endpoint.">
<polygon fill="white" stroke="#666666" points="129.5,-184 10.5,-184 10.5,-154 129.5,-154 129.5,-184"/>
<text text-anchor="start" x="18.5" y="-172" font-family="Helvetica,sans-Serif" font-size="10.00">rest_cpp::Connection</text>
<text text-anchor="middle" x="70" y="-161" font-family="Helvetica,sans-Serif" font-size="10.00">&lt; mode &gt;</text>
</a>
</g>
</g>
<!-- Node3&#45;&gt;Node2 -->
<g id="edge2_Node000002_Node000003" class="edge">
<title>Node3&#45;&gt;Node2</title>
<g id="a_edge2_Node000002_Node000003"><a xlink:title=" ">
<path fill="none" stroke="#9a32cd" stroke-dasharray="5,2" d="M70,-143.54C70,-131.45 70,-117.29 70,-107.04"/>
<polygon fill="#9a32cd" stroke="#9a32cd" points="66.5,-143.89 70,-153.89 73.5,-143.89 66.5,-143.89"/>
</a>
</g>
<text text-anchor="middle" x="78.5" y="-128" font-family="Helvetica,sans-Serif" font-size="10.00" fill="grey"> ptr</text>
</g>
</g>
</svg>
