<?xml version="1.0" encoding="UTF-8" standalone="no"?>
<!DOCTYPE svg PUBLIC "-//W3C//DTD SVG 1.1//EN"
 "http://www.w3.org/Graphics/SVG/1.1/DTD/svg11.dtd">
<!-- Generated by graphviz version 2.43.0 (0)
 -->
<!-- Title: include/rest_cpp/url.hpp Pages: 1 -->
<svg width="375pt" height="192pt"
 viewBox="0.00 0.00 375.00 192.00" xmlns="http://www.w3.org/2000/svg" xmlns:xlink="http://www.w3.org/1999/xlink">
<g id="graph0" class="graph" transform="scale(1 1) rotate(0) translate(4 188)">
<title>include/rest_cpp/url.hpp</title>
<!-- Node1 -->
<g id="Node000001" class="node">
<title>Node1</title>
<g id="a_Node000001"><a xlink:title=" ">
<polygon fill="#999999" stroke="#666666" points="148.5,-184 15.5,-184 15.5,-165 148.5,-165 148.5,-184"/>
<text text-anchor="middle" x="82" y="-172" font-family="Helvetica,sans-Serif" font-size="10.00">include/rest_cpp/url.hpp</text>
</a>
</g>
</g>
<!-- Node2 -->
<g id="Node000002" class="node">
<title>Node2</title>
<g id="a_Node000002"><a xlink:title=" ">
<polygon fill="#e0e0e0" stroke="#999999" points="185,-19 141,-19 141,0 185,0 185,-19"/>
<text text-anchor="middle" x="163" y="-7" font-family="Helvetica,sans-Serif" font-size="10.00">string</text>
</a>
</g>
</g>
<!-- Node1&#45;&gt;Node2 -->
<g id="edge1_Node000001_Node000002" class="edge">
<title>Node1&#45;&gt;Node2</title>
<g id="a_edge1_Node000001_Node000002"><a xlink:title=" ">
<path fill="none" stroke="#63b8ff" d="M69.15,-164.83C41.01,-144.78 -21.34,-93.94 8,-55 22.76,-35.41 89.94,-21.78 130.86,-15.14"/>
<polygon fill="#63b8ff" stroke="#63b8ff" points="131.56,-18.57 140.9,-13.57 130.48,-11.66 131.56,-18.57"/>
</a>
</g>
</g>
<!-- Node3 -->
<g id="Node000003" class="node">
<title>Node3</title>
<g id="a_Node000003"><a xlink:title=" ">
<polygon fill="#e0e0e0" stroke="#999999" points="118.5,-129 45.5,-129 45.5,-110 118.5,-110 118.5,-129"/>
<text text-anchor="middle" x="82" y="-117" font-family="Helvetica,sans-Serif" font-size="10.00">string_view</text>
</a>
</g>
</g>
<!-- Node1&#45;&gt;Node3 -->
<g id="edge2_Node000001_Node000003" class="edge">
<title>Node1&#45;&gt;Node3</title>
<g id="a_edge2_Node000001_Node000003"><a xlink:title=" ">
<path fill="none" stroke="#63b8ff" d="M82,-164.75C82,-157.8 82,-147.85 82,-139.13"/>
<polygon fill="#63b8ff" stroke="#63b8ff" points="85.5,-139.09 82,-129.09 78.5,-139.09 85.5,-139.09"/>
</a>
</g>
</g>
<!-- Node4 -->
<g id="Node000004" class="node">
<title>Node4</title>
<g id="a_Node000004"><a xlink:href="result_8hpp.html" target="_top" xlink:title=" ">
<polygon fill="white" stroke="#666666" points="215.5,-129 150.5,-129 150.5,-110 215.5,-110 215.5,-129"/>
<text text-anchor="middle" x="183" y="-117" font-family="Helvetica,sans-Serif" font-size="10.00">result.hpp</text>
</a>
</g>
</g>
<!-- Node1&#45;&gt;Node4 -->
<g id="edge3_Node000001_Node000004" class="edge">
<title>Node1&#45;&gt;Node4</title>
<g id="a_edge3_Node000001_Node000004"><a xlink:title=" ">
<path fill="none" stroke="#63b8ff" d="M98.22,-164.98C114.18,-156.61 138.78,-143.7 157.37,-133.95"/>
<polygon fill="#63b8ff" stroke="#63b8ff" points="159.24,-136.92 166.47,-129.17 155.99,-130.72 159.24,-136.92"/>
</a>
</g>
</g>
<!-- Node5 -->
<g id="Node000005" class="node">
<title>Node5</title>
<g id="a_Node000005"><a xlink:title=" ">
<polygon fill="#e0e0e0" stroke="#999999" points="69,-74 17,-74 17,-55 69,-55 69,-74"/>
<text text-anchor="middle" x="43" y="-62" font-family="Helvetica,sans-Serif" font-size="10.00">cassert</text>
</a>
</g>
</g>
<!-- Node4&#45;&gt;Node5 -->
<g id="edge4_Node000004_Node000005" class="edge">
<title>Node4&#45;&gt;Node5</title>
<g id="a_edge4_Node000004_Node000005"><a xlink:title=" ">
<path fill="none" stroke="#63b8ff" d="M160.5,-109.98C137.47,-101.27 101.46,-87.63 75.36,-77.75"/>
<polygon fill="#63b8ff" stroke="#63b8ff" points="76.49,-74.44 65.9,-74.17 74.01,-80.98 76.49,-74.44"/>
</a>
</g>
</g>
<!-- Node6 -->
<g id="Node000006" class="node">
<title>Node6</title>
<g id="a_Node000006"><a xlink:title=" ">
<polygon fill="#e0e0e0" stroke="#999999" points="156.5,-74 87.5,-74 87.5,-55 156.5,-55 156.5,-74"/>
<text text-anchor="middle" x="122" y="-62" font-family="Helvetica,sans-Serif" font-size="10.00">type_traits</text>
</a>
</g>
</g>
<!-- Node4&#45;&gt;Node6 -->
<g id="edge5_Node000004_Node000006" class="edge">
<title>Node4&#45;&gt;Node6</title>
<g id="a_edge5_Node000004_Node000006"><a xlink:title=" ">
<path fill="none" stroke="#63b8ff" d="M173.2,-109.98C164.18,-102.15 150.59,-90.34 139.68,-80.86"/>
<polygon fill="#63b8ff" stroke="#63b8ff" points="141.82,-78.09 131.97,-74.17 137.23,-83.37 141.82,-78.09"/>
</a>
</g>
</g>
<!-- Node7 -->
<g id="Node000007" class="node">
<title>Node7</title>
<g id="a_Node000007"><a xlink:title=" ">
<polygon fill="#e0e0e0" stroke="#999999" points="219.5,-74 174.5,-74 174.5,-55 219.5,-55 219.5,-74"/>
<text text-anchor="middle" x="197" y="-62" font-family="Helvetica,sans-Serif" font-size="10.00">utility</text>
</a>
</g>
</g>
<!-- Node4&#45;&gt;Node7 -->
<g id="edge6_Node000004_Node000007" class="edge">
<title>Node4&#45;&gt;Node7</title>
<g id="a_edge6_Node000004_Node000007"><a xlink:title=" ">
<path fill="none" stroke="#63b8ff" d="M185.31,-109.75C187.16,-102.72 189.83,-92.62 192.15,-83.84"/>
<polygon fill="#63b8ff" stroke="#63b8ff" points="195.56,-84.65 194.73,-74.09 188.79,-82.86 195.56,-84.65"/>
</a>
</g>
</g>
<!-- Node8 -->
<g id="Node000008" class="node">
<title>Node8</title>
<g id="a_Node000008"><a xlink:title=" ">
<polygon fill="#e0e0e0" stroke="#999999" points="288.5,-74 237.5,-74 237.5,-55 288.5,-55 288.5,-74"/>
<text text-anchor="middle" x="263" y="-62" font-family="Helvetica,sans-Serif" font-size="10.00">variant</text>
</a>
</g>
</g>
<!-- Node4&#45;&gt;Node8 -->
<g id="edge7_Node000004_Node000008" class="edge">
<title>Node4&#45;&gt;Node8</title>
<g id="a_edge7_Node000004_Node000008"><a xlink:title=" ">
<path fill="none" stroke="#63b8ff" d="M195.85,-109.98C208.14,-101.84 226.9,-89.41 241.47,-79.76"/>
<polygon fill="#63b8ff" stroke="#63b8ff" points="243.51,-82.61 249.91,-74.17 239.64,-76.78 243.51,-82.61"/>
</a>
</g>
</g>
<!-- Node9 -->
<g id="Node000009" class="node">
<title>Node9</title>
<g id="a_Node000009"><a xlink:href="error_8hpp.html" target="_top" xlink:title=" ">
<polygon fill="white" stroke="#666666" points="367,-74 307,-74 307,-55 367,-55 367,-74"/>
<text text-anchor="middle" x="337" y="-62" font-family="Helvetica,sans-Serif" font-size="10.00">error.hpp</text>
</a>
</g>
</g>
<!-- Node4&#45;&gt;Node9 -->
<g id="edge8_Node000004_Node000009" class="edge">
<title>Node4&#45;&gt;Node9</title>
<g id="a_edge8_Node000004_Node000009"><a xlink:title=" ">
<path fill="none" stroke="#63b8ff" d="M207.74,-109.98C233.37,-101.16 273.63,-87.31 302.4,-77.41"/>
<polygon fill="#63b8ff" stroke="#63b8ff" points="303.74,-80.65 312.06,-74.08 301.46,-74.03 303.74,-80.65"/>
</a>
</g>
</g>
<!-- Node9&#45;&gt;Node2 -->
<g id="edge9_Node000009_Node000002" class="edge">
<title>Node9&#45;&gt;Node2</title>
<g id="a_edge9_Node000009_Node000002"><a xlink:title=" ">
<path fill="none" stroke="#63b8ff" d="M309.04,-54.98C277.92,-45.51 227.72,-30.21 195.04,-20.26"/>
<polygon fill="#63b8ff" stroke="#63b8ff" points="195.67,-16.79 185.09,-17.23 193.63,-23.49 195.67,-16.79"/>
</a>
</g>
</g>
</g>
</svg>
